<?xml version="1.0" encoding="UTF-8"?>
<svg xmlns="http://www.w3.org/2000/svg" xmlns:xlink="http://www.w3.org/1999/xlink" width="175px" height="35px" viewBox="0 0 171 35" version="1.1">
<g id="surface1">
<path style=" stroke:none;fill-rule:nonzero;fill:rgb(0%,0%,0%);fill-opacity:1;" d="M 162.503906 5.519531 C 162.351562 5.328125 162.199219 5.136719 162.042969 4.980469 C 162.007812 4.941406 161.929688 4.902344 161.890625 4.867188 C 162.160156 4.789062 162.429688 4.671875 162.582031 4.519531 C 162.8125 4.328125 162.929688 4.019531 162.929688 3.710938 C 162.929688 3.441406 162.851562 3.25 162.738281 3.058594 C 162.621094 2.867188 162.429688 2.710938 162.238281 2.636719 C 162.007812 2.558594 161.738281 2.519531 161.3125 2.519531 L 159.277344 2.519531 L 159.277344 6.789062 L 160.046875 6.789062 L 160.046875 4.980469 L 160.621094 4.980469 C 160.621094 4.980469 160.96875 4.980469 161.046875 5.019531 C 161.121094 5.019531 161.238281 5.136719 161.351562 5.25 C 161.46875 5.367188 161.621094 5.597656 161.851562 5.902344 C 161.851562 5.902344 162.46875 6.789062 162.46875 6.789062 L 163.429688 6.789062 L 162.582031 5.519531 Z M 160.046875 3.136719 L 161.3125 3.136719 C 161.621094 3.136719 161.8125 3.210938 161.96875 3.289062 C 162.082031 3.402344 162.160156 3.519531 162.160156 3.710938 C 162.160156 3.828125 162.160156 3.941406 162.042969 4.019531 C 161.96875 4.097656 161.890625 4.171875 161.738281 4.210938 C 161.621094 4.25 161.429688 4.289062 161.160156 4.289062 L 160.007812 4.289062 L 160.007812 3.136719 Z M 160.046875 3.136719 "/>
<path style=" stroke:none;fill-rule:nonzero;fill:rgb(0%,0%,0%);fill-opacity:1;" d="M 164.273438 1.710938 C 163.503906 0.941406 162.390625 0.441406 161.199219 0.441406 C 160.007812 0.441406 158.894531 0.941406 158.085938 1.710938 C 157.277344 2.480469 156.816406 3.558594 156.816406 4.75 C 156.816406 5.941406 157.316406 7.019531 158.085938 7.789062 C 158.894531 8.558594 159.96875 9.058594 161.199219 9.058594 C 162.390625 9.058594 163.503906 8.558594 164.3125 7.789062 C 165.121094 7.019531 165.582031 5.941406 165.582031 4.75 C 165.582031 3.558594 165.082031 2.480469 164.3125 1.710938 Z M 161.199219 8.210938 C 160.238281 8.210938 159.355469 7.828125 158.699219 7.210938 C 158.046875 6.597656 157.664062 5.710938 157.664062 4.75 C 157.664062 3.789062 158.046875 2.941406 158.699219 2.289062 C 159.355469 1.671875 160.238281 1.289062 161.199219 1.289062 C 162.160156 1.289062 163.042969 1.671875 163.695312 2.289062 C 164.351562 2.902344 164.734375 3.789062 164.734375 4.75 C 164.734375 5.710938 164.351562 6.558594 163.695312 7.210938 C 163.042969 7.828125 162.160156 8.210938 161.199219 8.210938 Z M 161.199219 8.210938 "/>
<path style=" stroke:none;fill-rule:nonzero;fill:rgb(0%,0%,0%);fill-opacity:1;" d="M 5.417969 28.289062 L 5.417969 9.789062 L 19.410156 9.789062 C 20.679688 9.789062 21.640625 10.058594 22.214844 10.636719 C 22.792969 11.210938 23.0625 12.132812 23.0625 13.367188 L 23.0625 15.632812 C 23.0625 16.519531 22.832031 17.210938 22.332031 17.75 C 21.832031 18.289062 21.140625 18.597656 20.253906 18.75 C 21.179688 18.902344 21.910156 19.289062 22.40625 19.902344 C 22.90625 20.519531 23.175781 21.328125 23.175781 22.328125 L 23.175781 24.671875 C 23.175781 25.902344 22.792969 26.828125 21.984375 27.402344 C 21.179688 27.980469 19.988281 28.289062 18.371094 28.289062 Z M 17.835938 12.789062 L 9.1875 12.789062 L 9.1875 17.210938 L 17.835938 17.210938 C 18.488281 17.210938 18.949219 17.097656 19.21875 16.902344 C 19.488281 16.710938 19.601562 16.367188 19.601562 15.867188 L 19.601562 14.097656 C 19.601562 13.632812 19.488281 13.289062 19.21875 13.058594 C 18.949219 12.867188 18.527344 12.75 17.835938 12.75 Z M 17.835938 20.25 L 9.1875 20.25 L 9.1875 24.941406 L 17.835938 24.941406 C 18.5625 24.941406 19.027344 24.828125 19.292969 24.558594 C 19.5625 24.328125 19.679688 23.863281 19.679688 23.25 L 19.679688 21.867188 C 19.679688 21.25 19.5625 20.828125 19.292969 20.597656 C 19.027344 20.367188 18.5625 20.25 17.835938 20.25 Z M 17.835938 20.25 "/>
<path style=" stroke:none;fill-rule:nonzero;fill:rgb(0%,0%,0%);fill-opacity:1;" d="M 25.945312 9.789062 L 29.75 9.789062 L 29.75 28.289062 L 25.945312 28.289062 Z M 25.945312 9.789062 "/>
<path style=" stroke:none;fill-rule:nonzero;fill:rgb(0%,0%,0%);fill-opacity:1;" d="M 34.128906 28.289062 L 34.128906 9.789062 L 37.9375 9.789062 L 37.9375 24.789062 L 50.160156 24.789062 L 50.160156 28.289062 Z M 34.128906 28.289062 "/>
<path style=" stroke:none;fill-rule:nonzero;fill:rgb(0%,0%,0%);fill-opacity:1;" d="M 146.210938 28.289062 L 146.210938 19.980469 L 137.753906 9.789062 L 142.789062 9.789062 L 148.398438 16.867188 L 154.011719 9.789062 L 158.46875 9.789062 L 150.015625 19.902344 L 150.015625 28.289062 Z M 146.210938 28.289062 "/>
<path style=" stroke:none;fill-rule:nonzero;fill:rgb(98.039216%,70.588235%,8.627451%);fill-opacity:1;" d="M 73.949219 28.289062 L 76.910156 28.289062 C 77.871094 28.289062 78.792969 27.828125 79.371094 27.097656 L 81.945312 23.75 L 79.675781 21.328125 L 73.988281 28.328125 Z M 73.949219 28.289062 "/>
<path style=" stroke:none;fill-rule:nonzero;fill:rgb(98.039216%,70.588235%,8.627451%);fill-opacity:1;" d="M 93.359375 9.789062 L 90.476562 9.789062 C 89.515625 9.789062 88.632812 10.210938 88.054688 10.980469 L 86.058594 13.480469 L 88.285156 15.828125 L 93.359375 9.75 Z M 93.359375 9.789062 "/>
<path style=" stroke:none;fill-rule:nonzero;fill:rgb(0%,0%,0%);fill-opacity:1;" d="M 136.484375 28.289062 L 135.640625 26.097656 L 133.757812 21.289062 L 133.757812 21.171875 C 134.449219 21.058594 134.984375 20.789062 135.410156 20.402344 C 135.984375 19.828125 136.292969 18.902344 136.292969 17.671875 L 136.292969 13.328125 C 136.292969 12.058594 135.984375 11.136719 135.410156 10.597656 C 134.832031 10.019531 133.871094 9.75 132.601562 9.75 L 118.652344 9.75 L 118.652344 28.25 L 122.378906 28.25 L 122.378906 21.25 L 129.835938 21.25 L 132.488281 28.171875 L 132.488281 28.25 C 132.488281 28.25 136.523438 28.25 136.523438 28.25 Z M 122.378906 18.132812 L 122.378906 12.980469 L 130.910156 12.980469 C 131.566406 12.980469 132.027344 13.097656 132.257812 13.289062 C 132.488281 13.519531 132.601562 13.867188 132.601562 14.402344 L 132.601562 16.632812 C 132.601562 17.171875 132.488281 17.558594 132.257812 17.789062 C 132.027344 18.019531 131.566406 18.097656 130.910156 18.097656 L 122.378906 18.097656 Z M 122.378906 18.132812 "/>
<path style=" stroke:none;fill-rule:nonzero;fill:rgb(0%,0%,0%);fill-opacity:1;" d="M 67.339844 9.789062 L 67.339844 23.941406 C 67.339844 24.441406 66.953125 24.828125 66.457031 24.828125 L 57.421875 24.828125 C 56.921875 24.828125 56.539062 24.441406 56.539062 23.941406 L 56.539062 9.789062 L 52.734375 9.789062 L 52.734375 23.902344 C 52.734375 25.597656 53.003906 26.75 53.578125 27.363281 C 54.15625 27.980469 55.195312 28.289062 56.769531 28.289062 L 67.070312 28.289062 C 68.644531 28.289062 69.722656 27.980469 70.261719 27.363281 C 70.796875 26.75 71.105469 25.597656 71.105469 23.902344 L 71.105469 9.789062 Z M 67.339844 9.789062 "/>
<path style=" stroke:none;fill-rule:nonzero;fill:rgb(0%,0%,0%);fill-opacity:1;" d="M 111.308594 9.789062 L 111.308594 23.941406 C 111.308594 24.441406 110.925781 24.828125 110.425781 24.828125 L 101.394531 24.828125 C 100.894531 24.828125 100.507812 24.441406 100.507812 23.941406 L 100.507812 9.789062 L 96.703125 9.789062 L 96.703125 23.902344 C 96.703125 25.597656 96.972656 26.75 97.550781 27.363281 C 98.125 27.980469 99.164062 28.289062 100.738281 28.289062 L 111.039062 28.289062 C 112.617188 28.289062 113.691406 27.980469 114.230469 27.363281 C 114.769531 26.75 115.078125 25.597656 115.078125 23.902344 L 115.078125 9.789062 Z M 111.308594 9.789062 "/>
<path style=" stroke:none;fill-rule:nonzero;fill:rgb(0%,0%,0%);fill-opacity:1;" d="M 79.753906 10.902344 C 79.175781 10.210938 78.292969 9.789062 77.371094 9.789062 L 73.796875 9.789062 L 88.824219 27.019531 L 88.941406 27.171875 C 88.941406 27.171875 89.015625 27.25 89.054688 27.289062 L 89.09375 27.289062 C 89.09375 27.289062 89.09375 27.328125 89.09375 27.328125 C 89.671875 27.941406 90.476562 28.289062 91.324219 28.289062 L 95.011719 28.289062 L 79.714844 10.902344 Z M 79.753906 10.902344 "/>
</g>
</svg>
