<svg width="51" height="40" viewBox="0 0 51 40" fill="none" xmlns="http://www.w3.org/2000/svg">
<g clip-path="url(#clip0_2987_47498)">
<path d="M9.72601 14.957C6.41294 14.957 4.27513 12.7868 4.27513 9.51798C4.27513 6.24919 6.41294 4.079 9.72601 4.079C13.3123 4.079 15.234 7.58458 15.234 7.58458C15.9366 6.49466 16.7524 5.61067 18.1054 4.76188C18.1054 4.76188 15.8076 0 9.72601 0C4.08803 0 0 4.13156 0 9.51798C0 14.9044 4.08803 19.036 9.72601 19.036C11.9273 19.036 13.9509 18.3526 15.5417 17.1759C14.655 15.8979 14.1287 14.3797 14.0189 12.7684C13.2055 14.1434 11.596 14.957 9.72601 14.957Z" fill="#1A1A1A"/>
<path d="M40.1984 5.33423V9.77974C38.5416 9.51836 36.1906 10.1718 36.1906 12.7606V18.6703H32.1824V5.5961H36.1906V7.92351C36.7249 6.17144 38.5156 5.33471 40.1984 5.33471V5.33423Z" fill="#1A1A1A"/>
<path d="M14.9419 21.3643V39.6686H11.7352L4.52073 29.732V39.6686H0.246094V21.3643H3.45281L10.6673 31.3008V21.3643H14.9424H14.9419Z" fill="#1A1A1A"/>
<path fill-rule="evenodd" clip-rule="evenodd" d="M16.3467 33.097C16.3467 29.2008 19.4997 26.1934 23.4277 26.1934C27.3558 26.1934 30.5083 29.2003 30.5083 33.097C30.5083 36.9937 27.3558 40.0006 23.4277 40.0006C19.4997 40.0006 16.3467 36.9937 16.3467 33.097ZM24.4877 28.9875L24.4747 29.2432C24.4832 29.2731 24.4877 29.3046 24.4877 29.3372V31.334L26.253 30.3357C26.282 30.3192 26.3125 30.3073 26.3435 30.2995L26.5626 30.1609L27.6187 31.953L27.3857 32.07C27.3635 32.0921 27.338 32.1116 27.3093 32.1278L25.5441 33.1261L27.3092 34.1243C27.3373 34.1401 27.3623 34.1592 27.3842 34.1807L27.6188 34.2985L26.5627 36.0906L26.3453 35.953C26.3136 35.9453 26.2825 35.9332 26.2528 35.9164L24.4877 34.9182V36.9145C24.4877 36.9471 24.4832 36.9786 24.4747 37.0085L24.4877 37.2642H22.375L22.3881 37.0085C22.3796 36.9786 22.375 36.9471 22.375 36.9145V34.9183L20.6098 35.9165C20.5811 35.9328 20.551 35.9447 20.5203 35.9524L20.3008 36.0913L20.1272 35.7968L20.1222 35.7885L19.4228 34.602C19.4205 34.5981 19.4183 34.5942 19.4162 34.5903L19.2447 34.2992L19.4764 34.1829C19.4987 34.1605 19.5245 34.1408 19.5535 34.1244L21.3187 33.1261L19.5534 32.1277C19.5238 32.111 19.4976 32.0908 19.475 32.0679L19.2448 31.9523L19.417 31.6601C19.4189 31.6568 19.4208 31.6534 19.4227 31.6501L20.1221 30.4636C20.1232 30.4616 20.1244 30.4597 20.1256 30.4578L20.3009 30.1602L20.5221 30.3002C20.5521 30.3079 20.5816 30.3197 20.6097 30.3356L22.375 31.3339V29.3372C22.375 29.3046 22.3796 29.2731 22.3881 29.2432L22.375 28.9875H24.4877Z" fill="#1A1A1A"/>
<path d="M50.8336 26.5938L46.5585 39.6684H42.8176L40.6802 32.6867L38.5424 39.6684H34.8015L30.5264 26.5938H34.8015L36.7256 33.6015L38.8098 26.5938H42.5507L44.6348 33.6015L46.559 26.5938H50.8341H50.8336Z" fill="#1A1A1A"/>
<path d="M29.9969 5.59601H25.9891V6.82482C25.8237 6.63867 25.6435 6.46602 25.4475 6.30832C25.3496 6.22971 25.2481 6.15496 25.1423 6.08358C25.0719 6.03632 24.9995 5.99099 24.9256 5.9471C24.8518 5.90322 24.776 5.86174 24.6987 5.82171C24.389 5.6616 24.0517 5.53139 23.6849 5.43397C23.5569 5.40021 23.4249 5.37031 23.2895 5.34475C23.225 5.3327 23.1601 5.32112 23.0936 5.31051C22.7529 5.25698 22.391 5.22949 22.007 5.22949C18.5068 5.22949 15.6211 8.23641 15.6211 12.1331C15.6211 12.1977 15.6221 12.2619 15.6236 12.3255C15.6236 12.3439 15.625 12.3617 15.6255 12.38C15.627 12.4258 15.6285 12.4721 15.6309 12.518C15.6319 12.5382 15.6334 12.5585 15.6344 12.5792C15.6368 12.6231 15.6398 12.6665 15.6428 12.7099C15.6442 12.7297 15.6462 12.7494 15.6477 12.7697C15.6511 12.8141 15.6551 12.858 15.6595 12.9018C15.6615 12.9202 15.6634 12.9385 15.6654 12.9563C15.6703 13.0026 15.6757 13.0485 15.6812 13.0943C15.6831 13.1102 15.6851 13.1256 15.6871 13.1415C15.6935 13.1907 15.7004 13.2394 15.7077 13.2881C15.7097 13.3002 15.7112 13.3127 15.7132 13.3248C15.7215 13.3783 15.7304 13.4314 15.7402 13.4844C15.7417 13.4917 15.7427 13.4994 15.7442 13.5066C15.918 14.4576 16.2685 15.331 16.7565 16.0891C16.9372 16.3698 17.1366 16.6346 17.3527 16.8815C17.3527 16.8815 17.3537 16.8825 17.3537 16.8829C17.4832 17.031 17.6186 17.1723 17.7594 17.3068C17.7604 17.3078 17.7614 17.3088 17.7624 17.3097C17.8072 17.3527 17.8525 17.3946 17.8987 17.4361C17.9022 17.439 17.9051 17.4419 17.9086 17.4448C18.0514 17.5731 18.1996 17.6951 18.3527 17.8094C18.3556 17.8118 18.3586 17.8137 18.3615 17.8161C18.4078 17.8508 18.4551 17.8846 18.5024 17.9179C18.5093 17.9227 18.5162 17.9275 18.5235 17.9323C18.5703 17.9647 18.6171 17.9965 18.6643 18.0278C18.6688 18.0307 18.6732 18.0336 18.6776 18.037C18.783 18.106 18.8903 18.1715 18.9996 18.2342C19.0051 18.2376 19.011 18.2405 19.0164 18.2439C19.0632 18.2704 19.1104 18.2965 19.1582 18.322C19.1695 18.3278 19.1808 18.3341 19.1922 18.3399C19.2365 18.363 19.2808 18.3857 19.3256 18.4079C19.3359 18.4132 19.3468 18.4185 19.3571 18.4238C19.4679 18.4778 19.5796 18.5284 19.6939 18.5757C19.7022 18.5791 19.7106 18.5824 19.719 18.5858C19.7662 18.6051 19.8135 18.6239 19.8613 18.6422C19.8765 18.648 19.8918 18.6538 19.9071 18.6591C19.9494 18.675 19.9917 18.69 20.0346 18.7049C20.0503 18.7102 20.0661 18.716 20.0818 18.7213C20.1296 18.7372 20.1774 18.7527 20.2256 18.7676C20.2355 18.7705 20.2448 18.7739 20.2542 18.7768C20.3128 18.7946 20.3713 18.8115 20.4304 18.8274C20.4403 18.8303 20.4501 18.8323 20.46 18.8351C20.5082 18.8482 20.5565 18.8602 20.6052 18.8718C20.6234 18.8761 20.6417 18.8805 20.6604 18.8843C20.7017 18.894 20.7431 18.9027 20.7844 18.9113C20.8041 18.9152 20.8233 18.9195 20.843 18.9234C20.8868 18.9321 20.9307 18.9398 20.9745 18.9475C20.9907 18.9504 21.007 18.9533 21.0227 18.9562C21.0828 18.9658 21.1429 18.975 21.2029 18.9832C21.2113 18.9842 21.2197 18.9851 21.2285 18.9861C21.2802 18.9928 21.3319 18.9986 21.3841 19.0044C21.4043 19.0063 21.424 19.0083 21.4442 19.0102C21.4856 19.0141 21.5274 19.0174 21.5688 19.0203C21.5904 19.0218 21.6126 19.0232 21.6342 19.0247C21.6766 19.0271 21.7189 19.0295 21.7618 19.0309C21.7815 19.0319 21.8007 19.0329 21.8204 19.0334C21.8814 19.0353 21.9425 19.0363 22.004 19.0363C22.0045 19.0363 22.005 19.0363 22.006 19.0363C23.5082 19.0363 24.6711 18.6128 25.5278 17.8899C25.6588 17.7795 25.7823 17.6623 25.899 17.5383C25.9035 17.5335 25.9084 17.5287 25.9128 17.5234C25.9379 17.4964 25.963 17.4689 25.9877 17.4414V18.6702H29.9954V5.59601H29.9969ZM25.0906 14.4639C24.5263 15.0161 23.7312 15.3238 22.809 15.3238C22.2329 15.3238 21.7061 15.2037 21.2546 14.979C21.2093 14.9563 21.165 14.9331 21.1212 14.9085C20.8356 14.748 20.584 14.5425 20.3718 14.2975C20.332 14.2517 20.2936 14.2044 20.2566 14.1557C20.1754 14.0487 20.1015 13.9349 20.0351 13.8148C19.9898 13.7333 19.9479 13.6489 19.9095 13.5611C19.8795 13.4921 19.8519 13.4217 19.8263 13.3494C19.6983 12.9853 19.6289 12.5787 19.6289 12.1336C19.6289 10.1722 20.9646 8.94341 22.8085 8.94341C24.6524 8.94341 25.9882 10.1722 25.9882 12.1336C25.9882 12.8309 25.8183 13.4352 25.5179 13.9252C25.4224 14.081 25.3141 14.2261 25.193 14.3578C25.1595 14.3945 25.1251 14.4297 25.0901 14.4644L25.0906 14.4639Z" fill="#1A1A1A"/>
</g>
<defs>
<clipPath id="clip0_2987_47498">
<rect width="50.8333" height="40" fill="white"/>
</clipPath>
</defs>
</svg>
