<?xml version="1.0" encoding="UTF-8"?> <svg xmlns="http://www.w3.org/2000/svg" width="250" height="51" viewBox="0 0 250 51" fill="none"><path d="M48.7989 13.6221C46.9919 12.7324 45.6654 13.7115 46.2479 15.4973C46.4879 16.1419 46.8637 16.7272 47.3497 17.2135C47.8358 17.6997 48.4206 18.0756 49.0646 18.3154C50.8461 18.8965 51.8282 17.5704 50.9354 15.7612C50.463 14.8492 49.7204 14.1058 48.8095 13.6328L48.7989 13.6221Z" fill="url(#paint0_linear_75_320)"></path><path d="M31.3414 18.2771C32.1003 21.1334 33.6012 21.7103 36.1607 20.5651L36.3117 20.5034C37.2888 20.0451 38.3162 19.7029 39.3729 19.4839C39.5464 19.4489 39.7263 19.4644 39.8913 19.5285C40.0563 19.5926 40.1995 19.7027 40.304 19.8457C40.3113 19.8561 40.3191 19.866 40.3274 19.8755C40.911 20.7329 41.5767 21.5313 42.3151 22.2594C47.1216 27.1102 53.1718 27.555 55.2083 24.1878C56.2245 22.3169 54.0497 20.9483 53.1016 21.8678C51.1373 23.6046 47.466 22.3658 44.8257 19.7393C44.1637 19.0727 43.5841 18.3288 43.0995 17.5236C41.7602 15.1823 39.7959 15.7208 38.5204 16.006C37.5017 16.2232 36.5054 16.5346 35.5442 16.9361V16.9361C35.0957 17.1319 34.8682 16.8914 34.7662 16.47C33.1633 9.25026 38.7819 5.38285 46.182 8.70324C35.9077 3.75245 29.1242 9.57804 31.3414 18.2771Z" fill="url(#paint1_linear_75_320)"></path><path d="M38.2866 23.4131C36.6454 21.8231 33.8223 23.7877 35.5804 26.2077C37.7487 28.5107 40.5315 25.9374 38.6331 23.8281V23.8153C38.5098 23.6919 38.3971 23.5557 38.2866 23.4131Z" fill="url(#paint2_linear_75_320)"></path><path d="M38.3886 12.1918C37.9422 14.5182 41.4817 14.4374 42.0642 12.6346C42.0642 12.6048 42.0812 12.575 42.0918 12.5452C42.1025 12.5154 42.0918 12.5452 42.0918 12.5452C42.2143 12.1739 42.4038 11.8283 42.6509 11.5256C44.4026 9.39717 48.4226 10.438 51.2755 13.288C52.8869 14.9056 53.9201 16.9064 54.1284 18.6389C54.139 18.6538 54.1624 19.088 54.1624 19.1093C54.4175 20.4524 55.9375 21.2697 55.8121 20.1736C55.4018 17.3789 53.7649 14.7651 51.773 12.7814C49.7619 10.753 47.213 9.20348 44.5685 8.76289C41.0948 8.18182 38.9881 9.73134 38.3886 12.1918Z" fill="url(#paint3_linear_75_320)"></path><path d="M47.6701 29.7154C46.0556 29.2852 44.5179 28.6058 43.1122 27.7019V27.7019L43.0357 27.6508L42.8975 27.5635C40.8695 26.4121 38.2653 29.1173 40.6037 30.6498C40.7207 30.7286 40.8376 30.8052 40.9588 30.8797C52.3193 37.9653 61.7538 30.6668 55.8397 18.3729C59.2262 25.931 55.1509 31.631 47.6701 29.7154Z" fill="url(#paint4_linear_75_320)"></path><path d="M23.4673 25.8969C22.8486 24.5475 20.8971 25.3244 21.148 26.8313C21.182 26.9441 21.2181 27.0591 21.2564 27.1719C21.9154 28.7406 24.139 27.9168 23.5672 26.1715C23.5663 26.1666 23.5663 26.1615 23.5672 26.1566L23.4673 25.8969Z" fill="url(#paint5_linear_75_320)"></path><path d="M21.7538 33.2422C22.3198 33.1647 22.8806 33.0531 23.4332 32.9081V32.9081C23.5906 32.8775 23.7536 32.8955 23.9005 32.9597C24.0474 33.024 24.1714 33.1314 24.2559 33.2678C25.1948 34.6544 26.2571 35.9531 27.4298 37.148C28.2071 37.9112 29.0276 38.629 29.8873 39.2977C31.6624 40.6663 33.4715 38.5123 31.5774 37.1543C30.8045 36.5494 30.065 35.9028 29.3622 35.2175C28.2366 34.063 27.2164 32.81 26.3138 31.4735V31.4735C26.3142 31.4685 26.3142 31.4636 26.3138 31.4586C26.25 31.3671 26.1905 31.2734 26.1288 31.1819C25.2381 29.9602 24.0391 30.0474 22.5872 30.4199C22.2173 30.5306 21.8261 30.6327 21.4286 30.72C21.1959 30.7613 20.9561 30.7202 20.7505 30.6037C20.5449 30.4871 20.3862 30.3025 20.3019 30.0815C18.7479 25.931 18.5502 21.623 20.1424 18.045C19.2849 19.8334 18.7159 21.7465 18.4566 23.7131C18.3174 24.8932 18.3174 26.0855 18.4566 27.2655C18.5034 27.9041 18.565 28.4915 18.6352 29.03C18.7609 29.9662 18.9585 30.8912 19.2262 31.797C19.747 33.3891 21.1586 33.2869 21.7581 33.2273L21.7538 33.2422Z" fill="url(#paint6_linear_75_320)"></path><path d="M25.8546 38.738C25.0127 37.8802 24.2313 36.9649 23.5162 35.9986V35.9986C22.5319 34.5257 20.7525 35.59 21.4264 36.7521L21.656 37.1331C23.1821 39.4359 25.1533 41.4094 27.4532 42.9374C28.9732 43.859 29.0008 43.8782 29.8427 44.2741C31.6435 45.1225 33.561 45.6964 35.5315 45.9769C36.0672 46.045 36.6645 46.1067 37.2938 46.1535C38.4717 46.293 39.6618 46.293 40.8397 46.1535V46.1535C42.8049 45.8952 44.7166 45.3255 46.503 44.4657C40.2764 47.2369 31.8176 44.5785 25.8546 38.738Z" fill="url(#paint7_linear_75_320)"></path><path d="M22.466 21.9231C21.8495 17.5768 22.8912 13.5115 26.0459 10.8552C23.3121 12.9836 21.5094 14.9312 20.7185 18.4154C20.4036 19.8283 20.2933 21.2792 20.3912 22.7235C20.5974 24.3836 22.7232 23.3237 22.466 21.9231Z" fill="url(#paint8_linear_75_320)"></path><path d="M38.3673 41.009C38.8438 40.161 39.2649 39.283 39.628 38.3804C40.0744 37.2736 41.0948 35.3346 38.6012 33.8446C37.0149 32.8501 35.5427 31.6838 34.2113 30.3667C32.833 28.967 31.6203 27.4129 30.5974 25.7352C29.401 23.8054 28.5332 21.69 28.0293 19.4754V19.4754C27.5425 17.4193 24.764 18.4112 24.9724 20.4971C25.6973 24.8413 28.1739 29.3238 31.6815 32.9103C33.0151 34.2186 34.4789 35.3869 36.0502 36.3967V36.3967C36.4923 36.6819 36.503 36.7777 36.3754 37.1203C36.029 37.951 35.6152 38.7519 35.1382 39.5149V39.5149C34.6173 40.3386 34.0306 41.9285 36.0417 42.8502C39.3559 44.1634 42.8444 44.6253 46.1692 43.8697C49.6471 43.08 51.5923 41.273 53.7181 38.5358C50.1892 42.7161 44.2177 43.2077 38.3673 41.009Z" fill="url(#paint9_linear_75_320)"></path><path d="M51.0863 36.5754H51.065L50.8397 36.6286C48.9775 37.1608 48.7564 39.6936 50.8737 39.1296C55.1594 37.5907 56.8792 33.9149 57.5128 29.3514C56.926 33.2721 54.4643 35.724 51.0863 36.5754Z" fill="url(#paint10_linear_75_320)"></path><path d="M27.8486 14.2202C28.5119 10.4571 31.0268 7.66671 35.219 7.03882C30.4953 7.69438 26.7241 9.51847 25.2976 14.1585C24.8278 15.94 27.5744 15.7506 27.8486 14.2202Z" fill="url(#paint11_linear_75_320)"></path><path d="M45.4315 36.6308H45.4103C43.2377 36.3498 41.977 39.2211 44.2581 39.6553H44.3048C46.5838 39.8681 47.8146 37.2054 45.7717 36.6904L45.4315 36.6308Z" fill="url(#paint12_linear_75_320)"></path><path d="M3.10162 25.2456C3.10162 13.0858 19.8958 3.22887 40.6122 3.22887C53.5055 3.22887 64.8809 7.04733 71.6327 12.8644C65.7122 5.27432 52.6616 0 37.5085 0C16.7942 0 0 9.85689 0 22.0168C0 26.6057 2.39371 30.8627 6.4881 34.398C4.31548 31.6097 3.10162 28.5213 3.10162 25.2456Z" fill="url(#paint13_linear_75_320)"></path><path d="M72.8061 28.4298L78.9711 15.1184H84.2092L73.5778 37.9738H72.0323L61.3924 15.1121H66.6284L72.8061 28.4298Z" fill="url(#paint14_linear_75_320)"></path><path d="M86.605 37.9738V15.1121H91.3712V37.9738H86.605Z" fill="url(#paint15_linear_75_320)"></path><path d="M100.638 24.1942H109.432V28.4958H100.638V33.6722H110.776V37.9738H95.8758V15.1121H110.78V19.4541H100.638V24.1942Z" fill="url(#paint16_linear_75_320)"></path><path d="M123.869 37.9738H119.103V19.4222H112.859V15.1121H130.113V19.4222H123.869V37.9738Z" fill="url(#paint17_linear_75_320)"></path><path d="M141.73 37.9738H136.964V19.4222H130.719V15.1121H147.974V19.4222H141.73V37.9738Z" fill="url(#paint18_linear_75_320)"></path><path d="M150.527 37.9738V15.1121H155.293V37.9738H150.527Z" fill="url(#paint19_linear_75_320)"></path><path d="M175.536 28.5639V15.1121H180.304V37.9738H178.255L164.56 24.8668V37.9738H159.792V15.1121H161.673L175.536 28.5639Z" fill="url(#paint20_linear_75_320)"></path><path d="M194.977 37.9738H184.804V15.1121H194.473C198.635 15.1121 201.152 17.5002 201.152 21.4655C201.152 23.1449 200.514 24.5241 199.105 25.4649C201.252 26.4057 202.394 28.3553 202.394 30.8435C202.394 35.0174 199.641 37.9738 194.977 37.9738ZM189.571 23.8238H193.878C195.387 23.8238 196.395 23.0512 196.395 21.64C196.395 20.2289 195.378 19.4541 193.878 19.4541H189.571V23.8238ZM194.539 28.1595H189.571V33.6297H194.439C196.252 33.6297 197.628 32.857 197.628 30.8414C197.628 28.8662 196.286 28.1595 194.539 28.1595V28.1595Z" fill="url(#paint21_linear_75_320)"></path><path d="M223.512 22.4127C223.512 26.9165 220.111 29.7069 215.825 29.7069H210.723V37.9738H205.955V15.1121H215.986C220.121 15.1121 223.512 17.9429 223.512 22.4127ZM218.746 22.4127C218.746 20.5971 217.134 19.4541 215.389 19.4541H210.712V25.3712H215.389C217.134 25.3712 218.75 24.2283 218.75 22.4127H218.746Z" fill="url(#paint22_linear_75_320)"></path><path d="M237.883 38.5124C231.201 38.5124 225.765 33.1678 225.765 26.5462C225.765 19.9245 231.203 14.5821 237.883 14.5821C244.562 14.5821 250 19.9267 250 26.5462C250 33.1657 244.562 38.5124 237.883 38.5124ZM237.883 18.9178C233.82 18.9178 230.529 22.3233 230.529 26.5462C230.529 30.769 233.82 34.1767 237.883 34.1767C241.945 34.1767 245.234 30.7818 245.234 26.5462C245.234 22.3105 241.943 18.9178 237.883 18.9178Z" fill="url(#paint23_linear_75_320)"></path><path d="M107.232 49.4186H103.78C101.837 49.4186 100.378 47.9734 100.378 46.1854C100.379 45.3155 100.724 44.4814 101.339 43.8665C101.953 43.2516 102.787 42.9063 103.655 42.9066C104.524 42.9068 105.357 43.2527 105.972 43.868C106.586 44.4833 106.931 45.3177 106.93 46.1876C106.929 46.6584 106.82 47.1227 106.61 47.5443C106.401 47.9659 106.097 48.3334 105.723 48.6183H107.239L107.232 49.4186ZM103.661 43.8292C103.194 43.8187 102.735 43.9474 102.342 44.1991C101.949 44.4507 101.64 44.8138 101.454 45.2422C101.267 45.6705 101.213 46.1447 101.297 46.6042C101.381 47.0637 101.6 47.4877 101.925 47.8222C102.251 48.1568 102.669 48.3866 103.126 48.4825C103.582 48.5783 104.057 48.5359 104.489 48.3605C104.922 48.1852 105.292 47.8848 105.554 47.4978C105.815 47.1109 105.955 46.6547 105.957 46.1876C105.961 45.571 105.723 44.9775 105.293 44.5359C104.863 44.0944 104.276 43.8404 103.661 43.8292V43.8292Z" fill="url(#paint24_linear_75_320)"></path><path d="M109.383 44.6678H110.312V47.222C110.312 48.0883 110.789 48.7119 111.616 48.7119C112.443 48.7119 112.919 48.0883 112.919 47.222V44.6678H113.848V47.3774C113.848 48.6161 112.974 49.5569 111.616 49.5569C110.257 49.5569 109.383 48.6161 109.383 47.3774V44.6678Z" fill="url(#paint25_linear_75_320)"></path><path d="M121.386 49.4186H120.495V48.6821C120.168 49.2589 119.471 49.5569 118.795 49.5569C118.301 49.5414 117.823 49.3806 117.42 49.0944C117.017 48.8083 116.707 48.4095 116.529 47.9481C116.351 47.4866 116.313 46.9829 116.42 46.4999C116.526 46.0169 116.773 45.576 117.128 45.2325C117.483 44.8889 117.932 44.6578 118.418 44.5682C118.904 44.4785 119.405 44.5342 119.86 44.7284C120.314 44.9225 120.701 45.2464 120.973 45.6597C121.244 46.0729 121.388 46.5571 121.386 47.0517V49.4186ZM117.134 47.039C117.133 47.3727 117.23 47.6995 117.414 47.9778C117.598 48.2562 117.86 48.4735 118.168 48.6024C118.475 48.7313 118.814 48.7659 119.141 48.7019C119.468 48.6378 119.769 48.4779 120.006 48.2425C120.242 48.0071 120.403 47.7067 120.469 47.3795C120.534 47.0523 120.502 46.7129 120.374 46.4044C120.247 46.0958 120.031 45.8321 119.754 45.6464C119.477 45.4608 119.151 45.3617 118.818 45.3617C118.373 45.3623 117.946 45.5389 117.631 45.8531C117.316 46.1673 117.137 46.5935 117.134 47.039V47.039Z" fill="url(#paint26_linear_75_320)"></path><path d="M123.99 49.4186V43.0843H124.921V49.4186H123.99Z" fill="url(#paint27_linear_75_320)"></path><path d="M128.131 42.8969C128.247 42.8957 128.36 42.9289 128.457 42.9924C128.554 43.0559 128.63 43.1468 128.674 43.2535C128.719 43.3602 128.732 43.4779 128.709 43.5915C128.687 43.7052 128.632 43.8097 128.55 43.8917C128.469 43.9738 128.365 44.0296 128.251 44.0522C128.138 44.0747 128.02 44.0629 127.913 44.0183C127.807 43.9737 127.716 43.8983 127.652 43.8017C127.588 43.7051 127.554 43.5917 127.555 43.4759C127.556 43.3231 127.617 43.1768 127.725 43.0685C127.833 42.9602 127.979 42.8986 128.131 42.8969V42.8969ZM128.597 44.6678V49.4185H127.666V44.6678H128.597Z" fill="url(#paint28_linear_75_320)"></path><path d="M132.243 47.3774C132.243 48.2905 132.7 48.7183 133.612 48.7183V49.5569H133.463C132.011 49.5569 131.314 48.7481 131.314 47.5732V43.0843H132.243V44.6679H133.612V45.4958H132.243V47.3774Z" fill="url(#paint29_linear_75_320)"></path><path d="M136.431 44.6678L137.836 48.0478L139.243 44.6678H140.257L137.604 51H136.582L137.351 49.1674L135.417 44.6678H136.431Z" fill="url(#paint30_linear_75_320)"></path><path d="M146.471 43.0843H149.133C150.23 43.0843 150.899 43.7228 150.899 44.7871C150.9 45.0192 150.845 45.2481 150.739 45.4543C150.632 45.6604 150.477 45.8375 150.287 45.9705C150.581 46.1074 150.831 46.3259 151.005 46.6001C151.179 46.8743 151.272 47.1928 151.271 47.5179C151.271 48.68 150.463 49.4335 149.207 49.4335H146.471V43.0843ZM149.022 43.9697H147.432V45.598H149.022C149.579 45.598 149.923 45.2915 149.923 44.7892C149.923 44.2869 149.577 43.9697 149.022 43.9697V43.9697ZM147.43 48.5289H149.075C149.83 48.5289 150.293 48.1564 150.293 47.5051C150.293 46.8538 149.783 46.4792 149.086 46.4792H147.43V48.5289Z" fill="url(#paint31_linear_75_320)"></path><path d="M153.588 44.6678H154.52V47.222C154.52 48.0883 154.994 48.7119 155.821 48.7119C156.648 48.7119 157.124 48.0883 157.124 47.222V44.6678H158.055V47.3774C158.055 48.6161 157.179 49.5569 155.821 49.5569C154.462 49.5569 153.588 48.6161 153.588 47.3774V44.6678Z" fill="url(#paint32_linear_75_320)"></path><path d="M161.199 42.8969C161.315 42.8957 161.428 42.9289 161.525 42.9924C161.621 43.0559 161.697 43.1468 161.742 43.2535C161.787 43.3602 161.799 43.4779 161.777 43.5915C161.755 43.7052 161.7 43.8097 161.618 43.8917C161.536 43.9738 161.432 44.0296 161.319 44.0522C161.205 44.0747 161.088 44.0629 160.981 44.0183C160.874 43.9737 160.783 43.8983 160.719 43.8017C160.656 43.7051 160.622 43.5917 160.623 43.4759C160.624 43.3231 160.685 43.1768 160.793 43.0685C160.9 42.9602 161.046 42.8986 161.199 42.8969V42.8969ZM161.665 44.6678V49.4185H160.736V44.6678H161.665Z" fill="url(#paint33_linear_75_320)"></path><path d="M164.42 49.4186V43.0843H165.351V49.4186H164.42Z" fill="url(#paint34_linear_75_320)"></path><path d="M172.03 43.0843H172.959V49.4186H172.066V48.6821C171.76 49.2504 171.052 49.5569 170.366 49.5569C170.03 49.5667 169.695 49.5089 169.382 49.3869C169.069 49.265 168.783 49.0813 168.542 48.8468C168.301 48.6123 168.109 48.3318 167.978 48.0218C167.847 47.7118 167.78 47.3787 167.78 47.0422C167.78 46.7056 167.847 46.3725 167.978 46.0625C168.109 45.7525 168.301 45.472 168.542 45.2375C168.783 45.003 169.069 44.8194 169.382 44.6974C169.695 44.5754 170.03 44.5176 170.366 44.5274C170.681 44.5232 170.993 44.5877 171.281 44.7163C171.569 44.845 171.825 45.0347 172.032 45.2723L172.03 43.0843ZM170.383 45.366C170.052 45.3677 169.728 45.4676 169.454 45.6531C169.179 45.8386 168.966 46.1014 168.841 46.4082C168.715 46.7151 168.684 47.0523 168.75 47.3772C168.815 47.7021 168.976 48.0001 169.211 48.2337C169.446 48.4672 169.745 48.6258 170.07 48.6893C170.395 48.7529 170.732 48.7186 171.037 48.5907C171.343 48.4629 171.603 48.2472 171.787 47.971C171.97 47.6949 172.067 47.3705 172.066 47.039C172.064 46.5939 171.885 46.1681 171.569 45.8546C171.254 45.5411 170.827 45.3654 170.383 45.366Z" fill="url(#paint35_linear_75_320)"></path><path d="M176.348 48.001C176.376 48.2075 176.48 48.3958 176.641 48.5287C176.801 48.6616 177.005 48.7293 177.213 48.7183C177.715 48.7183 178.078 48.4203 178.078 48.0393C178.078 47.6583 177.817 47.4518 177.37 47.3497C176.307 47.1177 175.585 46.7111 175.585 45.9151C175.585 45.1191 176.222 44.5273 177.194 44.5273C178.165 44.5273 178.831 45.1148 178.861 45.9811H177.949C177.929 45.598 177.64 45.366 177.194 45.366C176.83 45.366 176.516 45.5618 176.516 45.8981C176.516 46.2876 177.045 46.4642 177.651 46.6047C178.423 46.792 179.007 47.2433 179.007 47.9925C179.007 48.8673 178.301 49.5569 177.213 49.5569C176.246 49.5569 175.483 48.9992 175.427 48.001H176.348Z" fill="url(#paint36_linear_75_320)"></path><path d="M187.802 49.4186H186.832V43.9697H185.019V43.0843H189.626V43.9697H187.812L187.802 49.4186Z" fill="url(#paint37_linear_75_320)"></path><path d="M193.635 44.5273V45.366C192.751 45.366 192.194 45.8598 192.194 46.9304V49.4185H191.263V46.6515C191.263 45.3553 192.147 44.5359 193.506 44.5359L193.635 44.5273Z" fill="url(#paint38_linear_75_320)"></path><path d="M195.842 44.6678H196.771V47.222C196.771 48.0883 197.245 48.7119 198.074 48.7119C198.903 48.7119 199.375 48.0883 199.375 47.222V44.6678H200.306V47.3774C200.306 48.6161 199.432 49.5569 198.074 49.5569C196.716 49.5569 195.842 48.6161 195.842 47.3774V44.6678Z" fill="url(#paint39_linear_75_320)"></path><path d="M203.629 48.001C203.657 48.2075 203.761 48.3958 203.922 48.5287C204.082 48.6616 204.286 48.7293 204.494 48.7183C204.996 48.7183 205.359 48.4203 205.359 48.0393C205.359 47.6583 205.098 47.4518 204.651 47.3497C203.588 47.1177 202.866 46.7111 202.866 45.9151C202.866 45.1191 203.503 44.5273 204.475 44.5273C205.446 44.5273 206.112 45.1148 206.139 45.9811H205.227C205.21 45.598 204.921 45.366 204.475 45.366C204.111 45.366 203.797 45.5618 203.797 45.8981C203.797 46.2876 204.326 46.4642 204.93 46.6047C205.704 46.792 206.288 47.2433 206.288 47.9925C206.288 48.8673 205.582 49.5569 204.494 49.5569C203.527 49.5569 202.764 48.9992 202.708 48.001H203.629Z" fill="url(#paint40_linear_75_320)"></path><path d="M209.639 47.3774C209.639 48.2905 210.096 48.7183 211.008 48.7183V49.5569H210.859C209.407 49.5569 208.71 48.7481 208.71 47.5732V43.0843H209.639V44.6679H211.008V45.4958H209.639V47.3774Z" fill="url(#paint41_linear_75_320)"></path><defs><linearGradient id="paint0_linear_75_320" x1="-15.8227" y1="15.8719" x2="106.966" y2="15.8719" gradientUnits="userSpaceOnUse"><stop stop-color="#08DEFF"></stop><stop offset="0.13" stop-color="#30A0FF"></stop><stop offset="0.27" stop-color="#5863FF"></stop><stop offset="0.34" stop-color="#684BFF"></stop><stop offset="0.67" stop-color="#FF7AFF"></stop><stop offset="1" stop-color="#F3D2B1"></stop></linearGradient><linearGradient id="paint1_linear_75_320" x1="-15.8227" y1="16.6254" x2="106.966" y2="16.6254" gradientUnits="userSpaceOnUse"><stop stop-color="#08DEFF"></stop><stop offset="0.13" stop-color="#30A0FF"></stop><stop offset="0.27" stop-color="#5863FF"></stop><stop offset="0.34" stop-color="#684BFF"></stop><stop offset="0.67" stop-color="#FF7AFF"></stop><stop offset="1" stop-color="#F3D2B1"></stop></linearGradient><linearGradient id="paint2_linear_75_320" x1="-15.8227" y1="24.9839" x2="106.966" y2="24.9839" gradientUnits="userSpaceOnUse"><stop stop-color="#08DEFF"></stop><stop offset="0.13" stop-color="#30A0FF"></stop><stop offset="0.27" stop-color="#5863FF"></stop><stop offset="0.34" stop-color="#684BFF"></stop><stop offset="0.67" stop-color="#FF7AFF"></stop><stop offset="1" stop-color="#F3D2B1"></stop></linearGradient><linearGradient id="paint3_linear_75_320" x1="-15.8227" y1="14.6566" x2="106.966" y2="14.6566" gradientUnits="userSpaceOnUse"><stop stop-color="#08DEFF"></stop><stop offset="0.13" stop-color="#30A0FF"></stop><stop offset="0.27" stop-color="#5863FF"></stop><stop offset="0.34" stop-color="#684BFF"></stop><stop offset="0.67" stop-color="#FF7AFF"></stop><stop offset="1" stop-color="#F3D2B1"></stop></linearGradient><linearGradient id="paint4_linear_75_320" x1="-15.8227" y1="26.0225" x2="106.966" y2="26.0225" gradientUnits="userSpaceOnUse"><stop stop-color="#08DEFF"></stop><stop offset="0.13" stop-color="#30A0FF"></stop><stop offset="0.27" stop-color="#5863FF"></stop><stop offset="0.34" stop-color="#684BFF"></stop><stop offset="0.67" stop-color="#FF7AFF"></stop><stop offset="1" stop-color="#F3D2B1"></stop></linearGradient><linearGradient id="paint5_linear_75_320" x1="-15.8227" y1="26.6036" x2="106.966" y2="26.6036" gradientUnits="userSpaceOnUse"><stop stop-color="#08DEFF"></stop><stop offset="0.13" stop-color="#30A0FF"></stop><stop offset="0.27" stop-color="#5863FF"></stop><stop offset="0.34" stop-color="#684BFF"></stop><stop offset="0.67" stop-color="#FF7AFF"></stop><stop offset="1" stop-color="#F3D2B1"></stop></linearGradient><linearGradient id="paint6_linear_75_320" x1="-15.8227" y1="28.8959" x2="106.966" y2="28.8959" gradientUnits="userSpaceOnUse"><stop stop-color="#08DEFF"></stop><stop offset="0.13" stop-color="#30A0FF"></stop><stop offset="0.27" stop-color="#5863FF"></stop><stop offset="0.34" stop-color="#684BFF"></stop><stop offset="0.67" stop-color="#FF7AFF"></stop><stop offset="1" stop-color="#F3D2B1"></stop></linearGradient><linearGradient id="paint7_linear_75_320" x1="-15.8227" y1="40.76" x2="106.966" y2="40.76" gradientUnits="userSpaceOnUse"><stop stop-color="#08DEFF"></stop><stop offset="0.13" stop-color="#30A0FF"></stop><stop offset="0.27" stop-color="#5863FF"></stop><stop offset="0.34" stop-color="#684BFF"></stop><stop offset="0.67" stop-color="#FF7AFF"></stop><stop offset="1" stop-color="#F3D2B1"></stop></linearGradient><linearGradient id="paint8_linear_75_320" x1="-15.8227" y1="17.198" x2="106.966" y2="17.198" gradientUnits="userSpaceOnUse"><stop stop-color="#08DEFF"></stop><stop offset="0.13" stop-color="#30A0FF"></stop><stop offset="0.27" stop-color="#5863FF"></stop><stop offset="0.34" stop-color="#684BFF"></stop><stop offset="0.67" stop-color="#FF7AFF"></stop><stop offset="1" stop-color="#F3D2B1"></stop></linearGradient><linearGradient id="paint9_linear_75_320" x1="-15.8227" y1="31.2884" x2="106.966" y2="31.2884" gradientUnits="userSpaceOnUse"><stop stop-color="#08DEFF"></stop><stop offset="0.13" stop-color="#30A0FF"></stop><stop offset="0.27" stop-color="#5863FF"></stop><stop offset="0.34" stop-color="#684BFF"></stop><stop offset="0.67" stop-color="#FF7AFF"></stop><stop offset="1" stop-color="#F3D2B1"></stop></linearGradient><linearGradient id="paint10_linear_75_320" x1="-15.8227" y1="34.2873" x2="106.966" y2="34.2873" gradientUnits="userSpaceOnUse"><stop stop-color="#08DEFF"></stop><stop offset="0.13" stop-color="#30A0FF"></stop><stop offset="0.27" stop-color="#5863FF"></stop><stop offset="0.34" stop-color="#684BFF"></stop><stop offset="0.67" stop-color="#FF7AFF"></stop><stop offset="1" stop-color="#F3D2B1"></stop></linearGradient><linearGradient id="paint11_linear_75_320" x1="-15.8227" y1="11.234" x2="106.966" y2="11.234" gradientUnits="userSpaceOnUse"><stop stop-color="#08DEFF"></stop><stop offset="0.13" stop-color="#30A0FF"></stop><stop offset="0.27" stop-color="#5863FF"></stop><stop offset="0.34" stop-color="#684BFF"></stop><stop offset="0.67" stop-color="#FF7AFF"></stop><stop offset="1" stop-color="#F3D2B1"></stop></linearGradient><linearGradient id="paint12_linear_75_320" x1="-15.8227" y1="38.1398" x2="106.966" y2="38.1398" gradientUnits="userSpaceOnUse"><stop stop-color="#08DEFF"></stop><stop offset="0.13" stop-color="#30A0FF"></stop><stop offset="0.27" stop-color="#5863FF"></stop><stop offset="0.34" stop-color="#684BFF"></stop><stop offset="0.67" stop-color="#FF7AFF"></stop><stop offset="1" stop-color="#F3D2B1"></stop></linearGradient><linearGradient id="paint13_linear_75_320" x1="-15.8227" y1="17.1979" x2="106.966" y2="17.1979" gradientUnits="userSpaceOnUse"><stop stop-color="#08DEFF"></stop><stop offset="0.13" stop-color="#30A0FF"></stop><stop offset="0.27" stop-color="#5863FF"></stop><stop offset="0.34" stop-color="#684BFF"></stop><stop offset="0.67" stop-color="#FF7AFF"></stop><stop offset="1" stop-color="#F3D2B1"></stop></linearGradient><linearGradient id="paint14_linear_75_320" x1="45.8376" y1="13.5945" x2="272.504" y2="104.292" gradientUnits="userSpaceOnUse"><stop stop-color="#08DEFF"></stop><stop offset="0.2" stop-color="#30A0FF"></stop><stop offset="0.41" stop-color="#5863FF"></stop><stop offset="0.51" stop-color="#684BFF"></stop><stop offset="0.97" stop-color="#FF7AFF"></stop></linearGradient><linearGradient id="paint15_linear_75_320" x1="47.3385" y1="9.83986" x2="274.007" y2="100.537" gradientUnits="userSpaceOnUse"><stop stop-color="#08DEFF"></stop><stop offset="0.2" stop-color="#30A0FF"></stop><stop offset="0.41" stop-color="#5863FF"></stop><stop offset="0.51" stop-color="#684BFF"></stop><stop offset="0.97" stop-color="#FF7AFF"></stop></linearGradient><linearGradient id="paint16_linear_75_320" x1="49.3219" y1="4.88694" x2="275.989" y2="95.5823" gradientUnits="userSpaceOnUse"><stop stop-color="#08DEFF"></stop><stop offset="0.2" stop-color="#30A0FF"></stop><stop offset="0.41" stop-color="#5863FF"></stop><stop offset="0.51" stop-color="#684BFF"></stop><stop offset="0.97" stop-color="#FF7AFF"></stop></linearGradient><linearGradient id="paint17_linear_75_320" x1="52.2662" y1="-2.47114" x2="278.933" y2="88.2263" gradientUnits="userSpaceOnUse"><stop stop-color="#08DEFF"></stop><stop offset="0.2" stop-color="#30A0FF"></stop><stop offset="0.41" stop-color="#5863FF"></stop><stop offset="0.51" stop-color="#684BFF"></stop><stop offset="0.97" stop-color="#FF7AFF"></stop></linearGradient><linearGradient id="paint18_linear_75_320" x1="54.7364" y1="-8.64366" x2="281.403" y2="82.0517" gradientUnits="userSpaceOnUse"><stop stop-color="#08DEFF"></stop><stop offset="0.2" stop-color="#30A0FF"></stop><stop offset="0.41" stop-color="#5863FF"></stop><stop offset="0.51" stop-color="#684BFF"></stop><stop offset="0.97" stop-color="#FF7AFF"></stop></linearGradient><linearGradient id="paint19_linear_75_320" x1="56.1799" y1="-12.2535" x2="282.847" y2="78.4439" gradientUnits="userSpaceOnUse"><stop stop-color="#08DEFF"></stop><stop offset="0.2" stop-color="#30A0FF"></stop><stop offset="0.41" stop-color="#5863FF"></stop><stop offset="0.51" stop-color="#684BFF"></stop><stop offset="0.97" stop-color="#FF7AFF"></stop></linearGradient><linearGradient id="paint20_linear_75_320" x1="58.5501" y1="-18.177" x2="285.217" y2="72.5206" gradientUnits="userSpaceOnUse"><stop stop-color="#08DEFF"></stop><stop offset="0.2" stop-color="#30A0FF"></stop><stop offset="0.41" stop-color="#5863FF"></stop><stop offset="0.51" stop-color="#684BFF"></stop><stop offset="0.97" stop-color="#FF7AFF"></stop></linearGradient><linearGradient id="paint21_linear_75_320" x1="61.3797" y1="-25.2478" x2="288.047" y2="65.4497" gradientUnits="userSpaceOnUse"><stop stop-color="#08DEFF"></stop><stop offset="0.2" stop-color="#30A0FF"></stop><stop offset="0.41" stop-color="#5863FF"></stop><stop offset="0.51" stop-color="#684BFF"></stop><stop offset="0.97" stop-color="#FF7AFF"></stop></linearGradient><linearGradient id="paint22_linear_75_320" x1="64.3239" y1="-32.608" x2="290.991" y2="58.0896" gradientUnits="userSpaceOnUse"><stop stop-color="#08DEFF"></stop><stop offset="0.2" stop-color="#30A0FF"></stop><stop offset="0.41" stop-color="#5863FF"></stop><stop offset="0.51" stop-color="#684BFF"></stop><stop offset="0.97" stop-color="#FF7AFF"></stop></linearGradient><linearGradient id="paint23_linear_75_320" x1="67.9315" y1="-41.622" x2="294.598" y2="49.0734" gradientUnits="userSpaceOnUse"><stop stop-color="#08DEFF"></stop><stop offset="0.2" stop-color="#30A0FF"></stop><stop offset="0.41" stop-color="#5863FF"></stop><stop offset="0.51" stop-color="#684BFF"></stop><stop offset="0.97" stop-color="#FF7AFF"></stop></linearGradient><linearGradient id="paint24_linear_75_320" x1="42.602" y1="21.6784" x2="269.271" y2="112.376" gradientUnits="userSpaceOnUse"><stop stop-color="#08DEFF"></stop><stop offset="0.2" stop-color="#30A0FF"></stop><stop offset="0.41" stop-color="#5863FF"></stop><stop offset="0.51" stop-color="#684BFF"></stop><stop offset="0.97" stop-color="#FF7AFF"></stop></linearGradient><linearGradient id="paint25_linear_75_320" x1="43.497" y1="19.4435" x2="270.166" y2="110.139" gradientUnits="userSpaceOnUse"><stop stop-color="#08DEFF"></stop><stop offset="0.2" stop-color="#30A0FF"></stop><stop offset="0.41" stop-color="#5863FF"></stop><stop offset="0.51" stop-color="#684BFF"></stop><stop offset="0.97" stop-color="#FF7AFF"></stop></linearGradient><linearGradient id="paint26_linear_75_320" x1="44.3963" y1="17.198" x2="271.063" y2="107.895" gradientUnits="userSpaceOnUse"><stop stop-color="#08DEFF"></stop><stop offset="0.2" stop-color="#30A0FF"></stop><stop offset="0.41" stop-color="#5863FF"></stop><stop offset="0.51" stop-color="#684BFF"></stop><stop offset="0.97" stop-color="#FF7AFF"></stop></linearGradient><linearGradient id="paint27_linear_75_320" x1="45.4506" y1="14.5608" x2="272.118" y2="105.259" gradientUnits="userSpaceOnUse"><stop stop-color="#08DEFF"></stop><stop offset="0.2" stop-color="#30A0FF"></stop><stop offset="0.41" stop-color="#5863FF"></stop><stop offset="0.51" stop-color="#684BFF"></stop><stop offset="0.97" stop-color="#FF7AFF"></stop></linearGradient><linearGradient id="paint28_linear_75_320" x1="45.9675" y1="13.2709" x2="272.634" y2="103.966" gradientUnits="userSpaceOnUse"><stop stop-color="#08DEFF"></stop><stop offset="0.2" stop-color="#30A0FF"></stop><stop offset="0.41" stop-color="#5863FF"></stop><stop offset="0.51" stop-color="#684BFF"></stop><stop offset="0.97" stop-color="#FF7AFF"></stop></linearGradient><linearGradient id="paint29_linear_75_320" x1="46.5476" y1="11.8215" x2="273.215" y2="102.517" gradientUnits="userSpaceOnUse"><stop stop-color="#08DEFF"></stop><stop offset="0.2" stop-color="#30A0FF"></stop><stop offset="0.41" stop-color="#5863FF"></stop><stop offset="0.51" stop-color="#684BFF"></stop><stop offset="0.97" stop-color="#FF7AFF"></stop></linearGradient><linearGradient id="paint30_linear_75_320" x1="46.8345" y1="11.0999" x2="273.504" y2="101.798" gradientUnits="userSpaceOnUse"><stop stop-color="#08DEFF"></stop><stop offset="0.2" stop-color="#30A0FF"></stop><stop offset="0.41" stop-color="#5863FF"></stop><stop offset="0.51" stop-color="#684BFF"></stop><stop offset="0.97" stop-color="#FF7AFF"></stop></linearGradient><linearGradient id="paint31_linear_75_320" x1="48.7095" y1="6.41733" x2="275.377" y2="97.1129" gradientUnits="userSpaceOnUse"><stop stop-color="#08DEFF"></stop><stop offset="0.2" stop-color="#30A0FF"></stop><stop offset="0.41" stop-color="#5863FF"></stop><stop offset="0.51" stop-color="#684BFF"></stop><stop offset="0.97" stop-color="#FF7AFF"></stop></linearGradient><linearGradient id="paint32_linear_75_320" x1="49.6109" y1="4.16327" x2="276.278" y2="94.8609" gradientUnits="userSpaceOnUse"><stop stop-color="#08DEFF"></stop><stop offset="0.2" stop-color="#30A0FF"></stop><stop offset="0.41" stop-color="#5863FF"></stop><stop offset="0.51" stop-color="#684BFF"></stop><stop offset="0.97" stop-color="#FF7AFF"></stop></linearGradient><linearGradient id="paint33_linear_75_320" x1="50.5403" y1="1.84111" x2="277.209" y2="92.5361" gradientUnits="userSpaceOnUse"><stop stop-color="#08DEFF"></stop><stop offset="0.2" stop-color="#30A0FF"></stop><stop offset="0.41" stop-color="#5863FF"></stop><stop offset="0.51" stop-color="#684BFF"></stop><stop offset="0.97" stop-color="#FF7AFF"></stop></linearGradient><linearGradient id="paint34_linear_75_320" x1="51.0415" y1="0.587487" x2="277.711" y2="91.2852" gradientUnits="userSpaceOnUse"><stop stop-color="#08DEFF"></stop><stop offset="0.2" stop-color="#30A0FF"></stop><stop offset="0.41" stop-color="#5863FF"></stop><stop offset="0.51" stop-color="#684BFF"></stop><stop offset="0.97" stop-color="#FF7AFF"></stop></linearGradient><linearGradient id="paint35_linear_75_320" x1="51.9175" y1="-1.60271" x2="278.587" y2="89.0948" gradientUnits="userSpaceOnUse"><stop stop-color="#08DEFF"></stop><stop offset="0.2" stop-color="#30A0FF"></stop><stop offset="0.41" stop-color="#5863FF"></stop><stop offset="0.51" stop-color="#684BFF"></stop><stop offset="0.97" stop-color="#FF7AFF"></stop></linearGradient><linearGradient id="paint36_linear_75_320" x1="52.4705" y1="-2.98412" x2="279.139" y2="87.7131" gradientUnits="userSpaceOnUse"><stop stop-color="#08DEFF"></stop><stop offset="0.2" stop-color="#30A0FF"></stop><stop offset="0.41" stop-color="#5863FF"></stop><stop offset="0.51" stop-color="#684BFF"></stop><stop offset="0.97" stop-color="#FF7AFF"></stop></linearGradient><linearGradient id="paint37_linear_75_320" x1="54.2709" y1="-7.47936" x2="280.938" y2="83.2159" gradientUnits="userSpaceOnUse"><stop stop-color="#08DEFF"></stop><stop offset="0.2" stop-color="#30A0FF"></stop><stop offset="0.41" stop-color="#5863FF"></stop><stop offset="0.51" stop-color="#684BFF"></stop><stop offset="0.97" stop-color="#FF7AFF"></stop></linearGradient><linearGradient id="paint38_linear_75_320" x1="54.6049" y1="-8.31802" x2="281.274" y2="82.3792" gradientUnits="userSpaceOnUse"><stop stop-color="#08DEFF"></stop><stop offset="0.2" stop-color="#30A0FF"></stop><stop offset="0.41" stop-color="#5863FF"></stop><stop offset="0.51" stop-color="#684BFF"></stop><stop offset="0.97" stop-color="#FF7AFF"></stop></linearGradient><linearGradient id="paint39_linear_75_320" x1="55.4549" y1="-10.4401" x2="282.122" y2="80.2553" gradientUnits="userSpaceOnUse"><stop stop-color="#08DEFF"></stop><stop offset="0.2" stop-color="#30A0FF"></stop><stop offset="0.41" stop-color="#5863FF"></stop><stop offset="0.51" stop-color="#684BFF"></stop><stop offset="0.97" stop-color="#FF7AFF"></stop></linearGradient><linearGradient id="paint40_linear_75_320" x1="56.2434" y1="-12.4132" x2="282.911" y2="78.2846" gradientUnits="userSpaceOnUse"><stop stop-color="#08DEFF"></stop><stop offset="0.2" stop-color="#30A0FF"></stop><stop offset="0.41" stop-color="#5863FF"></stop><stop offset="0.51" stop-color="#684BFF"></stop><stop offset="0.97" stop-color="#FF7AFF"></stop></linearGradient><linearGradient id="paint41_linear_75_320" x1="57.2513" y1="-14.929" x2="283.918" y2="75.7664" gradientUnits="userSpaceOnUse"><stop stop-color="#08DEFF"></stop><stop offset="0.2" stop-color="#30A0FF"></stop><stop offset="0.41" stop-color="#5863FF"></stop><stop offset="0.51" stop-color="#684BFF"></stop><stop offset="0.97" stop-color="#FF7AFF"></stop></linearGradient></defs></svg> 