<svg width="130" height="41" viewBox="0 0 130 41" fill="none" xmlns="http://www.w3.org/2000/svg">
<path d="M58.7235 32.2541H54.834V15.72H48.9208V12.0888H64.6511V15.72H58.7235V32.2541Z" fill="#50B065"/>
<path d="M76.1194 17.2127H79.3057V32.2541H76.1051L75.8467 30.4887C75.2726 31.1489 74.5981 31.6704 73.823 32.0532C73.048 32.4263 72.1821 32.6129 71.2252 32.6129C69.8665 32.6129 68.6035 32.2637 67.4362 31.5652C66.2784 30.8571 65.3598 29.9051 64.6805 28.709C64.0011 27.5034 63.6615 26.183 63.6615 24.7477C63.6615 23.3125 64.0011 21.9968 64.6805 20.8008C65.3694 19.5952 66.2927 18.6431 67.4505 17.9447C68.6083 17.2366 69.8665 16.8826 71.2252 16.8826C72.2012 16.8826 73.0767 17.0739 73.8517 17.4567C74.6363 17.8394 75.3157 18.3657 75.8898 19.0354L76.1194 17.2127ZM71.541 29.1396C72.3351 29.1396 73.0623 28.953 73.7226 28.5798C74.3828 28.1971 74.9042 27.6756 75.287 27.0154C75.6697 26.3456 75.8611 25.5945 75.8611 24.7621C75.8611 23.9296 75.6697 23.1785 75.287 22.5087C74.9042 21.8294 74.3828 21.2984 73.7226 20.9156C73.0623 20.5329 72.3351 20.3415 71.541 20.3415C70.7564 20.3415 70.0387 20.5329 69.3881 20.9156C68.7375 21.2984 68.2256 21.8294 67.8524 22.5087C67.4792 23.1785 67.2926 23.9296 67.2926 24.7621C67.2926 25.5945 67.4792 26.3456 67.8524 27.0154C68.2256 27.6852 68.7327 28.2067 69.3737 28.5798C70.0244 28.953 70.7468 29.1396 71.541 29.1396Z" fill="#50B065"/>
<path d="M91.6784 16.8826C92.884 16.8826 93.9318 17.1409 94.8216 17.6576C95.721 18.1647 96.4147 18.9063 96.9027 19.8822C97.3907 20.8486 97.6347 22.0064 97.6347 23.3555V32.2541H93.9605V24.0014C93.9605 22.8149 93.6686 21.8964 93.085 21.2457C92.5109 20.5951 91.7071 20.2698 90.6737 20.2698C89.9944 20.2698 89.3677 20.4324 88.7936 20.7577C88.229 21.0831 87.7793 21.5232 87.4444 22.0782C87.1191 22.6331 86.9565 23.2455 86.9565 23.9153V32.2541H83.2966V17.2127H86.4398L86.6838 19.1646C87.2387 18.4853 87.9755 17.9351 88.894 17.5141C89.8126 17.0931 90.7407 16.8826 91.6784 16.8826Z" fill="#50B065"/>
<path d="M108.033 32.6703C106.55 32.6703 105.21 32.3163 104.014 31.6082C102.818 30.9002 101.875 29.9433 101.186 28.7377C100.507 27.5321 100.167 26.2165 100.167 24.7908C100.167 23.3555 100.512 22.0351 101.201 20.8295C101.89 19.6143 102.832 18.6527 104.028 17.9447C105.224 17.2366 106.554 16.8826 108.018 16.8826C109.109 16.8826 110.119 17.0692 111.047 17.4423C111.975 17.8059 112.793 18.313 113.501 18.9637L111.664 21.5902C111.147 21.1405 110.611 20.8008 110.056 20.5712C109.501 20.3415 108.884 20.2267 108.205 20.2267C107.411 20.2267 106.674 20.4276 105.995 20.8295C105.325 21.2218 104.789 21.7672 104.387 22.4657C103.995 23.1642 103.799 23.9392 103.799 24.7908C103.799 25.6328 104 26.3983 104.401 27.0872C104.803 27.7761 105.339 28.3215 106.009 28.7234C106.688 29.1157 107.42 29.3118 108.205 29.3118C108.884 29.3118 109.501 29.197 110.056 28.9674C110.621 28.7377 111.161 28.4076 111.678 27.977L113.501 30.5892C112.802 31.2398 111.984 31.7517 111.047 32.1249C110.109 32.4885 109.104 32.6703 108.033 32.6703Z" fill="#50B065"/>
<path d="M126.814 17.2127H130V32.2541H126.799L126.541 30.4887C125.967 31.1489 125.292 31.6704 124.517 32.0532C123.742 32.4263 122.876 32.6129 121.92 32.6129C120.561 32.6129 119.298 32.2637 118.131 31.5652C116.973 30.8571 116.054 29.9051 115.375 28.709C114.695 27.5034 114.356 26.183 114.356 24.7477C114.356 23.3125 114.695 21.9968 115.375 20.8008C116.064 19.5952 116.987 18.6431 118.145 17.9447C119.303 17.2366 120.561 16.8826 121.92 16.8826C122.896 16.8826 123.771 17.0739 124.546 17.4567C125.331 17.8394 126.01 18.3657 126.584 19.0354L126.814 17.2127ZM122.235 29.1396C123.029 29.1396 123.757 28.953 124.417 28.5798C125.077 28.1971 125.599 27.6756 125.981 27.0154C126.364 26.3456 126.555 25.5945 126.555 24.7621C126.555 23.9296 126.364 23.1785 125.981 22.5087C125.599 21.8294 125.077 21.2984 124.417 20.9156C123.757 20.5329 123.029 20.3415 122.235 20.3415C121.451 20.3415 120.733 20.5329 120.082 20.9156C119.432 21.2984 118.92 21.8294 118.547 22.5087C118.174 23.1785 117.987 23.9296 117.987 24.7621C117.987 25.5945 118.174 26.3456 118.547 27.0154C118.92 27.6852 119.427 28.2067 120.068 28.5798C120.719 28.953 121.441 29.1396 122.235 29.1396Z" fill="#50B065"/>
<path d="M40.2301 17.9018C40.2129 17.05 40.1783 16.1982 40.1265 15.3522C40.0805 14.5925 40.0114 13.8385 39.9193 13.0845C39.6891 11.191 39.2747 9.34355 38.4517 7.61118C37.0129 4.56082 34.6647 2.50615 31.5165 1.34356C30.4863 0.963707 29.4215 0.693204 28.3338 0.514787C27.7179 0.41119 27.0963 0.319104 26.4748 0.250039C25.9338 0.18673 25.3928 0.152198 24.8517 0.123421C24.0863 0.0773779 23.3208 0.048601 22.5553 0.0140687C22.4518 0.00831333 22.3366 0.00831333 22.2273 0.00255795C21.0589 0.00255795 19.8964 -0.00319744 18.728 0.00255795C18.0259 0.00831333 17.3295 0.0198241 16.6273 0.048601C15.9885 0.0716226 15.3439 0.11191 14.705 0.163709C13.2777 0.290327 11.8618 0.474499 10.469 0.825578C8.75394 1.25723 7.14243 1.91335 5.69783 2.95507C3.78704 4.33061 2.41726 6.13204 1.54244 8.31333C1.08201 9.45865 0.765466 10.65 0.564028 11.8644C0.437409 12.6529 0.333812 13.4471 0.253237 14.2356C0.184172 14.9205 0.155395 15.6054 0.120863 16.2903C0.0863308 17.073 0.0633092 17.8615 0.0345323 18.6442C0.0402877 18.7478 0.0172662 18.8399 0 18.9378C0 19.7263 0 20.509 0 21.2975C0.0115108 21.3723 0.0345323 21.4471 0.0402877 21.5277C0.0575538 21.896 0.0690646 22.2586 0.0863308 22.627C0.126618 23.5824 0.14964 24.5378 0.218705 25.4932C0.328057 27.0068 0.535251 28.509 0.915106 29.9881C1.32374 31.5651 1.93381 33.0557 2.86618 34.3967C4.31078 36.4802 6.24459 37.9305 8.61005 38.8169C9.6748 39.2197 10.7741 39.5075 11.9021 39.6859C12.5122 39.7838 13.128 39.8816 13.7439 39.9507C14.2964 40.014 14.8489 40.0543 15.4072 40.0773C16.541 40.1291 17.669 40.1694 18.8028 40.2097C18.8777 40.2154 18.9582 40.2327 19.0331 40.2442C19.7928 40.2442 20.5525 40.2442 21.3122 40.2442C21.3985 40.2327 21.4791 40.2154 21.5654 40.2097C22.2848 40.1866 23.0043 40.1809 23.7237 40.1464C24.2935 40.1233 24.8575 40.0831 25.4273 40.0428C25.9222 40.0082 26.4172 39.9737 26.9122 39.9104C27.4877 39.8356 28.0633 39.7435 28.633 39.6456C29.6057 39.4787 30.5611 39.2313 31.4877 38.8974C33.6057 38.1377 35.4129 36.9349 36.846 35.191C37.8762 33.9421 38.6014 32.532 39.1021 30.9953C39.4532 29.9075 39.6891 28.7967 39.856 27.6687C40.0172 26.5464 40.1093 25.4183 40.1726 24.2903C40.2301 23.1507 40.2474 22.0111 40.2416 20.8716C40.2359 19.8817 40.2532 18.8917 40.2301 17.9018ZM32.1266 29.8039L28.9668 31.6284L28.9093 31.6572L26.0776 33.2917C25.9107 33.3895 25.6978 33.2687 25.6978 33.073V26.0917L27.0676 26.886L27.3323 27.0356L28.4028 25.1824L28.6676 24.7277L28.6733 24.7162C29.4158 23.3406 29.8417 21.7694 29.8417 20.1004C29.8417 14.5637 25.2028 10.109 19.6028 10.4083C14.5784 10.6788 10.5611 14.8169 10.4345 19.8471C10.3136 24.6816 13.7323 28.7449 18.2849 29.6255V21.9536H15.0043C14.7683 21.9536 14.5726 21.7637 14.5726 21.5219V18.6673C14.5726 18.4313 14.7626 18.2356 15.0043 18.2356H25.2661C25.5021 18.2356 25.6978 18.4255 25.6978 18.6673V21.5219C25.6978 21.7579 25.5079 21.9536 25.2661 21.9536H21.9856V33.0845C21.9856 33.3205 21.7956 33.5162 21.5539 33.5162H20.1266C19.4992 33.5162 18.8777 33.4701 18.2733 33.3895C11.7007 32.4802 6.65322 26.8169 6.71078 19.9795C6.77409 12.6989 12.7194 6.74787 20 6.68456C27.1827 6.62125 33.0762 12.1982 33.5136 19.2543C33.5309 19.5363 33.5424 19.8126 33.5424 20.1004C33.5424 22.4198 32.9553 24.5953 31.9251 26.4946L31.5855 27.0816L30.5381 28.8946L32.1266 29.8039Z" fill="url(#paint0_radial_6_105)"/>
<defs>
<radialGradient id="paint0_radial_6_105" cx="0" cy="0" r="1" gradientUnits="userSpaceOnUse" gradientTransform="translate(20.1211 -3.22863) scale(39.9545 39.9544)">
<stop stop-color="#39FD9E"/>
<stop offset="0.4135" stop-color="#1ECC78"/>
<stop offset="1" stop-color="#0A9753"/>
</radialGradient>
</defs>
</svg>
