<svg id="Group_3" data-name="Group 3" xmlns="http://www.w3.org/2000/svg" width="250.234" height="123.879" viewBox="0 0 250.234 123.879">
  <path id="Path_1" data-name="Path 1" d="M456.432,60.231a14.275,14.275,0,0,0,1.477-.562,7.694,7.694,0,0,0,2.307-1.656,9.85,9.85,0,0,0,1.931-9.727v0a9.522,9.522,0,0,0-4.28-5.247,10.168,10.168,0,0,0-3.4-1.179,19.477,19.477,0,0,0-2.965-.231l-1.017.012.747-1.244a16.553,16.553,0,0,0,2.138-6.4,5.957,5.957,0,0,0-1.579-5.146,5.63,5.63,0,0,0-5.336-1.721,5.783,5.783,0,0,0-2.707,1.461,9.995,9.995,0,0,1-1.581,1.273,3.941,3.941,0,0,1-3.049.7,8.476,8.476,0,0,1-3.29-1.728c-.243-.178-.463-.369-.718-.593a13.647,13.647,0,0,0-1.145-.923,7.6,7.6,0,0,0-2.589-1.164,9.809,9.809,0,0,0-9.373,3.191,9.531,9.531,0,0,0-2.42,6.324,9.841,9.841,0,0,0,.685,3.536,17.944,17.944,0,0,0,1.354,2.808l.446.75-.872-.022a17.038,17.038,0,0,0-7.235,1.352l-.169.075c-.149.058-.277.113-.4.174l-.986.653-.971.913a6,6,0,0,0-1.1,2.1,5.6,5.6,0,0,0,1.181,5.5,5.783,5.783,0,0,0,2.622,1.6,10.359,10.359,0,0,1,1.89.737,3.971,3.971,0,0,1,2.128,2.285,8.4,8.4,0,0,1,.152,3.719c-.034.292-.089.574-.152.892a14.1,14.1,0,0,0-.239,1.468,7.723,7.723,0,0,0,.3,2.842,9.819,9.819,0,0,0,7.445,6.517,9.533,9.533,0,0,0,6.69-1.08,9.877,9.877,0,0,0,2.716-2.352,17.271,17.271,0,0,0,1.755-2.579l.422-.766.422.769c.092.169.186.337.287.511a16.282,16.282,0,0,0,4.471,5.042,5.935,5.935,0,0,0,5.247,1.224,5.61,5.61,0,0,0,4.17-3.762,5.712,5.712,0,0,0,.072-3.083,11.042,11.042,0,0,1-.294-2,4.009,4.009,0,0,1,.906-3,8.736,8.736,0,0,1,3.141-1.986C455.917,60.407,456.17,60.321,456.432,60.231ZM433.9,65.977l0,0a10.229,10.229,0,0,1-2.69,4.893,6.147,6.147,0,0,1-4.095,1.514,6.256,6.256,0,0,1-1.186-.113,6.82,6.82,0,0,1-3.632-2.053,6.168,6.168,0,0,1-1.555-3.632,5.669,5.669,0,0,1,.2-1.839c.063-.21.154-.451.256-.713a12.743,12.743,0,0,0,.494-1.492,10.215,10.215,0,0,0,.4-2.68,7.817,7.817,0,0,0-.417-2.921,6.843,6.843,0,0,0-4.314-4.17,11.36,11.36,0,0,0-2.593-.578,2.9,2.9,0,0,1-1.47-.581,2.99,2.99,0,0,1-1.02-3.054,3.509,3.509,0,0,1,2.381-2.608l.123-.048a10.624,10.624,0,0,1,3.868-.677,18.125,18.125,0,0,1,7.387,1.8,14.931,14.931,0,0,1,7.43,7.985,16.2,16.2,0,0,1,1.159,5.408A18.568,18.568,0,0,1,433.9,65.977Zm2.48-20.423a14.453,14.453,0,0,1-2.188-.169,16.2,16.2,0,0,1-5.254-1.711,18.264,18.264,0,0,1-4.468-3.415,10.229,10.229,0,0,1-2.885-4.758A6.277,6.277,0,0,1,423,30.2a6.672,6.672,0,0,1,3.584-2.09,6.2,6.2,0,0,1,3.941.451,5.862,5.862,0,0,1,1.485,1.106c.157.159.349.39.547.634a12.618,12.618,0,0,0,1,1.113,9.831,9.831,0,0,0,2.126,1.682,7.5,7.5,0,0,0,2.735,1.1,6.873,6.873,0,0,0,5.758-1.658,11.245,11.245,0,0,0,1.8-1.964,2.838,2.838,0,0,1,1.219-.959,3.05,3.05,0,0,1,3.174.646,3.545,3.545,0,0,1,1.152,2.579,3.15,3.15,0,0,1-.092.769l-.024.159c-.714,4.447-4.432,7.65-6.584,9.163A15.061,15.061,0,0,1,436.375,45.554Zm15.675,12.689a7.969,7.969,0,0,0-2.314,1.82,6.729,6.729,0,0,0-1.446,5.818,10.545,10.545,0,0,0,.8,2.555,2.928,2.928,0,0,1,.224,1.538,2.972,2.972,0,0,1-2.145,2.417,3.8,3.8,0,0,1-1.106.169,3.3,3.3,0,0,1-2.335-.923c-3.594-2.887-4.519-7.746-4.755-10.39a14.919,14.919,0,0,1,3.186-10.421,16.36,16.36,0,0,1,4.114-3.709,18.471,18.471,0,0,1,5.187-2.15c2.564-.6,4.145-.622,5.563-.123a6.326,6.326,0,0,1,3.88,3.883,6.879,6.879,0,0,1,.026,4.165l0,.01a5.747,5.747,0,0,1-4.068,3.9c-.186.046-.417.084-.672.125a14.042,14.042,0,0,0-1.6.325A10.1,10.1,0,0,0,452.051,58.243Z" transform="translate(-311.184 -25.935)"/>
  <g id="Group_1" data-name="Group 1" transform="translate(39.744 32.852)">
    <path id="Path_2" data-name="Path 2" d="M385.522,47.94v-8.3h5.608V41.2h-3.878v5.17h3.962V47.94Zm.829-3.475V42.946h4.211v1.518Z" transform="translate(-385.522 -39.471)"/>
    <path id="Path_3" data-name="Path 3" d="M394.222,48.155a4.856,4.856,0,0,1-1.405-.19,3.537,3.537,0,0,1-1.125-.557,4.354,4.354,0,0,1-.884-.889l1.116-1.268a3.416,3.416,0,0,0,1.157,1.1,2.729,2.729,0,0,0,1.251.289,2.006,2.006,0,0,0,.658-.1,1.039,1.039,0,0,0,.455-.289.664.664,0,0,0,.166-.451.741.741,0,0,0-.084-.349.854.854,0,0,0-.236-.287,1.823,1.823,0,0,0-.366-.224,3.493,3.493,0,0,0-.475-.178,4.384,4.384,0,0,0-.571-.123,6.867,6.867,0,0,1-1.162-.374,2.8,2.8,0,0,1-.829-.547,2.051,2.051,0,0,1-.492-.74,2.558,2.558,0,0,1-.161-.938,2.1,2.1,0,0,1,.239-.991,2.391,2.391,0,0,1,.658-.788,3.062,3.062,0,0,1,.971-.511,3.8,3.8,0,0,1,1.169-.178,4.562,4.562,0,0,1,1.328.174,3.051,3.051,0,0,1,.991.492,2.821,2.821,0,0,1,.706.783l-1.128,1.089a2.889,2.889,0,0,0-.537-.557,2.134,2.134,0,0,0-.632-.337,2.177,2.177,0,0,0-.692-.113,2.024,2.024,0,0,0-.677.1,1,1,0,0,0-.444.292.694.694,0,0,0-.161.463.681.681,0,0,0,.108.378.919.919,0,0,0,.308.289,2.331,2.331,0,0,0,.484.222,5.4,5.4,0,0,0,.629.164,6.429,6.429,0,0,1,1.174.345,3.555,3.555,0,0,1,.9.516,2.168,2.168,0,0,1,.576.711,2.089,2.089,0,0,1,.2.921,2.5,2.5,0,0,1-.4,1.434,2.577,2.577,0,0,1-1.116.909A4.115,4.115,0,0,1,394.222,48.155Z" transform="translate(-378.069 -39.568)"/>
    <path id="Path_4" data-name="Path 4" d="M398.807,47.94v-6.7h-2.42v-1.6h6.69v1.6h-2.492v6.7Z" transform="translate(-370.201 -39.471)"/>
    <path id="Path_5" data-name="Path 5" d="M402.233,47.94v-8.3h3.405a4.317,4.317,0,0,1,1.653.3A3.683,3.683,0,0,1,409.4,42.1a5.109,5.109,0,0,1,0,3.362,3.72,3.72,0,0,1-.819,1.316,3.638,3.638,0,0,1-1.28.853,4.372,4.372,0,0,1-1.661.3Zm1.779-1.294-.188-.309h1.755a2.4,2.4,0,0,0,.962-.183,2.12,2.12,0,0,0,.728-.509,2.144,2.144,0,0,0,.458-.8,3.471,3.471,0,0,0,.154-1.058,3.4,3.4,0,0,0-.154-1.048,2.183,2.183,0,0,0-.458-.8,2.074,2.074,0,0,0-.728-.516,2.4,2.4,0,0,0-.962-.183h-1.791l.224-.287Z" transform="translate(-361.957 -39.471)"/>
    <path id="Path_6" data-name="Path 6" d="M436.4,48.037l-.39-.974,2.453-2.716c.135-.142.28-.306.434-.5s.3-.386.451-.588a3.274,3.274,0,0,0,.349-.593,1.3,1.3,0,0,0,.13-.528.943.943,0,0,0-.118-.48.8.8,0,0,0-.345-.325,1.174,1.174,0,0,0-.557-.121,1.119,1.119,0,0,0-.581.161,1.838,1.838,0,0,0-.511.468,3.268,3.268,0,0,0-.414.747l-1.328-.747a3.664,3.664,0,0,1,.675-1.2,3.09,3.09,0,0,1,1.046-.793,2.979,2.979,0,0,1,2.6.022,2.239,2.239,0,0,1,1.246,2.065,2.932,2.932,0,0,1-.053.533,3.064,3.064,0,0,1-.178.569,4.965,4.965,0,0,1-.321.624,7.293,7.293,0,0,1-.475.687c-.186.241-.4.492-.634.752l-1.885,2.053-.239-.725h4.129v1.6Z" transform="translate(-314.383 -39.568)"/>
    <path id="Path_7" data-name="Path 7" d="M444.535,48.127a3.022,3.022,0,0,1-2.969-1.974,6.824,6.824,0,0,1,0-4.591,3.022,3.022,0,0,1,2.969-1.974,3.04,3.04,0,0,1,2.984,1.974,6.826,6.826,0,0,1,0,4.591,3.04,3.04,0,0,1-2.984,1.974Zm0-1.53a1.374,1.374,0,0,0,1.234-.711,3.892,3.892,0,0,0,.439-2.029,4.016,4.016,0,0,0-.439-2.063,1.419,1.419,0,0,0-2.473,0,4.044,4.044,0,0,0-.434,2.063,3.919,3.919,0,0,0,.434,2.029A1.37,1.37,0,0,0,444.535,46.6Z" transform="translate(-307.054 -39.54)"/>
    <path id="Path_8" data-name="Path 8" d="M450.21,48.127a3.028,3.028,0,0,1-2.972-1.974,6.825,6.825,0,0,1,0-4.591,3.2,3.2,0,0,1,5.955,0,6.825,6.825,0,0,1,0,4.591,3.04,3.04,0,0,1-2.984,1.974Zm0-1.53a1.373,1.373,0,0,0,1.234-.711,3.892,3.892,0,0,0,.439-2.029,4.016,4.016,0,0,0-.439-2.063,1.419,1.419,0,0,0-2.473,0,4.044,4.044,0,0,0-.434,2.063,3.919,3.919,0,0,0,.434,2.029A1.37,1.37,0,0,0,450.21,46.6Z" transform="translate(-299.055 -39.54)"/>
    <path id="Path_9" data-name="Path 9" d="M452.9,48.037l-.39-.974,2.453-2.716c.135-.142.28-.306.434-.5s.3-.386.451-.588a3.281,3.281,0,0,0,.349-.593,1.3,1.3,0,0,0,.13-.528.944.944,0,0,0-.118-.48.818.818,0,0,0-.345-.325,1.174,1.174,0,0,0-.557-.121,1.112,1.112,0,0,0-.581.161,1.806,1.806,0,0,0-.511.468,3.268,3.268,0,0,0-.414.747l-1.328-.747a3.663,3.663,0,0,1,.675-1.2,3.09,3.09,0,0,1,1.046-.793,2.979,2.979,0,0,1,2.6.022,2.239,2.239,0,0,1,1.246,2.065,2.932,2.932,0,0,1-.053.533,3.064,3.064,0,0,1-.178.569,5.312,5.312,0,0,1-.32.624,7.3,7.3,0,0,1-.475.687c-.186.241-.4.492-.634.752l-1.885,2.053-.239-.725h4.129v1.6Z" transform="translate(-291.109 -39.568)"/>
  </g>
  <g id="Group_2" data-name="Group 2" transform="translate(0 61.31)">
    <path id="Path_10" data-name="Path 10" d="M398.15,77.255c0,.166-.041.248-.125.248q-1.41,0-2.282-.041l-3.027-.041-3.528.041c-.5.027-1.162.041-1.991.041-.084,0-.125-.082-.125-.248s.041-.251.125-.251a8.856,8.856,0,0,0,2.282-.207,1.391,1.391,0,0,0,.954-.788,5.078,5.078,0,0,0,.248-1.865V64.558H376.45v9.585a5.18,5.18,0,0,0,.248,1.846,1.393,1.393,0,0,0,.976.807,9.107,9.107,0,0,0,2.3.207c.055,0,.084.084.084.251s-.029.248-.084.248q-1.41,0-2.2-.041l-3.444-.041-3.029.041q-.788.04-2.2.041c-.055,0-.082-.082-.082-.248s.027-.251.082-.251a8.4,8.4,0,0,0,2.2-.207,1.381,1.381,0,0,0,.954-.807,5.116,5.116,0,0,0,.251-1.846V54.932a4.945,4.945,0,0,0-.251-1.827,1.452,1.452,0,0,0-.954-.807,7.53,7.53,0,0,0-2.157-.229c-.055,0-.082-.082-.082-.248s.027-.251.082-.251l2.2.043c1.27.055,2.268.082,2.986.082q1.453,0,3.444-.082l2.2-.043c.055,0,.084.084.084.251s-.029.248-.084.248a7.519,7.519,0,0,0-2.261.248,1.591,1.591,0,0,0-1,.851,4.746,4.746,0,0,0-.27,1.846v8.464h14.232V55.014a5.126,5.126,0,0,0-.248-1.846,1.52,1.52,0,0,0-.976-.851,7.52,7.52,0,0,0-2.261-.248c-.084,0-.125-.082-.125-.248s.041-.251.125-.251l1.991.043q1.992.083,3.528.082,1.121,0,3.027-.082l2.282-.043c.084,0,.125.084.125.251s-.041.248-.125.248a7.52,7.52,0,0,0-2.179.229,1.452,1.452,0,0,0-.933.807,4.954,4.954,0,0,0-.248,1.827V74.143a5.125,5.125,0,0,0,.248,1.846,1.379,1.379,0,0,0,.933.807,8.171,8.171,0,0,0,2.179.207C398.109,77,398.15,77.088,398.15,77.255Z" transform="translate(-369.024 -51.114)"/>
    <path id="Path_11" data-name="Path 11" d="M389.1,76.463a12.342,12.342,0,0,1-4.647-4.9,14.139,14.139,0,0,1-1.639-6.741A12.354,12.354,0,0,1,384.97,57.5a13.542,13.542,0,0,1,5.538-4.584,16.586,16.586,0,0,1,6.91-1.535,12.923,12.923,0,0,1,6.929,1.846,12.523,12.523,0,0,1,4.584,4.876,13.585,13.585,0,0,1,1.6,6.43,12.732,12.732,0,0,1-1.991,6.929,14.3,14.3,0,0,1-5.334,4.979,14.854,14.854,0,0,1-7.24,1.827A13.092,13.092,0,0,1,389.1,76.463Zm12.738-.54a9,9,0,0,0,3.111-3.962,15.467,15.467,0,0,0,1.142-6.223,17.62,17.62,0,0,0-1.265-6.847,10.834,10.834,0,0,0-3.61-4.729,9.1,9.1,0,0,0-5.5-1.7,7.423,7.423,0,0,0-6.245,2.882q-2.22,2.885-2.22,7.987a18.7,18.7,0,0,0,1.306,7.136,11.931,11.931,0,0,0,3.61,5,8.222,8.222,0,0,0,5.208,1.8A7.71,7.71,0,0,0,401.836,75.923Z" transform="translate(-349.58 -51.381)"/>
    <path id="Path_12" data-name="Path 12" d="M425.17,77.472c0,.166-.067.248-.207.248q-.788,0-2.531-.082t-2.531-.084q-1.038,0-2.449.084t-2.2.082c-.111,0-.166-.082-.166-.248s.055-.251.166-.251a4.335,4.335,0,0,0,1.764-.268.922.922,0,0,0,.559-.894,6.053,6.053,0,0,0-.706-2.116l-4.48-9.086h-7.51l-3.193,7.18a5.681,5.681,0,0,0-.54,2.239,2.539,2.539,0,0,0,1.036,2.2,4.915,4.915,0,0,0,2.9.745c.137,0,.207.084.207.251s-.07.248-.207.248c-.5,0-1.217-.027-2.157-.082q-1.576-.083-2.738-.084-1.121,0-2.615.084-1.327.083-2.2.082c-.14,0-.207-.082-.207-.248s.067-.251.207-.251a3.845,3.845,0,0,0,1.95-.456,4.8,4.8,0,0,0,1.535-1.639,29.533,29.533,0,0,0,1.784-3.507l8.92-20.081c.055-.082.181-.123.374-.123s.306.041.333.123l10.166,20.5a19.679,19.679,0,0,0,2.427,4.085,2.807,2.807,0,0,0,2.094,1.1C425.1,77.221,425.17,77.306,425.17,77.472ZM405.337,63.821H411.9l-3.444-6.97Z" transform="translate(-332.16 -51.332)"/>
    <path id="Path_13" data-name="Path 13" d="M437.081,51.821c0,.166-.029.248-.084.248a3.06,3.06,0,0,0-2.572,1.183,5.431,5.431,0,0,0-.913,3.381v21.45c0,.082-.07.137-.207.166s-.236.014-.289-.041L413.556,55.595V72.483a5.528,5.528,0,0,0,.87,3.36A2.965,2.965,0,0,0,416.957,77c.055,0,.084.084.084.251s-.029.248-.084.248q-1.121,0-1.7-.041l-2.2-.041-2.449.041c-.444.027-1.077.041-1.909.041-.082,0-.123-.082-.123-.248s.041-.251.123-.251a3.4,3.4,0,0,0,2.76-1.162,5.092,5.092,0,0,0,.976-3.36V54.31a8.519,8.519,0,0,0-2.1-1.743,4.041,4.041,0,0,0-1.928-.5c-.055,0-.084-.082-.084-.248s.029-.251.084-.251l1.658.043c.359.027.872.041,1.535.041l2.656-.041q.5-.043,1.2-.043a.688.688,0,0,1,.5.166,4.948,4.948,0,0,1,.5.665c.47.636.815,1.077,1.036,1.328l14.895,17.591V56.634a5.63,5.63,0,0,0-.87-3.381,2.91,2.91,0,0,0-2.49-1.183c-.055,0-.084-.082-.084-.248s.029-.251.084-.251l1.7.043q1.327.083,2.2.082c.554,0,1.3-.027,2.241-.082L437,51.57C437.052,51.57,437.081,51.654,437.081,51.821Z" transform="translate(-313.62 -51.114)"/>
    <path id="Path_14" data-name="Path 14" d="M428.619,76.526a12.473,12.473,0,0,1-5.167-4.753,12.891,12.891,0,0,1-1.784-6.7,12.683,12.683,0,0,1,2.053-7.115,13.652,13.652,0,0,1,5.642-4.856,18.436,18.436,0,0,1,8.071-1.721,23.15,23.15,0,0,1,3.9.333,11.985,11.985,0,0,1,3.155.913,1.087,1.087,0,0,1,.434.33,1.559,1.559,0,0,1,.147.622l.5,5.394c0,.084-.068.14-.207.166a.234.234,0,0,1-.289-.123,10.521,10.521,0,0,0-3.736-4.854,9.925,9.925,0,0,0-5.849-1.745,8.579,8.579,0,0,0-7.013,2.967q-2.447,2.968-2.446,8.153a16.961,16.961,0,0,0,1.492,7.262,11.988,11.988,0,0,0,4.129,4.979,10.319,10.319,0,0,0,5.914,1.783,8.372,8.372,0,0,0,2.82-.374,2.577,2.577,0,0,0,1.475-1.453,8.29,8.29,0,0,0,.475-3.193,12.254,12.254,0,0,0-.248-3.008,1.637,1.637,0,0,0-1.1-1.142,10.415,10.415,0,0,0-2.967-.289c-.166,0-.248-.111-.248-.333a.446.446,0,0,1,.06-.229.183.183,0,0,1,.147-.1q3.442.21,5.517.207t4.317-.123a.172.172,0,0,1,.145.1.377.377,0,0,1,.063.186c0,.2-.07.292-.207.292a1.576,1.576,0,0,0-1.162.27,2.08,2.08,0,0,0-.436,1.265q-.1.954-.1,3.319a16.753,16.753,0,0,0,.145,2.656,7.964,7.964,0,0,1,.147,1c0,.166-.036.27-.106.311a4.032,4.032,0,0,1-.393.188,43.6,43.6,0,0,1-9.337,1.162A17.119,17.119,0,0,1,428.619,76.526Z" transform="translate(-294.811 -51.381)"/>
    <path id="Path_15" data-name="Path 15" d="M443.71,58.954a8.131,8.131,0,0,0,1.909,2.053q1.139.871,3.09,2.075,2.115,1.327,3.34,2.282a8.757,8.757,0,0,1,2.075,2.343,6.125,6.125,0,0,1,.851,3.258,6.7,6.7,0,0,1-1.1,3.774,7.33,7.33,0,0,1-3.114,2.593,10.752,10.752,0,0,1-4.584.935,14.953,14.953,0,0,1-3.589-.458,8.575,8.575,0,0,1-2.8-1.121.968.968,0,0,1-.415-.788l-.251-6.3v-.043c0-.108.07-.171.207-.186s.222.034.251.145a21.918,21.918,0,0,0,3.133,5.645,5.517,5.517,0,0,0,4.5,2.2,4.59,4.59,0,0,0,2.989-.976,3.958,3.958,0,0,0,1.2-3.256,6.163,6.163,0,0,0-.81-3.2,7.971,7.971,0,0,0-1.991-2.282q-1.182-.911-3.215-2.239-1.992-1.287-3.111-2.179a8.19,8.19,0,0,1-1.909-2.2,5.8,5.8,0,0,1-.788-3.051,5.64,5.64,0,0,1,1.2-3.651,7.181,7.181,0,0,1,3.133-2.22,11.424,11.424,0,0,1,4.044-.725,14.924,14.924,0,0,1,2.822.27,11.368,11.368,0,0,1,2.364.684.951.951,0,0,1,.5.311.856.856,0,0,1,.123.477l.125,5.642c0,.084-.077.147-.229.188s-.241.007-.27-.1a18.289,18.289,0,0,0-2.217-4.584,4.7,4.7,0,0,0-4.172-2.056,4.058,4.058,0,0,0-2.967,1.08,3.941,3.941,0,0,0-1.1,2.945A4.869,4.869,0,0,0,443.71,58.954Z" transform="translate(-270.202 -51.381)"/>
    <path id="Path_16" data-name="Path 16" d="M454.087,76.463a12.342,12.342,0,0,1-4.647-4.9,14.141,14.141,0,0,1-1.639-6.741,12.353,12.353,0,0,1,2.157-7.324,13.542,13.542,0,0,1,5.538-4.584,16.578,16.578,0,0,1,6.91-1.535,12.915,12.915,0,0,1,6.927,1.846,12.511,12.511,0,0,1,4.586,4.876,13.612,13.612,0,0,1,1.6,6.43,12.714,12.714,0,0,1-1.993,6.929,14.294,14.294,0,0,1-5.331,4.979,14.854,14.854,0,0,1-7.24,1.827A13.092,13.092,0,0,1,454.087,76.463Zm12.738-.54a9.017,9.017,0,0,0,3.112-3.962,15.468,15.468,0,0,0,1.142-6.223,17.621,17.621,0,0,0-1.268-6.847,10.83,10.83,0,0,0-3.608-4.729,9.108,9.108,0,0,0-5.5-1.7,7.42,7.42,0,0,0-6.245,2.882q-2.22,2.885-2.22,7.987a18.656,18.656,0,0,0,1.306,7.136,11.933,11.933,0,0,0,3.61,5,8.22,8.22,0,0,0,5.206,1.8A7.712,7.712,0,0,0,466.824,75.923Z" transform="translate(-257.977 -51.381)"/>
    <path id="Path_17" data-name="Path 17" d="M489.689,51.821c0,.166-.026.248-.082.248a3.068,3.068,0,0,0-2.574,1.183,5.447,5.447,0,0,0-.911,3.381v21.45c0,.082-.07.137-.207.166a.319.319,0,0,1-.292-.041L466.164,55.595V72.483a5.528,5.528,0,0,0,.872,3.36A2.965,2.965,0,0,0,469.567,77c.055,0,.082.084.082.251s-.026.248-.082.248q-1.121,0-1.7-.041l-2.2-.041-2.446.041q-.665.04-1.909.041c-.082,0-.125-.082-.125-.248s.043-.251.125-.251a3.4,3.4,0,0,0,2.76-1.162,5.105,5.105,0,0,0,.974-3.36V54.31a8.516,8.516,0,0,0-2.094-1.743,4.043,4.043,0,0,0-1.931-.5c-.055,0-.082-.082-.082-.248s.026-.251.082-.251l1.661.043c.359.027.872.041,1.535.041l2.656-.041c.333-.029.733-.043,1.2-.043a.688.688,0,0,1,.5.166,5.228,5.228,0,0,1,.5.665c.47.636.817,1.077,1.039,1.328L485,71.321V56.634a5.63,5.63,0,0,0-.872-3.381,2.9,2.9,0,0,0-2.49-1.183c-.055,0-.082-.082-.082-.248s.026-.251.082-.251l1.7.043c.884.055,1.62.082,2.2.082q.828,0,2.239-.082l1.827-.043C489.662,51.57,489.689,51.654,489.689,51.821Z" transform="translate(-239.455 -51.114)"/>
    <path id="Path_18" data-name="Path 18" d="M415.286,72.143c0,.055-.075.1-.227.123s-.243,0-.27-.082q-1-4.729-5.767-4.731h-1.661a3.246,3.246,0,0,0-2.116.54,2.256,2.256,0,0,0-.622,1.786v9h3.4q4.646,0,4.647-3.111c0-.055.082-.082.248-.082s.248.027.248.082l-.041,3.651q0,1.287.041,1.909l.043,2.157c0,.084-.084.125-.251.125s-.248-.041-.248-.125q0-3.525-4.772-3.526h-3.319v8.92a4.2,4.2,0,0,0,.332,1.931,1.937,1.937,0,0,0,1.306.851,13.226,13.226,0,0,0,3.008.248c.056,0,.084.082.084.248s-.029.251-.084.251q-1.7,0-2.656-.043l-4.066-.041-3.027.041q-.792.043-2.2.043c-.082,0-.125-.084-.125-.251s.043-.248.125-.248A8.261,8.261,0,0,0,399.5,91.6a1.377,1.377,0,0,0,.933-.81,5.107,5.107,0,0,0,.251-1.846V69.736a5.364,5.364,0,0,0-.229-1.824,1.378,1.378,0,0,0-.892-.81,6.733,6.733,0,0,0-2.034-.227c-.082,0-.123-.084-.123-.251s.041-.248.123-.248H414.79c.275,0,.415.123.415.374Z" transform="translate(-329.309 -30.236)"/>
    <path id="Path_19" data-name="Path 19" d="M413,91.267a12.357,12.357,0,0,1-4.649-4.895,14.184,14.184,0,0,1-1.639-6.743,12.342,12.342,0,0,1,2.159-7.322,13.5,13.5,0,0,1,5.538-4.586,16.572,16.572,0,0,1,6.907-1.533,12.9,12.9,0,0,1,6.929,1.846,12.505,12.505,0,0,1,4.586,4.873,13.62,13.62,0,0,1,1.6,6.433,12.718,12.718,0,0,1-1.991,6.929,14.333,14.333,0,0,1-5.331,4.979,14.859,14.859,0,0,1-7.24,1.824A13.057,13.057,0,0,1,413,91.267Zm12.737-.54a9,9,0,0,0,3.112-3.962,15.5,15.5,0,0,0,1.14-6.223,17.62,17.62,0,0,0-1.265-6.847,10.844,10.844,0,0,0-3.61-4.729,9.1,9.1,0,0,0-5.5-1.7,7.425,7.425,0,0,0-6.245,2.885q-2.22,2.881-2.22,7.987a18.673,18.673,0,0,0,1.309,7.136,11.889,11.889,0,0,0,3.61,5,8.213,8.213,0,0,0,5.206,1.805A7.7,7.7,0,0,0,425.741,90.727Z" transform="translate(-315.889 -30.503)"/>
    <path id="Path_20" data-name="Path 20" d="M426.534,91.267a12.335,12.335,0,0,1-4.647-4.895,14.155,14.155,0,0,1-1.639-6.743,12.341,12.341,0,0,1,2.157-7.322,13.5,13.5,0,0,1,5.539-4.586,16.571,16.571,0,0,1,6.907-1.533,12.911,12.911,0,0,1,6.932,1.846,12.493,12.493,0,0,1,4.582,4.873,13.568,13.568,0,0,1,1.6,6.433,12.72,12.72,0,0,1-1.993,6.929,14.313,14.313,0,0,1-5.331,4.979,14.86,14.86,0,0,1-7.24,1.824A13.068,13.068,0,0,1,426.534,91.267Zm12.737-.54a9,9,0,0,0,3.112-3.962,15.459,15.459,0,0,0,1.14-6.223,17.575,17.575,0,0,0-1.265-6.847,10.857,10.857,0,0,0-3.608-4.729,9.107,9.107,0,0,0-5.5-1.7,7.422,7.422,0,0,0-6.245,2.885q-2.223,2.881-2.22,7.987a18.672,18.672,0,0,0,1.306,7.136,11.889,11.889,0,0,0,3.61,5,8.223,8.223,0,0,0,5.206,1.805A7.7,7.7,0,0,0,439.271,90.727Z" transform="translate(-296.813 -30.503)"/>
    <path id="Path_21" data-name="Path 21" d="M442.413,92.4c-.415-.029-.94-.055-1.576-.084s-1.354-.041-2.157-.041l-2.945.041q-.792.043-2.2.043c-.055,0-.082-.084-.082-.251s.027-.248.082-.248a7.347,7.347,0,0,0,2.054-.207,1.367,1.367,0,0,0,.892-.81A5.107,5.107,0,0,0,436.73,89V69.785a5.365,5.365,0,0,0-.229-1.824,1.378,1.378,0,0,0-.892-.81,6.734,6.734,0,0,0-2.034-.227c-.055,0-.082-.084-.082-.251s.027-.248.082-.248l2.2.041q1.826.083,2.9.082,1.659,0,3.36-.123,2.075-.083,2.781-.084A16.41,16.41,0,0,1,452.331,68a12.574,12.574,0,0,1,5.083,4.524,11.8,11.8,0,0,1,1.8,6.43,13.491,13.491,0,0,1-1.865,7.115,12.806,12.806,0,0,1-5.02,4.772,14.5,14.5,0,0,1-6.929,1.68Q444.114,92.522,442.413,92.4Zm7.654-2.075a9.1,9.1,0,0,0,3.466-4.047,15.1,15.1,0,0,0,1.244-6.408,16.869,16.869,0,0,0-1.181-6.452,10.85,10.85,0,0,0-3.34-4.565,7.935,7.935,0,0,0-5.02-1.68,13.516,13.516,0,0,0-2.7.207,2.305,2.305,0,0,0-1.391.766,2.806,2.806,0,0,0-.436,1.723V88.541a3,3,0,0,0,.873,2.427,5.608,5.608,0,0,0,3.4.725A9.477,9.477,0,0,0,450.067,90.324Z" transform="translate(-278.199 -30.286)"/>
  </g>
</svg>
