<svg width="104" height="70" viewBox="0 0 104 70" fill="none" xmlns="http://www.w3.org/2000/svg">
<path d="M53.9273 22.2433L54.0317 22.1811C54.291 22.0268 54.5973 21.9713 54.8943 22.0247C55.1913 22.0781 55.459 22.237 55.6483 22.472C56.2233 23.2032 57.0746 23.5721 58.1916 23.5721C59.6549 23.5721 60.3211 22.9824 60.3211 22.1653C60.3274 21.9442 60.2719 21.7258 60.161 21.5346C60.0501 21.3433 59.8881 21.1867 59.6932 21.0824C59.2755 20.8179 58.534 20.531 57.4461 20.2256C56.2485 19.8646 55.5267 19.5803 54.69 18.9906C53.8731 18.3824 53.4355 17.4687 53.4355 16.2523C53.4355 15.0359 53.8546 14.0852 54.7098 13.3818C55.5794 12.6553 56.6835 12.2699 57.8162 12.2975C59.4394 12.2975 60.801 12.9269 61.7633 14.0455C61.8814 14.1869 61.9671 14.3526 62.0142 14.5307C62.0613 14.7089 62.0687 14.8952 62.0359 15.0766C62.0032 15.2579 61.931 15.4299 61.8245 15.5802C61.718 15.7306 61.5798 15.8558 61.4196 15.9469L61.3323 15.9971C61.0886 16.1331 60.805 16.1796 60.5306 16.1287C60.2562 16.0777 60.0082 15.9325 59.8294 15.7181C59.5797 15.4322 59.2694 15.2056 58.9212 15.0546C58.573 14.9037 58.1955 14.8322 57.8162 14.8455C56.7336 14.8455 56.0687 15.3968 56.0687 16.1769C56.0654 16.3766 56.1103 16.5741 56.1995 16.7528C56.2888 16.9314 56.4199 17.0858 56.5816 17.203C56.9424 17.4502 57.6073 17.7319 58.5961 18.0399L59.5082 18.3441C59.7994 18.4346 60.085 18.5423 60.3634 18.6667C60.657 18.7654 60.9379 18.8985 61.2002 19.0633C61.5967 19.3106 62.2074 19.7866 62.4546 20.2428C62.7885 20.8129 62.9595 21.4637 62.949 22.1243C62.949 23.3606 62.4929 24.3298 61.5994 25.053C60.7058 25.7763 59.5412 26.1412 58.1163 26.1412C56.0621 26.1412 54.4904 25.3836 53.5452 24.0904C53.4398 23.9472 53.3656 23.7833 53.3276 23.6095C53.2896 23.4357 53.2886 23.2559 53.3246 23.0817C53.3607 22.9075 53.4329 22.7428 53.5368 22.5983C53.6406 22.4539 53.7736 22.3329 53.9273 22.2433Z" fill="#767576"/>
<path d="M68.5487 18.7247H67.5441V22.6781C67.5441 23.3961 67.9049 23.6209 68.6016 23.6658C68.8942 23.6817 69.1698 23.8085 69.3722 24.0205C69.5746 24.2325 69.6885 24.5138 69.6908 24.8069C69.6898 25.1074 69.571 25.3956 69.3599 25.6094C69.1488 25.8233 68.8623 25.9458 68.5619 25.9506C66.0503 25.9943 65.0907 24.9682 65.0907 22.6781V18.7247H64.5791C64.429 18.7247 64.2804 18.6951 64.1417 18.6376C64.0031 18.5801 63.8771 18.4959 63.7711 18.3896C63.665 18.2834 63.5809 18.1573 63.5236 18.0186C63.4662 17.8798 63.4368 17.7311 63.437 17.581V17.5096C63.437 17.2066 63.5573 16.916 63.7715 16.7018C63.9857 16.4875 64.2762 16.3672 64.5791 16.3672H65.0867V15.2988C65.0865 15.0535 65.1653 14.8147 65.3115 14.6177C65.4577 14.4207 65.6635 14.2761 65.8983 14.2054L66.0649 14.1538C66.2357 14.1022 66.4162 14.0913 66.5919 14.122C66.7677 14.1527 66.9338 14.2241 67.0771 14.3305C67.2203 14.4369 67.3366 14.5753 67.4168 14.7347C67.497 14.8942 67.5388 15.0701 67.5388 15.2486V16.3712H68.5434C68.6935 16.371 68.8421 16.4004 68.9809 16.4577C69.1196 16.5151 69.2456 16.5992 69.3518 16.7053C69.458 16.8114 69.5423 16.9374 69.5997 17.0761C69.6572 17.2148 69.6868 17.3634 69.6868 17.5136V17.585C69.6858 17.8867 69.5656 18.1758 69.3524 18.3893C69.1392 18.6027 68.8503 18.7233 68.5487 18.7247Z" fill="#767576"/>
<path d="M78.9106 16.3672H79.2305C79.3705 16.3663 79.5092 16.3933 79.6387 16.4464C79.7682 16.4996 79.8859 16.578 79.9849 16.677C80.0839 16.776 80.1622 16.8937 80.2154 17.0232C80.2685 17.1528 80.2955 17.2916 80.2946 17.4316V24.8083C80.296 24.9486 80.2695 25.0879 80.2165 25.2179C80.1636 25.3479 80.0853 25.466 79.9863 25.5654C79.8873 25.6649 79.7694 25.7436 79.6397 25.797C79.5099 25.8505 79.3708 25.8775 79.2305 25.8766H78.908C78.7681 25.8768 78.6296 25.8494 78.5003 25.796C78.3711 25.7426 78.2536 25.6642 78.1547 25.5654C78.0557 25.4665 77.9772 25.3491 77.9237 25.2199C77.8701 25.0907 77.8425 24.9521 77.8425 24.8122C77.2569 25.7021 76.3065 26.1411 75.0137 26.1411C73.9681 26.1411 73.1129 25.7999 72.4282 25.0965C71.7672 24.3931 71.4209 23.4424 71.4209 22.2061V17.4316C71.4209 17.1493 71.533 16.8786 71.7326 16.679C71.9321 16.4794 72.2028 16.3672 72.485 16.3672H72.8089C72.9488 16.3663 73.0876 16.3933 73.2171 16.4464C73.3466 16.4996 73.4643 16.578 73.5633 16.677C73.6622 16.776 73.7406 16.8937 73.7937 17.0232C73.8469 17.1528 73.8738 17.2916 73.873 17.4316V21.8994C73.873 23.1727 74.6145 23.8576 75.7553 23.8576C77.0283 23.8576 77.8452 23.0775 77.8452 21.5001V17.4316C77.8452 17.2917 77.8727 17.1532 77.9263 17.024C77.9799 16.8947 78.0584 16.7774 78.1573 16.6785C78.2563 16.5796 78.3737 16.5013 78.503 16.4479C78.6322 16.3944 78.7708 16.367 78.9106 16.3672Z" fill="#767576"/>
<path d="M90.8629 12.5645H91.0731C91.3704 12.5645 91.6555 12.6826 91.8657 12.8929C92.0759 13.1031 92.194 13.3883 92.194 13.6857V24.7514C92.194 25.0488 92.0759 25.3339 91.8657 25.5442C91.6555 25.7545 91.3704 25.8726 91.0731 25.8726H90.8629C90.5656 25.8726 90.2805 25.7545 90.0703 25.5442C89.8601 25.3339 89.742 25.0488 89.742 24.7514C89.0202 25.6769 87.9931 26.1384 86.662 26.1384C86.043 26.1448 85.4297 26.0194 84.8629 25.7705C84.296 25.5215 83.7887 25.1547 83.3745 24.6945C82.4809 23.724 82.0249 22.5261 82.0249 21.1245C82.0249 19.723 82.4809 18.5396 83.3745 17.5691C84.2681 16.5986 85.3891 16.1054 86.662 16.1054C87.9931 16.1054 89.0202 16.5615 89.742 17.4937V13.6857C89.742 13.3883 89.8601 13.1031 90.0703 12.8929C90.2805 12.6826 90.5656 12.5645 90.8629 12.5645ZM87.1194 23.8033C87.4669 23.8146 87.8131 23.7546 88.1366 23.627C88.4601 23.4995 88.754 23.307 89.0004 23.0616C89.2478 22.8034 89.4411 22.4983 89.5689 22.1643C89.6967 21.8302 89.7564 21.474 89.7446 21.1166C89.7446 20.3378 89.4974 19.6912 89.003 19.1967C88.7603 18.9452 88.4674 18.7475 88.1433 18.6165C87.8193 18.4856 87.4713 18.4242 87.122 18.4364C86.77 18.4257 86.4195 18.4877 86.0924 18.6185C85.7654 18.7493 85.4688 18.9462 85.2212 19.1967C84.7268 19.6912 84.4796 20.3378 84.4796 21.1166C84.4681 21.473 84.5278 21.8281 84.6551 22.1611C84.7825 22.4942 84.9749 22.7985 85.2212 23.0563C85.4721 23.3012 85.7697 23.4933 86.0962 23.6212C86.4227 23.7491 86.7715 23.8101 87.122 23.8007L87.1194 23.8033Z" fill="#767576"/>
<path d="M101.447 16.3672H101.656C101.837 16.3668 102.015 16.4099 102.175 16.493C102.336 16.5761 102.473 16.6967 102.577 16.8445C102.681 16.9924 102.748 17.1631 102.771 17.3422C102.795 17.5212 102.775 17.7034 102.714 17.8732L99.8056 25.8726C99.0124 28.0821 97.8135 29.2879 96.1043 29.6026C95.9424 29.6319 95.776 29.6252 95.6169 29.583C95.4578 29.5408 95.31 29.4641 95.1839 29.3584C95.0577 29.2526 94.9564 29.1205 94.887 28.9712C94.8177 28.8219 94.782 28.6592 94.7824 28.4946V28.3888C94.7868 28.1347 94.8753 27.8892 95.0341 27.6908C95.193 27.4924 95.4132 27.3524 95.6602 27.2927C96.4374 27.0851 96.9292 26.5324 97.2715 25.5632L94.0356 17.9274C93.9633 17.7567 93.9345 17.5708 93.9516 17.3862C93.9687 17.2016 94.0312 17.0242 94.1336 16.8696C94.2359 16.7151 94.375 16.5884 94.5382 16.5007C94.7015 16.413 94.884 16.3672 95.0693 16.3672H95.2861C95.5125 16.3671 95.7336 16.4355 95.9205 16.5634C96.1073 16.6913 96.2511 16.8727 96.333 17.0838L98.5299 22.7548L100.381 17.1367C100.455 16.9126 100.598 16.7177 100.79 16.5795C100.981 16.4414 101.211 16.3671 101.447 16.3672Z" fill="#767576"/>
<path d="M46.35 42.9571H50.7214C51.0492 42.9571 51.3636 43.0874 51.5953 43.3192C51.8271 43.5511 51.9573 43.8655 51.9573 44.1934V44.2317C51.957 44.5594 51.8266 44.8735 51.5949 45.1051C51.3631 45.3366 51.049 45.4667 50.7214 45.4667H44.962C44.6345 45.4667 44.3203 45.3366 44.0885 45.1051C43.8568 44.8735 43.7264 44.5594 43.7261 44.2317V33.3895C43.7264 33.0618 43.8568 32.7477 44.0885 32.5162C44.3203 32.2846 44.6345 32.1545 44.962 32.1545H50.6262C50.9538 32.1545 51.268 32.2846 51.4997 32.5162C51.7315 32.7477 51.8618 33.0618 51.8622 33.3895V33.4278C51.8622 33.5902 51.8302 33.751 51.7681 33.9009C51.706 34.0509 51.6149 34.1872 51.5002 34.302C51.3854 34.4168 51.2492 34.5079 51.0992 34.57C50.9492 34.6321 50.7885 34.6641 50.6262 34.6641H46.35V37.4976H50.149C50.3113 37.4975 50.472 37.5293 50.6219 37.5913C50.7718 37.6533 50.9081 37.7442 51.0229 37.8589C51.1377 37.9736 51.2287 38.1098 51.2909 38.2597C51.353 38.4096 51.385 38.5703 51.385 38.7326C51.385 38.8949 51.353 39.0557 51.2909 39.2057C51.2288 39.3557 51.1377 39.492 51.023 39.6068C50.9082 39.7216 50.772 39.8126 50.622 39.8748C50.4721 39.9369 50.3113 39.9689 50.149 39.9689H46.35V42.9571Z" fill="#767576"/>
<path d="M61.5373 36.74C62.2207 37.4434 62.5631 38.3941 62.5631 39.6303V44.4022C62.5631 44.6828 62.4517 44.9518 62.2533 45.1502C62.055 45.3486 61.786 45.46 61.5056 45.46H61.183C60.9017 45.4604 60.6317 45.3493 60.4321 45.1511C60.2324 44.9528 60.1194 44.6836 60.1176 44.4022V39.9345C60.1176 38.6612 59.3774 37.9762 58.2366 37.9762C56.9623 37.9762 56.1454 38.7564 56.1454 40.3338V44.4022C56.1454 44.6828 56.034 44.9518 55.8357 45.1502C55.6373 45.3486 55.3684 45.46 55.0879 45.46H54.764C54.4841 45.4583 54.2161 45.3463 54.0182 45.1483C53.8203 44.9503 53.7083 44.6822 53.7065 44.4022V37.0256C53.7065 36.7444 53.8177 36.4747 54.0159 36.2753C54.214 36.0758 54.483 35.9629 54.764 35.9612H55.0879C55.2273 35.9612 55.3654 35.9888 55.4941 36.0423C55.6229 36.0959 55.7397 36.1744 55.838 36.2733C55.9363 36.3723 56.0141 36.4896 56.0668 36.6187C56.1196 36.7478 56.1463 36.8861 56.1454 37.0256C56.7349 36.1317 57.6854 35.6941 58.9782 35.6941C60.0172 35.6941 60.8724 36.0365 61.5373 36.74Z" fill="#767576"/>
<path d="M73.0902 35.9612H73.1722C73.3241 35.961 73.4746 35.9908 73.615 36.0489C73.7554 36.107 73.883 36.1922 73.9904 36.2997C74.0979 36.4071 74.1831 36.5348 74.2411 36.6752C74.2992 36.8156 74.329 36.9662 74.3288 37.1182V45.0105C74.3288 46.4755 73.8344 47.5968 72.8655 48.3755C71.8966 49.1543 70.7373 49.5365 69.3679 49.5365C67.9601 49.5365 66.7585 49.1609 65.8728 48.4337C65.7294 48.3142 65.6171 48.1617 65.5455 47.9893C65.4739 47.8169 65.4451 47.6297 65.4616 47.4437C65.4781 47.2577 65.5394 47.0785 65.6402 46.9214C65.7411 46.7643 65.8785 46.634 66.0407 46.5416L66.1293 46.4914C66.3398 46.3753 66.5821 46.3302 66.8202 46.3628C67.0584 46.3955 67.2796 46.5041 67.4511 46.6725C67.9363 47.126 68.6038 47.3495 69.4458 47.3495C70.9858 47.3495 71.9349 46.5125 71.9349 45.0105V43.9911C71.2132 44.9602 70.2059 45.4362 68.8946 45.4362C68.2639 45.4492 67.6373 45.3309 67.0548 45.0887C66.4722 44.8465 65.9464 44.4858 65.5106 44.0294C64.6219 43.0967 64.1369 41.8508 64.161 40.5625C64.1492 39.9272 64.2642 39.2959 64.4993 38.7056C64.7345 38.1153 65.085 37.5778 65.5305 37.1248C65.9595 36.6638 66.4809 36.2986 67.0605 36.0527C67.6402 35.8069 68.2651 35.6861 68.8946 35.6981C70.2059 35.6981 71.2132 36.1741 71.9349 37.1433V37.1155C71.9356 36.8093 72.0576 36.516 72.2742 36.2996C72.4907 36.0832 72.7842 35.9616 73.0902 35.9612ZM71.1735 38.718C70.6791 38.2235 70.0526 37.9763 69.2727 37.9763C68.9194 37.9653 68.5676 38.0253 68.2379 38.1527C67.9082 38.2801 67.6074 38.4723 67.3533 38.718C67.1075 38.9578 66.9145 39.2463 66.7868 39.5651C66.6591 39.8839 66.5994 40.2259 66.6118 40.5691C66.6118 42.0897 67.734 43.1726 69.2727 43.1726C70.8113 43.1726 71.9336 42.0897 71.9336 40.5691C71.9336 39.8208 71.6877 39.1927 71.1735 38.718Z" fill="#767576"/>
<path d="M76.5537 44.241V32.8143C76.5537 32.4897 76.6825 32.1783 76.9117 31.9486C77.1409 31.7188 77.4519 31.5893 77.7764 31.5886C78.1016 31.5886 78.4134 31.7177 78.6434 31.9475C78.8734 32.1774 79.0028 32.4891 79.0031 32.8143V44.241C79.0028 44.5662 78.8734 44.8779 78.6434 45.1077C78.4134 45.3376 78.1016 45.4667 77.7764 45.4667C77.4519 45.466 77.1409 45.3365 76.9117 45.1067C76.6825 44.8769 76.5537 44.5656 76.5537 44.241Z" fill="#767576"/>
<path d="M80.9637 33.6606C80.9539 33.3591 81.0345 33.0616 81.1951 32.8062C81.3557 32.5509 81.589 32.3494 81.865 32.2277C82.1409 32.106 82.4469 32.0696 82.7437 32.1232C83.0405 32.1768 83.3145 32.3179 83.5305 32.5284C83.7465 32.739 83.8946 33.0093 83.9559 33.3047C84.0171 33.6001 83.9886 33.907 83.8741 34.1861C83.7596 34.4652 83.5643 34.7036 83.3132 34.8708C83.0622 35.038 82.7669 35.1263 82.4653 35.1243C82.0732 35.1258 81.6962 34.9733 81.4154 34.6996C81.1345 34.4258 80.9723 34.0528 80.9637 33.6606ZM81.2479 44.2384V37.187C81.2482 36.8618 81.3776 36.55 81.6076 36.3202C81.8377 36.0904 82.1495 35.9613 82.4746 35.9613C82.7996 35.9613 83.1113 36.0904 83.3411 36.3203C83.5709 36.5502 83.7 36.8619 83.7 37.187V44.2411C83.7 44.5661 83.5709 44.8779 83.3411 45.1078C83.1113 45.3376 82.7996 45.4667 82.4746 45.4667C82.1495 45.4667 81.8377 45.3377 81.6076 45.1078C81.3776 44.878 81.2482 44.5663 81.2479 44.2411V44.2384Z" fill="#767576"/>
<path d="M89.8585 39.7057C91.2465 39.9913 93.0521 40.6563 93.031 42.6912C93.031 43.6604 92.6701 44.4207 91.9285 44.9535C91.187 45.4864 90.2934 45.7337 89.2095 45.7337C87.8717 45.7337 86.827 45.3811 86.0753 44.6759C85.9467 44.5528 85.8487 44.4012 85.7893 44.2334C85.7299 44.0655 85.7107 43.886 85.7334 43.7094C85.756 43.5328 85.8198 43.3639 85.9196 43.2165C86.0194 43.069 86.1524 42.9471 86.308 42.8605L86.4573 42.7772C86.6709 42.6618 86.9168 42.6209 87.1561 42.6609C87.3955 42.7008 87.6147 42.8195 87.7792 42.998C88.1136 43.3391 88.5882 43.511 89.2108 43.511C90.0859 43.511 90.5234 43.2466 90.5234 42.6939C90.5234 42.1808 89.762 41.9005 88.7931 41.648C87.3866 41.287 85.6206 40.6973 85.6206 38.7206C85.6206 37.795 85.9616 37.0467 86.6464 36.5151C87.3311 35.9836 88.2048 35.6967 89.2319 35.6967C90.1152 35.6847 90.9801 35.9497 91.7052 36.4543C91.8644 36.5658 91.9926 36.7161 92.0776 36.8909C92.1627 37.0658 92.2017 37.2594 92.1912 37.4536C92.1806 37.6477 92.1207 37.8359 92.0171 38.0005C91.9136 38.1651 91.7698 38.3005 91.5994 38.394C91.3935 38.5038 91.1591 38.5484 90.9273 38.522C90.6955 38.4955 90.4772 38.3993 90.3013 38.2459C90.0003 38.0003 89.6202 37.8725 89.2319 37.8863C88.6041 37.8863 88.1295 38.1904 88.1295 38.6664C88.1295 39.1741 88.8896 39.4584 89.8585 39.7057Z" fill="#767576"/>
<path d="M102.556 36.7399C103.24 37.4434 103.582 38.3941 103.582 39.6303V44.2409C103.582 44.566 103.453 44.8778 103.223 45.1076C102.993 45.3375 102.682 45.4666 102.357 45.4666C102.196 45.4668 102.036 45.4352 101.887 45.3737C101.738 45.3122 101.603 45.2219 101.489 45.1081C101.375 44.9943 101.285 44.8591 101.223 44.7103C101.162 44.5615 101.13 44.402 101.13 44.2409V39.9344C101.13 38.6611 100.39 37.9762 99.2488 37.9762C97.9746 37.9762 97.1576 38.7563 97.1576 40.3338V44.2409C97.1576 44.566 97.0285 44.8778 96.7987 45.1076C96.5689 45.3375 96.2572 45.4666 95.9323 45.4666C95.7712 45.4668 95.6117 45.4352 95.4629 45.3737C95.3141 45.3122 95.1789 45.2219 95.0649 45.1081C94.951 44.9943 94.8606 44.8591 94.799 44.7103C94.7373 44.5615 94.7056 44.402 94.7056 44.2409V33.3841C94.7056 33.2231 94.7373 33.0636 94.799 32.9148C94.8606 32.766 94.951 32.6308 95.0649 32.517C95.1789 32.4031 95.3141 32.3129 95.4629 32.2514C95.6117 32.1898 95.7712 32.1583 95.9323 32.1584C96.2572 32.1584 96.5689 32.2876 96.7987 32.5174C97.0285 32.7473 97.1576 33.0591 97.1576 33.3841V37.0255C97.7472 36.1317 98.6976 35.6941 99.9904 35.6941C101.041 35.6941 101.891 36.0365 102.556 36.7399Z" fill="#767576"/>
<path d="M14.4442 37.495C10.279 36.3808 6.62199 33.8711 4.08368 30.385C1.54537 26.8988 0.279424 22.6472 0.497203 18.34C0.961179 8.898 8.53813 1.1511 17.9657 0.503215C20.5447 0.31985 23.1338 0.669696 25.5717 1.53096C28.0096 2.39222 30.244 3.74644 32.1358 5.50924C34.0276 7.27204 35.5362 9.40565 36.5676 11.7771C37.599 14.1486 38.1312 16.7071 38.1308 19.2933V46.2746C38.1303 46.331 38.1132 46.3861 38.0816 46.4329C38.0499 46.4796 38.0052 46.516 37.953 46.5375C37.9008 46.559 37.8434 46.5645 37.788 46.5535C37.7326 46.5425 37.6818 46.5154 37.6417 46.4756C31.8493 40.827 27.8401 38.127 19.3021 38.127C17.6623 38.1271 16.0295 37.9147 14.4442 37.495Z" fill="#FBCC0A"/>
<g opacity="0.4">
<path opacity="0.4" d="M49.2743 52.1889C51.258 52.717 52.9966 53.918 54.193 55.5864C55.3894 57.2549 55.9693 59.2872 55.8334 61.336C55.5624 65.5671 52.2221 69.0921 48.004 69.5576C46.7636 69.7002 45.507 69.5788 44.3168 69.2014C43.1265 68.8241 42.0295 68.1993 41.0977 67.3679C40.1659 66.5366 39.4203 65.5177 38.9099 64.3778C38.3996 63.238 38.1359 62.0031 38.1362 60.7542V48.4192C38.1364 48.3633 38.153 48.3086 38.1839 48.2619C38.2147 48.2152 38.2586 48.1786 38.31 48.1565C38.3614 48.1345 38.4182 48.1279 38.4732 48.1377C38.5283 48.1475 38.5794 48.1732 38.62 48.2116C41.2122 50.7027 43.1038 51.894 46.9941 51.894C47.7637 51.8934 48.5301 51.9925 49.2743 52.1889Z" fill="#FBCC0A"/>
</g>
<path d="M45.355 11.2713C45.5698 11.2769 45.7834 11.2391 45.9833 11.1602C46.1831 11.0814 46.3651 10.9632 46.5183 10.8125C46.8207 10.5045 46.9901 10.09 46.9901 9.65823C46.9901 9.22648 46.8207 8.81198 46.5183 8.50392C46.3652 8.35305 46.1833 8.23455 45.9834 8.1555C45.7836 8.07645 45.5699 8.03846 45.355 8.04379C45.1412 8.03784 44.9286 8.07784 44.7316 8.16109C44.5346 8.24435 44.3577 8.36892 44.2129 8.5264C43.9235 8.83214 43.7622 9.23718 43.7622 9.65823C43.7622 10.0793 43.9235 10.4843 44.2129 10.7901C44.3578 10.9473 44.5347 11.0716 44.7318 11.1546C44.9288 11.2377 45.1413 11.2775 45.355 11.2713Z" fill="#FBCC0A"/>
<path d="M44.0952 24.8188C44.0952 25.4561 44.6517 25.9717 45.3391 25.9717H45.5056C46.1917 25.9717 46.7495 25.4561 46.7495 24.8188V14.9021C46.2558 15.0651 45.7724 15.2581 45.3021 15.4799C44.9512 15.6355 44.6516 15.8874 44.438 16.2063C44.2244 16.5253 44.1055 16.8983 44.0952 17.2821V24.8188ZM45.5096 12.1995H45.4078C44.6861 12.1995 44.0952 12.7469 44.0952 13.4159V15.9453C44.5988 15.1877 45.4475 14.9457 46.1758 14.6747C46.3421 14.6149 46.4861 14.5057 46.5886 14.3618C46.6912 14.2179 46.7473 14.0461 46.7495 13.8694V13.3419C46.7495 12.7072 46.1943 12.1929 45.5096 12.1929V12.1995ZM44.0952 24.8188C44.0952 25.4561 44.6517 25.9717 45.3391 25.9717H45.5056C46.1917 25.9717 46.7495 25.4561 46.7495 24.8188V14.9021C46.2558 15.0651 45.7724 15.2581 45.3021 15.4799C44.9512 15.6355 44.6516 15.8874 44.438 16.2063C44.2244 16.5253 44.1055 16.8983 44.0952 17.2821V24.8188Z" fill="#FBCC0A"/>
</svg>
