<svg width="850" height="203" viewBox="0 0 850 203" fill="none" xmlns="http://www.w3.org/2000/svg">
<path d="M311.84 158.441H302.738V154.3H325.739V158.441H316.637V183H311.84V158.441ZM361.478 183C360.412 183 359.551 182.686 358.895 182.057C358.266 181.401 357.952 180.554 357.952 179.515V154.3H378.985V158.441H362.749V166.231H377.755V170.413H362.749V178.859H378.985V183H361.478ZM421.144 183.328C419.122 183.328 417.345 182.891 415.814 182.016C414.284 181.114 413.095 179.857 412.247 178.244C411.4 176.604 410.976 174.718 410.976 172.586V164.714C410.976 162.582 411.4 160.71 412.247 159.097C413.122 157.457 414.338 156.2 415.896 155.325C417.454 154.423 419.258 153.972 421.308 153.972H425.654C427.595 153.972 429.317 154.396 430.82 155.243C432.324 156.063 433.485 157.238 434.305 158.769C435.125 160.272 435.535 162.022 435.535 164.017H430.82C430.82 162.268 430.342 160.86 429.385 159.794C428.429 158.728 427.185 158.195 425.654 158.195H421.308C419.641 158.195 418.302 158.81 417.29 160.04C416.279 161.27 415.773 162.883 415.773 164.878V172.422C415.773 174.445 416.265 176.071 417.249 177.301C418.233 178.504 419.532 179.105 421.144 179.105H425.572C427.158 179.105 428.442 178.504 429.426 177.301C430.41 176.098 430.902 174.54 430.902 172.627H435.617C435.617 174.759 435.194 176.631 434.346 178.244C433.526 179.857 432.351 181.114 430.82 182.016C429.317 182.891 427.568 183.328 425.572 183.328H421.144ZM468.324 154.3H473.121V166.477H487.307V154.3H492.063V183H487.307V170.659H473.121V183H468.324V154.3ZM526.332 154.3H530.637L545.151 175.292V154.3H549.825V183H545.479L531.006 162.09V183H526.332V154.3ZM593.777 183.328C591.699 183.328 589.868 182.891 588.283 182.016C586.697 181.114 585.467 179.857 584.593 178.244C583.718 176.604 583.281 174.718 583.281 172.586V164.714C583.281 162.582 583.718 160.71 584.593 159.097C585.467 157.457 586.697 156.2 588.283 155.325C589.868 154.423 591.699 153.972 593.777 153.972H598.123C600.2 153.972 602.031 154.423 603.617 155.325C605.229 156.2 606.473 157.457 607.348 159.097C608.222 160.71 608.66 162.582 608.66 164.714V172.586C608.66 174.718 608.222 176.604 607.348 178.244C606.473 179.857 605.229 181.114 603.617 182.016C602.031 182.891 600.2 183.328 598.123 183.328H593.777ZM598.123 179.105C599.817 179.105 601.198 178.49 602.264 177.26C603.33 176.03 603.863 174.417 603.863 172.422V164.878C603.863 162.883 603.33 161.27 602.264 160.04C601.225 158.81 599.845 158.195 598.123 158.195H593.818C592.096 158.195 590.702 158.81 589.636 160.04C588.597 161.27 588.078 162.883 588.078 164.878V172.422C588.078 174.417 588.597 176.03 589.636 177.26C590.702 178.49 592.096 179.105 593.818 179.105H598.123ZM645.635 183C644.542 183 643.681 182.686 643.052 182.057C642.423 181.428 642.109 180.595 642.109 179.556V154.3H646.906V178.818H662.486V183H645.635ZM703.147 183.328C701.07 183.328 699.239 182.891 697.653 182.016C696.068 181.114 694.838 179.857 693.963 178.244C693.089 176.604 692.651 174.718 692.651 172.586V164.714C692.651 162.582 693.089 160.71 693.963 159.097C694.838 157.457 696.068 156.2 697.653 155.325C699.239 154.423 701.07 153.972 703.147 153.972H707.493C709.571 153.972 711.402 154.423 712.987 155.325C714.6 156.2 715.844 157.457 716.718 159.097C717.593 160.71 718.03 162.582 718.03 164.714V172.586C718.03 174.718 717.593 176.604 716.718 178.244C715.844 179.857 714.6 181.114 712.987 182.016C711.402 182.891 709.571 183.328 707.493 183.328H703.147ZM707.493 179.105C709.188 179.105 710.568 178.49 711.634 177.26C712.7 176.03 713.233 174.417 713.233 172.422V164.878C713.233 162.883 712.7 161.27 711.634 160.04C710.596 158.81 709.215 158.195 707.493 158.195H703.188C701.466 158.195 700.072 158.81 699.006 160.04C697.968 161.27 697.448 162.883 697.448 164.878V172.422C697.448 174.417 697.968 176.03 699.006 177.26C700.072 178.49 701.466 179.105 703.188 179.105H707.493ZM760.91 183.328C758.86 183.328 757.056 182.891 755.498 182.016C753.967 181.114 752.778 179.857 751.931 178.244C751.083 176.604 750.66 174.718 750.66 172.586V164.714C750.66 162.582 751.083 160.71 751.931 159.097C752.805 157.457 754.022 156.2 755.58 155.325C757.165 154.423 758.983 153.972 761.033 153.972H765.543C767.511 153.972 769.246 154.382 770.75 155.202C772.253 155.995 773.415 157.129 774.235 158.605C775.055 160.054 775.465 161.735 775.465 163.648H770.75C770.75 162.008 770.271 160.696 769.315 159.712C768.358 158.701 767.101 158.195 765.543 158.195H761.033C759.365 158.195 758.012 158.81 756.974 160.04C755.962 161.243 755.457 162.855 755.457 164.878V172.422C755.457 174.445 755.949 176.071 756.933 177.301C757.944 178.504 759.27 179.105 760.91 179.105H765.584C767.169 179.105 768.467 178.545 769.479 177.424C770.49 176.303 770.996 174.868 770.996 173.119V171.725H763.042V167.543H775.711V173.119C775.711 175.114 775.287 176.891 774.44 178.449C773.592 179.98 772.403 181.182 770.873 182.057C769.342 182.904 767.579 183.328 765.584 183.328H760.91ZM815.762 171.889L805.143 154.3H810.35L818.14 167.502L825.93 154.3H831.137L820.518 171.889V183H815.762V171.889Z" fill="#262626"/>
<path d="M390.812 115.496C390.812 116.59 390.598 117.605 390.168 118.543C389.777 119.48 389.23 120.301 388.527 121.004C387.863 121.668 387.062 122.195 386.125 122.586C385.188 122.977 384.191 123.172 383.137 123.172C382.199 123.172 381.242 122.996 380.266 122.645C379.328 122.293 378.488 121.727 377.746 120.945L322.082 62.8203V122H306.848V44.4805C306.848 42.918 307.277 41.5117 308.137 40.2617C309.035 38.9727 310.168 38.0156 311.535 37.3906C312.98 36.8047 314.465 36.668 315.988 36.9805C317.512 37.2539 318.82 37.957 319.914 39.0898L375.578 97.1562V37.9766H390.812V115.496ZM423.918 122H408.684V37.9766H423.918V122ZM539.523 122H524.172V71.9609L497.16 119.48C496.496 120.691 495.559 121.609 494.348 122.234C493.176 122.859 491.906 123.172 490.539 123.172C489.211 123.172 487.961 122.859 486.789 122.234C485.656 121.609 484.758 120.691 484.094 119.48L456.965 71.9609V122H441.73V44.4805C441.73 42.7227 442.238 41.1602 443.254 39.793C444.309 38.4258 445.676 37.5078 447.355 37.0391C448.176 36.8438 448.996 36.7852 449.816 36.8633C450.637 36.9023 451.418 37.0781 452.16 37.3906C452.941 37.6641 453.645 38.0742 454.27 38.6211C454.895 39.1289 455.422 39.7539 455.852 40.4961L490.539 100.789L525.227 40.4961C526.125 39.0117 527.355 37.957 528.918 37.332C530.52 36.707 532.18 36.6094 533.898 37.0391C535.539 37.5078 536.887 38.4258 537.941 39.793C538.996 41.1602 539.523 42.7227 539.523 44.4805V122ZM641.125 103.543C641.125 105.418 640.793 107.43 640.129 109.578C639.504 111.727 638.449 113.719 636.965 115.555C635.52 117.391 633.625 118.934 631.281 120.184C628.938 121.395 626.066 122 622.668 122H564.836C563.742 122 562.727 121.805 561.789 121.414C560.852 121.023 560.031 120.496 559.328 119.832C558.664 119.129 558.137 118.309 557.746 117.371C557.355 116.434 557.16 115.418 557.16 114.324V45.6523C557.16 44.5977 557.355 43.6016 557.746 42.6641C558.137 41.7266 558.664 40.9062 559.328 40.2031C560.031 39.5 560.852 38.9531 561.789 38.5625C562.727 38.1719 563.742 37.9766 564.836 37.9766H615.812C617.688 37.9766 619.699 38.3086 621.848 38.9727C623.996 39.6367 625.988 40.7109 627.824 42.1953C629.699 43.6406 631.242 45.5352 632.453 47.8789C633.703 50.2227 634.328 53.0938 634.328 56.4922V59.3633C634.328 62.0586 633.879 64.9688 632.98 68.0938C632.082 71.1797 630.637 74.1094 628.645 76.8828C630.363 77.9375 631.965 79.207 633.449 80.6914C634.973 82.1758 636.301 83.8945 637.434 85.8477C638.566 87.8008 639.465 90.0078 640.129 92.4688C640.793 94.9297 641.125 97.6445 641.125 100.613V103.543ZM625.891 100.613C625.891 98.6211 625.578 96.8438 624.953 95.2812C624.328 93.6797 623.449 92.3125 622.316 91.1797C621.184 90.0469 619.816 89.1875 618.215 88.6016C616.613 87.9766 614.816 87.6641 612.824 87.6641H578.488V72.3125H605.969C607.961 72.3125 609.758 72.0195 611.359 71.4336C612.961 70.8086 614.328 69.9297 615.461 68.7969C616.594 67.6641 617.453 66.3164 618.039 64.7539C618.664 63.1523 618.977 61.3555 618.977 59.3633V56.4922C618.977 54.3047 617.922 53.2109 615.812 53.2109H572.395V106.766H622.668C622.941 106.766 623.273 106.746 623.664 106.707C624.055 106.668 624.406 106.551 624.719 106.355C625.031 106.16 625.305 105.828 625.539 105.359C625.773 104.891 625.891 104.246 625.891 103.426V100.613ZM736.281 114.324C736.281 115.418 736.086 116.434 735.695 117.371C735.305 118.309 734.758 119.129 734.055 119.832C733.352 120.496 732.531 121.023 731.594 121.414C730.656 121.805 729.66 122 728.605 122H694.27C691.027 122 687.746 121.648 684.426 120.945C681.105 120.242 677.883 119.168 674.758 117.723C671.672 116.238 668.762 114.363 666.027 112.098C663.293 109.832 660.891 107.156 658.82 104.07C656.789 100.945 655.188 97.3906 654.016 93.4062C652.844 89.3828 652.258 84.9102 652.258 79.9883V37.9766H667.492V79.9883C667.492 84.2852 668.078 87.918 669.25 90.8867C670.461 93.8555 671.984 96.3359 673.82 98.3281C675.656 100.32 677.668 101.883 679.855 103.016C682.043 104.148 684.113 104.988 686.066 105.535C688.059 106.082 689.797 106.434 691.281 106.59C692.805 106.707 693.801 106.766 694.27 106.766H721.047V37.9766H736.281V114.324ZM834.777 97.2734C834.777 100.281 834.387 102.996 833.605 105.418C832.863 107.801 831.867 109.91 830.617 111.746C829.367 113.582 827.902 115.145 826.223 116.434C824.543 117.723 822.805 118.777 821.008 119.598C819.211 120.418 817.375 121.023 815.5 121.414C813.664 121.805 811.926 122 810.285 122H751.516V106.766H810.285C813.215 106.766 815.48 105.906 817.082 104.188C818.723 102.469 819.543 100.164 819.543 97.2734C819.543 95.8672 819.328 94.5781 818.898 93.4062C818.469 92.2344 817.844 91.2188 817.023 90.3594C816.242 89.5 815.266 88.8359 814.094 88.3672C812.961 87.8984 811.691 87.6641 810.285 87.6641H775.246C772.785 87.6641 770.129 87.2344 767.277 86.375C764.426 85.4766 761.77 84.0508 759.309 82.0977C756.887 80.1445 754.855 77.5859 753.215 74.4219C751.613 71.2578 750.812 67.3906 750.812 62.8203C750.812 58.25 751.613 54.4023 753.215 51.2773C754.855 48.1133 756.887 45.5547 759.309 43.6016C761.77 41.6094 764.426 40.1836 767.277 39.3242C770.129 38.4258 772.785 37.9766 775.246 37.9766H827.102V53.2109H775.246C772.355 53.2109 770.09 54.0898 768.449 55.8477C766.848 57.6055 766.047 59.9297 766.047 62.8203C766.047 65.75 766.848 68.0742 768.449 69.793C770.09 71.4727 772.355 72.3125 775.246 72.3125H810.285H810.402C812.043 72.3516 813.781 72.5859 815.617 73.0156C817.453 73.4062 819.27 74.0312 821.066 74.8906C822.902 75.75 824.641 76.8438 826.281 78.1719C827.922 79.4609 829.367 81.0234 830.617 82.8594C831.906 84.6953 832.922 86.8047 833.664 89.1875C834.406 91.5703 834.777 94.2656 834.777 97.2734Z" fill="#262626"/>
<path fill-rule="evenodd" clip-rule="evenodd" d="M144.629 7.6167L111.055 41.1911L122.492 52.6281L156.066 19.0538C157.988 17.0995 160.551 16.1384 163.114 16.1384C165.677 16.1384 168.208 17.0995 170.162 19.0538L221.325 70.1842C223.183 72.0744 224.24 74.5732 224.24 77.2643C224.24 79.1865 223.696 81.0126 222.67 82.6144C222.286 83.2124 221.838 83.7784 221.325 84.3123L211.426 94.1796L200.501 105.104L211.938 116.509L222.831 105.585L241.508 124.262C242.373 125.127 242.886 126.28 242.886 127.53C242.886 128.747 242.373 129.9 241.508 130.765L215.526 156.779C215.185 157.164 214.832 157.537 214.469 157.9L191.371 180.999C194.638 183.049 198.419 184.17 202.391 184.17C207.902 184.17 213.124 181.992 217.032 178.084L252.945 142.202C256.853 138.262 259 133.072 259 127.53C259 121.987 256.853 116.765 252.945 112.857L234.204 94.1155C238.208 89.4062 240.387 83.4794 240.387 77.2643C240.387 70.2803 237.664 63.7128 232.73 58.7792L181.6 7.6167C171.38 -2.5389 154.817 -2.5389 144.629 7.6167ZM209.888 153.351C210.208 153.031 210.507 152.7 210.785 152.358C210.817 152.358 210.817 152.358 210.817 152.358C210.817 152.358 210.817 152.347 210.817 152.326C214.213 148.514 216.039 143.644 216.039 138.486C216.039 133.841 214.533 129.42 211.778 125.8C211.201 125.031 210.571 124.305 209.888 123.621L173.238 86.9714C169.265 82.9989 163.979 80.8204 158.373 80.8204C156.098 80.8204 153.856 81.1728 151.741 81.8776C149.595 82.5824 147.577 83.6396 145.751 85.0171C144.96 85.6152 144.213 86.2666 143.508 86.9714L104.135 126.344C100.803 126.152 97.3753 127.305 94.8124 129.868C90.071 134.61 90.071 142.331 94.8124 147.072C99.5538 151.846 107.275 151.846 112.016 147.072C114.579 144.509 115.764 141.113 115.572 137.749L154.945 98.3764C155.682 97.6075 156.675 97.127 157.732 96.9988C157.946 96.9561 158.159 96.9348 158.373 96.9348C159.686 96.9348 160.904 97.4473 161.833 98.3764L198.483 135.026C199.38 135.955 199.892 137.173 199.892 138.486C199.892 139.768 199.38 141.017 198.483 141.914L161.833 178.564C160.904 179.493 159.686 180.006 158.373 180.006C157.092 180.006 155.842 179.493 154.945 178.564L141.394 165.045L129.989 176.45L143.508 190.001C147.481 193.974 152.767 196.152 158.373 196.152C163.979 196.152 169.265 193.974 173.238 190.001L197.842 165.397L209.888 153.351ZM132.039 165.301L156.034 141.305C159.366 141.498 162.794 140.344 165.357 137.781C170.098 133.008 170.098 125.319 165.357 120.546C160.583 115.804 152.895 115.804 148.121 120.546C145.558 123.109 144.405 126.537 144.597 129.868L136.14 138.358L135.947 138.55L120.602 153.864L114.002 160.495L91.9931 182.505C87.4439 187.054 80.0434 187.054 75.4942 182.505L19.5583 126.569C15.0091 121.987 15.0091 114.587 19.5583 110.038L75.4942 54.1018C77.7688 51.8272 80.7483 50.7059 83.7277 50.7059C86.7391 50.7059 89.7185 51.8272 91.9931 54.1018L95.0686 57.1773L129.604 91.7448L138.959 82.3901C139.632 81.7174 140.368 81.0446 141.137 80.4359L106.506 45.7723L103.398 42.6968C102.907 42.2056 102.394 41.725 101.86 41.2551C90.968 31.8684 74.4051 32.349 64.0572 42.6968L8.12128 98.6327C-2.70709 109.461 -2.70709 127.113 8.12128 137.974L64.0572 193.91C69.5035 199.324 76.6156 202.047 83.7277 202.047C90.8718 202.047 97.9839 199.324 103.398 193.91L132.039 165.301Z" fill="url(#paint0_linear_10_3)"/>
<defs>
<linearGradient id="paint0_linear_10_3" x1="0.00768879" y1="0.000319121" x2="259.013" y2="0.000319121" gradientUnits="userSpaceOnUse">
<stop stop-color="#5E5EFD"/>
<stop offset="1" stop-color="#7A4DDB"/>
</linearGradient>
</defs>
</svg>
