<svg width="59" height="58" viewBox="0 0 59 58" fill="none" xmlns="http://www.w3.org/2000/svg">
<path d="M28.9737 57.6747C44.9755 57.6747 57.9474 44.7638 57.9474 28.8374C57.9474 12.9109 44.9755 0 28.9737 0C12.972 0 0 12.9109 0 28.8374C0 44.7638 12.972 57.6747 28.9737 57.6747Z" fill="#C10000"/>
<path d="M10.9527 52.3508C10.5838 52.3508 9.05653 50.8417 8.29659 50.0854C7.67684 49.4686 6.78039 48.5763 6.78039 48.1981L6.86893 41.49L6.66604 38.2809L6.32663 34.4661L6.15695 33.6215L4.86578 33.0819C4.36042 32.8871 3.86761 32.6615 3.39017 32.4063L2.93273 31.7233C2.91065 31.6121 2.89954 31.499 2.89954 31.3855C2.90631 31.0263 3.03651 30.6803 3.26843 30.4053C5.34905 30.1138 6.36723 29.7541 6.32295 29.3257C6.42312 29.0442 6.46941 28.7466 6.45946 28.4482C6.41951 27.519 6.27221 26.5975 6.02045 25.7018L5.20517 22.4926L3.10243 15.2779C3.05818 15.1238 3.03581 14.9644 3.03603 14.8042C3.03603 13.5804 4.24602 12.6575 6.66604 12.0357C8.3164 11.6073 10.0145 11.3878 11.72 11.3822C16.8862 11.3966 22.0374 11.9392 27.0922 13.0015C30.8919 13.7897 33.7756 14.5436 35.743 15.2632C39.7911 16.749 41.8153 18.4943 41.8153 20.499C41.8153 22.2125 39.4517 23.7656 34.7249 25.1583L28.3465 27.064C27.4858 27.3088 25.3486 27.8937 21.935 28.819C18.3616 29.7982 16.5859 30.3611 16.608 30.508C16.6769 30.8238 17.1293 31.2289 17.9656 31.7233L19.5592 32.4576L22.0346 33.4379L40.631 40.0213C40.9593 40.1003 41.2784 40.2135 41.5828 40.359C41.8287 40.4717 42.3033 40.6516 43.0067 40.8989L44.9398 41.6075C45.5497 41.8107 46.6811 42.239 48.3337 42.8925L50.7095 43.9059L54.749 45.7638C54.84 46.1456 54.4219 46.3366 53.4947 46.3366C52.8021 46.3197 52.1111 46.2634 51.4252 46.1678L48.8797 45.595C48.7445 45.5729 47.6475 45.3282 45.589 44.8606L39.3472 43.3919L34.6289 42.3785L32.2531 41.7029L28.8593 40.6234L25.8048 39.7128L22.7171 38.7326C19.323 37.6506 16.1112 36.6605 13.0813 35.7621C12.7419 36.0999 12.4308 37.4402 12.1479 39.7827C11.8602 42.1363 11.1777 52.1379 10.9527 52.3508ZM31.0284 22.7424C32.8828 21.9542 33.7436 21.2566 33.6107 20.6495L33.5444 20.4806C32.6122 19.1073 29.3006 17.9105 23.6097 16.8897C21.8882 16.5739 20.2024 16.3488 18.5521 16.2141L15.4312 15.9424L12.716 15.8067C10.1411 15.6793 8.4626 16.0403 7.68052 16.8897C7.5891 17.1239 7.5416 17.3728 7.54033 17.6241C7.53768 17.8416 7.57389 18.058 7.64731 18.263C7.82106 18.5756 8.06424 18.8447 8.35834 19.0496C8.65241 19.2543 8.98965 19.3898 9.34427 19.4453C10.2262 18.915 11.2323 18.6239 12.2624 18.6007C14.1388 18.6007 15.077 19.422 15.077 21.0644C15.0073 22.131 14.7669 23.1795 14.365 24.1707L13.6494 26.1534C13.4405 26.6131 13.3702 27.1233 13.4465 27.6221L13.8522 27.7909L14.258 28.0627C21.2526 26.2929 26.8426 24.5194 31.0284 22.7424Z" fill="white"/>
</svg>
