<svg width="212" height="70" viewBox="0 0 212 70" fill="none" xmlns="http://www.w3.org/2000/svg">
<path d="M10.7042 68.1582H8.96646L7.6458 62.4845L6.32514 68.1582H4.58744L2.5022 59.8135H4.2399L5.47367 65.4872L6.82908 59.8135H8.46253L9.80055 65.5608L11.0865 59.8135H12.8242L10.7042 68.1582Z" fill="#231F20"/>
<path d="M13.6238 59.7397H19.5146V61.2871H15.3441V63.1292H19.1149V64.474H15.292V66.5187H19.5494V68.1582H13.6238V59.7397Z" fill="#231F20"/>
<path d="M31.2788 68.1582H29.5411L28.203 62.4845L26.9345 68.1582H25.1968L23.1116 59.7397H24.8493L26.0657 65.4134L27.4385 59.7397H29.0545L30.4099 65.4871L31.6958 59.7397H33.4335L31.2788 68.1582Z" fill="#231F20"/>
<path d="M34.2327 59.7397H35.9704V68.1582H34.2327V59.7397Z" fill="#231F20"/>
<path d="M37.4998 59.7397H39.2375L42.5217 65.2661V59.7397H44.1378V68.1582H42.4001L39.1158 62.6319V68.1582H37.4998V59.7397Z" fill="#231F20"/>
<path d="M56.232 68.1582H54.4943L53.1563 62.4845L51.8357 68.1582H50.0979L48.0127 59.8135H49.7504L51.0015 65.4872L52.3743 59.8135H53.9904L55.3284 65.5608L56.6143 59.8135H58.352L56.232 68.1582Z" fill="#231F20"/>
<path d="M59.082 59.7397H60.8197V68.1582H59.082V59.7397Z" fill="#231F20"/>
<path d="M64.1387 61.2871H61.7754V59.7397H68.2223V61.2871H65.859V68.1582H64.1213L64.1387 61.2871Z" fill="#231F20"/>
<path d="M69.126 59.7397H70.8637V62.945H74.0437V59.7397H75.7814V68.1582H74.0437V64.474H70.8637V68.1582H69.126V59.7397Z" fill="#231F20"/>
<path d="M80.3689 59.7397H82.1066V68.1582H80.3689V59.7397Z" fill="#231F20"/>
<path d="M83.6187 59.7397H85.3564L88.6406 65.2661V59.7397H90.3609V68.1582H88.6232L85.339 62.6319V68.1582H83.7229L83.6187 59.7397Z" fill="#231F20"/>
<path d="M93.5231 61.2871H91.1772V59.7397H97.6241V61.2871H95.2609V68.1582H93.5231V61.2871Z" fill="#231F20"/>
<path d="M98.5278 59.7397H104.419V61.2871H100.248V63.1292H104.071V64.474H100.248V66.5187H104.506V68.1582H98.5278V59.7397Z" fill="#231F20"/>
<path d="M111.352 67.1445C111.094 67.5338 110.739 67.8399 110.327 68.0287C109.971 68.195 109.586 68.2827 109.197 68.2866C108.635 68.2993 108.077 68.1797 107.564 67.9366C107.1 67.7267 106.685 67.4124 106.347 67.0155C106.012 66.614 105.757 66.1438 105.6 65.6339C105.408 65.0924 105.314 64.5176 105.322 63.9392C105.315 63.3549 105.41 62.7743 105.6 62.226C105.758 61.7052 106.012 61.223 106.347 60.8076C106.688 60.4141 107.102 60.1004 107.564 59.8866C108.077 59.6434 108.635 59.5239 109.197 59.5366C109.598 59.5394 109.997 59.6078 110.379 59.7392C110.745 59.8623 111.087 60.0559 111.387 60.3102C111.709 60.5671 111.977 60.8937 112.172 61.2685C112.366 61.6432 112.484 62.0575 112.516 62.4839H110.865C110.782 62.0703 110.568 61.6995 110.257 61.4339C109.949 61.1975 109.577 61.0746 109.197 61.0839C108.853 61.0711 108.512 61.1537 108.207 61.3234C107.94 61.4779 107.713 61.6993 107.546 61.9681C107.369 62.247 107.245 62.5599 107.181 62.8892C107.097 63.2319 107.056 63.585 107.06 63.9392C107.054 64.2874 107.095 64.6347 107.181 64.9708C107.249 65.2932 107.372 65.5994 107.546 65.8734C107.737 66.1688 107.998 66.4048 108.304 66.557C108.609 66.7092 108.948 66.7721 109.284 66.7392C109.764 66.7745 110.238 66.6092 110.605 66.2787C110.942 65.9199 111.14 65.4401 111.161 64.9339H109.423V63.5708H112.725V68.1576H111.63L111.352 67.1445Z" fill="#231F20"/>
<path d="M114.045 59.7395H118.285C118.613 59.7311 118.938 59.7938 119.241 59.9237C119.515 60.0319 119.764 60.2016 119.971 60.4211C120.167 60.6322 120.32 60.8827 120.423 61.1579C120.542 61.4354 120.601 61.7374 120.597 62.0421C120.606 62.4861 120.504 62.9247 120.301 63.3132C120.079 63.6949 119.742 63.9868 119.345 64.1421C119.537 64.1888 119.716 64.2835 119.867 64.4185C120.01 64.553 120.128 64.7156 120.214 64.8974C120.307 65.0753 120.372 65.2682 120.405 65.4685C120.405 65.6711 120.405 65.8737 120.492 66.0948C120.579 66.3158 120.492 66.3895 120.492 66.5553C120.492 66.7211 120.492 66.9237 120.492 67.1079C120.484 67.2859 120.484 67.4642 120.492 67.6421C120.531 67.7946 120.596 67.9382 120.683 68.0658H118.946C118.891 67.9247 118.855 67.7757 118.841 67.6237C118.831 67.4581 118.831 67.2919 118.841 67.1263V66.5921C118.86 66.4208 118.86 66.2477 118.841 66.0763C118.824 65.7228 118.696 65.3856 118.477 65.1185C118.215 64.8863 117.878 64.7737 117.538 64.8053H115.8V68.1579H114.063L114.045 59.7395ZM115.783 63.4237H117.677C117.995 63.4512 118.311 63.3527 118.563 63.1474C118.677 63.028 118.764 62.8835 118.818 62.7242C118.872 62.5649 118.892 62.3948 118.876 62.2263C118.89 62.0635 118.869 61.8994 118.815 61.7463C118.761 61.5933 118.675 61.4551 118.563 61.3421C118.311 61.1368 117.995 61.0384 117.677 61.0658H115.783V63.4237Z" fill="#231F20"/>
<path d="M122.004 59.7397H123.742V68.1582H122.004V59.7397Z" fill="#231F20"/>
<path d="M126.991 61.2871H124.628V59.7397H131.092V61.2871H128.729V68.1582H126.991V61.2871Z" fill="#231F20"/>
<path d="M134.029 64.8424L131.127 59.7397H133.091L134.933 63.0371L136.67 59.7397H138.599L135.68 64.8792V68.1582H133.942L134.029 64.8424Z" fill="#231F20"/>
<path d="M146.767 67.2551C146.474 67.562 146.133 67.8115 145.759 67.9919C145.374 68.1656 144.96 68.2534 144.542 68.2498C144.206 68.2517 143.871 68.1957 143.552 68.084C143.251 67.9776 142.973 67.8085 142.735 67.5867C142.508 67.3697 142.325 67.1066 142.196 66.813C142.067 66.4738 142.002 66.1106 142.005 65.7446C142.008 65.468 142.055 65.1939 142.144 64.934C142.244 64.6923 142.379 64.4686 142.544 64.2709C142.708 64.0695 142.895 63.8902 143.1 63.7367C143.31 63.584 143.531 63.4485 143.76 63.3314C143.563 63.0727 143.388 62.7952 143.239 62.5025C143.083 62.2109 143.005 61.8797 143.013 61.5446C143.017 61.2763 143.077 61.0123 143.187 60.7709C143.298 60.5383 143.451 60.3316 143.639 60.163C143.836 59.9951 144.06 59.8643 144.299 59.7761C144.545 59.6872 144.804 59.6436 145.064 59.6472C145.352 59.6434 145.639 59.6869 145.915 59.7761C146.165 59.8498 146.397 59.982 146.593 60.163C146.791 60.3328 146.951 60.5466 147.062 60.7893C147.176 61.0553 147.236 61.3443 147.236 61.6367C147.253 62.0923 147.111 62.5386 146.836 62.8893C146.551 63.2292 146.21 63.5102 145.828 63.7183L146.836 65.0446C146.925 64.8973 146.989 64.7354 147.027 64.5656C147.079 64.3979 147.113 64.2251 147.131 64.0498H148.487C148.451 64.4219 148.369 64.7873 148.244 65.1367C148.122 65.4903 147.946 65.8201 147.722 66.113L149.321 68.084H147.41L146.767 67.2551ZM144.594 64.4735C144.456 64.5423 144.322 64.6224 144.195 64.713C144.059 64.79 143.936 64.8895 143.83 65.0077C143.729 65.1216 143.647 65.2523 143.587 65.3946C143.551 65.5457 143.551 65.704 143.587 65.8551C143.552 66.0002 143.552 66.1521 143.587 66.2972C143.648 66.4227 143.73 66.5351 143.83 66.6288C143.934 66.7359 144.058 66.8177 144.195 66.8683C144.327 66.9251 144.469 66.9563 144.612 66.9604C144.873 66.9608 145.13 66.8911 145.359 66.7577C145.574 66.6105 145.767 66.4305 145.932 66.2235L144.594 64.4735ZM145.863 61.6183C145.864 61.5161 145.847 61.4147 145.811 61.3198C145.775 61.225 145.722 61.1386 145.654 61.0656C145.591 60.9904 145.513 60.9303 145.427 60.889C145.34 60.8477 145.246 60.8263 145.151 60.8261C144.965 60.8266 144.786 60.8986 144.647 61.0288C144.578 61.0969 144.524 61.1799 144.488 61.272C144.452 61.3641 144.435 61.4633 144.438 61.563C144.43 61.8091 144.504 62.0503 144.647 62.2446C144.775 62.4437 144.914 62.6344 145.064 62.8156C145.263 62.6754 145.449 62.515 145.62 62.3367C145.713 62.2318 145.783 62.1065 145.825 61.9695C145.867 61.8326 145.88 61.6874 145.863 61.5446V61.6183Z" fill="#231F20"/>
<path d="M159.573 68.8764L158.461 67.7895C158.19 67.9561 157.897 68.0802 157.592 68.158C157.252 68.2504 156.901 68.2938 156.55 68.2869C155.993 68.3012 155.441 68.1816 154.934 67.9369C154.466 67.7343 154.05 67.4189 153.717 67.0159C153.377 66.615 153.117 66.145 152.953 65.6343C152.775 65.0894 152.687 64.5161 152.692 63.9395C152.688 63.3571 152.776 62.778 152.953 62.2264C153.116 61.7045 153.376 61.2223 153.717 60.808C154.055 60.411 154.47 60.0968 154.934 59.8869C155.448 59.6564 156 59.5376 156.559 59.5376C157.117 59.5376 157.669 59.6564 158.183 59.8869C158.647 60.0968 159.062 60.411 159.4 60.808C159.741 61.2223 160.001 61.7045 160.164 62.2264C160.341 62.778 160.429 63.3571 160.425 63.9395C160.43 64.5161 160.342 65.0894 160.164 65.6343C160 66.145 159.74 66.615 159.4 67.0159L160.39 67.9737L159.573 68.8764ZM157.314 65.008L158.218 65.8737C158.371 65.63 158.488 65.3629 158.566 65.0816C158.663 64.7098 158.709 64.3253 158.705 63.9395C158.7 63.5859 158.659 63.2339 158.583 62.8895C158.504 62.5654 158.381 62.2552 158.218 61.9685C158.032 61.6668 157.772 61.4249 157.466 61.269C157.159 61.1131 156.819 61.0492 156.48 61.0843C156.136 61.0715 155.795 61.154 155.49 61.3237C155.227 61.4833 155.001 61.7037 154.83 61.9685C154.659 62.2512 154.536 62.5627 154.465 62.8895C154.389 63.2339 154.348 63.5859 154.343 63.9395C154.347 64.2871 154.388 64.6332 154.465 64.9711C154.539 65.291 154.663 65.5958 154.83 65.8737C155.006 66.1288 155.231 66.342 155.49 66.5001C155.795 66.6698 156.136 66.7523 156.48 66.7395H156.88C156.987 66.7357 157.09 66.6971 157.175 66.629L156.446 65.9106L157.314 65.008Z" fill="#231F20"/>
<path d="M168.297 64.9345C168.332 65.3998 168.269 65.8677 168.113 66.3041C167.956 66.7406 167.711 67.1348 167.393 67.4582C166.67 67.9964 165.809 68.2852 164.925 68.2852C164.042 68.2852 163.181 67.9964 162.458 67.4582C162.144 67.1323 161.902 66.7373 161.749 66.3011C161.596 65.8649 161.535 65.3983 161.572 64.9345V59.7397H163.309V64.9345C163.292 65.1552 163.292 65.377 163.309 65.5976C163.348 65.8078 163.425 66.0079 163.535 66.1871C163.673 66.3605 163.845 66.499 164.039 66.5924C164.306 66.6985 164.589 66.7485 164.873 66.7397C165.105 66.7676 165.34 66.7426 165.561 66.6663C165.783 66.5901 165.987 66.4644 166.159 66.2976C166.419 65.8988 166.541 65.4176 166.507 64.9345V59.7397H168.245L168.297 64.9345Z" fill="#231F20"/>
<path d="M171.928 59.7397H173.666L176.62 68.0845H174.883L174.292 66.2424H171.355L170.729 68.0845H168.992L171.928 59.7397ZM171.772 64.8608H173.77L172.78 61.8029L171.772 64.8608Z" fill="#231F20"/>
<path d="M177.333 59.7397H179.07V66.5371H182.893V68.1582H177.333V59.7397Z" fill="#231F20"/>
<path d="M183.867 59.7397H185.604V68.1582H183.867V59.7397Z" fill="#231F20"/>
<path d="M188.871 61.2871H186.508V59.7397H192.885V61.2871H190.522V68.1582H188.784L188.871 61.2871Z" fill="#231F20"/>
<path d="M195.909 64.8424L193.007 59.7397H194.953L196.795 63.0371L198.62 59.7397H200.549L197.629 64.8792V68.1582H195.892L195.909 64.8424Z" fill="#231F20"/>
<path d="M205.866 48.3556H206.613L207.725 50.3082H208.524L207.291 48.3372C207.443 48.3375 207.593 48.3047 207.733 48.2409C207.873 48.1771 207.998 48.0836 208.103 47.9662C208.207 47.8488 208.287 47.71 208.339 47.5584C208.391 47.4067 208.412 47.2454 208.403 47.0845C208.403 46.2003 207.899 45.8135 206.908 45.8135H205.275V50.3082H205.918L205.866 48.3556ZM205.866 46.3845H206.787C207.239 46.3845 207.725 46.4951 207.725 47.0661C207.725 47.6372 207.221 47.7845 206.665 47.7845H205.9L205.866 46.3845Z" fill="#C72127"/>
<path d="M206.787 44.0449C206.038 44.0486 205.308 44.2872 204.687 44.7306C204.066 45.1741 203.584 45.8026 203.3 46.5367C203.015 47.2708 202.943 48.0776 203.091 48.8554C203.239 49.6332 203.601 50.347 204.132 50.9068C204.662 51.4665 205.337 51.8472 206.072 52.0006C206.806 52.1541 207.567 52.0735 208.258 51.769C208.949 51.4645 209.54 50.9498 209.955 50.2898C210.371 49.6299 210.593 48.8542 210.593 48.0607C210.588 46.994 210.185 45.9726 209.472 45.22C208.759 44.4674 207.793 44.0449 206.787 44.0449ZM206.787 51.4133C206.172 51.4133 205.57 51.22 205.059 50.8576C204.547 50.4953 204.149 49.9803 203.913 49.3778C203.678 48.7753 203.616 48.1123 203.736 47.4727C203.856 46.8331 204.152 46.2455 204.588 45.7844C205.023 45.3232 205.577 45.0092 206.18 44.882C206.783 44.7547 207.409 44.82 207.977 45.0696C208.546 45.3192 209.031 45.7418 209.373 46.2841C209.715 46.8263 209.897 47.4638 209.897 48.116C209.884 48.9809 209.55 49.8054 208.968 50.4119C208.386 51.0184 207.603 51.3582 206.787 51.3581V51.4133Z" fill="#C72127"/>
<path fill-rule="evenodd" clip-rule="evenodd" d="M143.187 36.9705L156.081 6.37314C156.116 6.29702 156.17 6.23267 156.237 6.18717C156.305 6.14167 156.383 6.11678 156.463 6.11525H166.889C166.959 6.11468 167.028 6.13289 167.09 6.16818C167.152 6.20348 167.204 6.25472 167.242 6.31717C167.28 6.37961 167.303 6.45124 167.308 6.52543C167.313 6.59961 167.301 6.67395 167.271 6.74156L148.417 51.7258C148.386 51.8047 148.332 51.8717 148.264 51.9177C148.196 51.9638 148.116 51.9868 148.035 51.9837H138.339C138.261 51.9831 138.185 51.9583 138.12 51.9125C138.055 51.8667 138.004 51.8018 137.974 51.7258L119.189 6.74156C119.16 6.67395 119.147 6.59961 119.152 6.52543C119.157 6.45124 119.18 6.37961 119.218 6.31717C119.256 6.25472 119.309 6.20348 119.37 6.16818C119.432 6.13289 119.501 6.11468 119.571 6.11525H129.998C130.077 6.11874 130.154 6.14443 130.221 6.18971C130.289 6.235 130.343 6.29827 130.38 6.37314L143.187 36.9705Z" fill="#C72127"/>
<path d="M60.6112 13.8706H51.4188C51.1884 13.8706 51.0017 14.0685 51.0017 14.3127V51.5417C51.0017 51.7858 51.1884 51.9838 51.4188 51.9838H60.6112C60.8415 51.9838 61.0283 51.7858 61.0283 51.5417V14.3127C61.0283 14.0685 60.8415 13.8706 60.6112 13.8706Z" fill="#C72127"/>
<path fill-rule="evenodd" clip-rule="evenodd" d="M93.2799 13.8706H64.1038C63.9932 13.8706 63.8871 13.9172 63.8089 14.0001C63.7307 14.083 63.6868 14.1955 63.6868 14.3127V24.0574C63.6868 24.1747 63.7307 24.2872 63.8089 24.3701C63.8871 24.453 63.9932 24.4996 64.1038 24.4996H73.2615C73.3721 24.4996 73.4782 24.5461 73.5564 24.629C73.6346 24.7119 73.6786 24.8244 73.6786 24.9417V51.5785C73.6786 51.6958 73.7225 51.8082 73.8007 51.8911C73.8789 51.974 73.985 52.0206 74.0956 52.0206H83.2881C83.3987 52.0206 83.5048 51.974 83.583 51.8911C83.6612 51.8082 83.7051 51.6958 83.7051 51.5785V24.9417C83.7051 24.8244 83.7491 24.7119 83.8273 24.629C83.9055 24.5461 84.0116 24.4996 84.1222 24.4996H93.2799C93.3905 24.4996 93.4966 24.453 93.5748 24.3701C93.653 24.2872 93.6969 24.1747 93.6969 24.0574V14.3127C93.6969 14.1955 93.653 14.083 93.5748 14.0001C93.4966 13.9172 93.3905 13.8706 93.2799 13.8706Z" fill="#C72127"/>
<path fill-rule="evenodd" clip-rule="evenodd" d="M48.1866 51.1923L30.323 36.6397H37.7256C39.5691 36.6397 41.337 35.8634 42.6406 34.4815C43.9441 33.0997 44.6764 31.2255 44.6764 29.2712C44.6764 23.9107 44.6764 16.9291 44.6764 13.3186C44.6764 11.3644 43.9441 9.4902 42.6406 8.10836C41.337 6.72651 39.5691 5.9502 37.7256 5.9502C27.6643 5.9502 9.31411 5.9502 1.72034 5.9502C1.66864 5.95014 1.61747 5.9612 1.56992 5.98271C1.52237 6.00422 1.47941 6.03573 1.44368 6.07533C1.40794 6.11494 1.38016 6.16182 1.362 6.21313C1.34384 6.26445 1.33569 6.31913 1.33804 6.37388C1.33804 10.9976 1.33804 47.0291 1.33804 51.4134C1.33799 51.4706 1.34888 51.5272 1.37005 51.5799C1.39121 51.6325 1.42221 51.6801 1.46118 51.7196C1.50015 51.7592 1.54629 51.7901 1.5968 51.8102C1.64732 51.8304 1.70117 51.8395 1.7551 51.837H11.0866C11.1926 51.837 11.2942 51.7924 11.3692 51.7129C11.4441 51.6335 11.4862 51.5257 11.4862 51.4134V37.0818C11.4862 36.9645 11.5302 36.8521 11.6084 36.7692C11.6866 36.6862 11.7927 36.6397 11.9033 36.6397H16.5082C16.8388 36.6402 17.1587 36.7641 17.4118 36.9897L33.1554 51.5791C33.4027 51.8172 33.725 51.9486 34.059 51.9476H47.9607C48.0375 51.935 48.1094 51.9 48.1685 51.8464C48.2275 51.7928 48.2712 51.7228 48.2947 51.6442C48.3182 51.5657 48.3205 51.4818 48.3014 51.4019C48.2823 51.3221 48.2425 51.2495 48.1866 51.1923ZM11.9033 26.0291C11.8493 26.0292 11.7959 26.0177 11.7462 25.9952C11.6966 25.9728 11.6517 25.9399 11.6144 25.8986C11.577 25.8573 11.5479 25.8084 11.5289 25.7548C11.5099 25.7013 11.5013 25.6442 11.5036 25.587V17.0949C11.5036 16.9777 11.5476 16.8652 11.6258 16.7823C11.704 16.6994 11.8101 16.6528 11.9207 16.6528H31.8C32.5328 16.6528 33.2356 16.9614 33.7537 17.5107C34.2719 18.06 34.563 18.805 34.563 19.5818V23.0818C34.563 23.8586 34.2719 24.6036 33.7537 25.1529C33.2356 25.7021 32.5328 26.0107 31.8 26.0107C26.222 26.0107 13.9017 26.0107 11.9033 26.0291Z" fill="#C72127"/>
<path fill-rule="evenodd" clip-rule="evenodd" d="M194.779 13.8525H173.145C171.301 13.8525 169.533 14.6289 168.23 16.0107C166.926 17.3925 166.194 19.2667 166.194 21.221V44.671C166.194 46.6252 166.926 48.4994 168.23 49.8812C169.533 51.2631 171.301 52.0394 173.145 52.0394H194.779C196.623 52.0394 198.391 51.2631 199.694 49.8812C200.998 48.4994 201.73 46.6252 201.73 44.671V21.1657C201.716 19.2211 200.978 17.361 199.676 15.9911C198.374 14.6212 196.614 13.8525 194.779 13.8525ZM191.616 40.8762C191.616 40.9343 191.606 40.9918 191.585 41.0454C191.564 41.099 191.533 41.1478 191.494 41.1888C191.456 41.2299 191.41 41.2625 191.359 41.2847C191.308 41.3069 191.254 41.3183 191.199 41.3183H176.724C176.67 41.3183 176.615 41.3069 176.565 41.2847C176.514 41.2625 176.468 41.2299 176.429 41.1888C176.391 41.1478 176.36 41.099 176.339 41.0454C176.318 40.9918 176.307 40.9343 176.307 40.8762V24.9604C176.307 24.9024 176.318 24.8449 176.339 24.7912C176.36 24.7376 176.391 24.6889 176.429 24.6478C176.468 24.6068 176.514 24.5742 176.565 24.552C176.615 24.5298 176.67 24.5183 176.724 24.5183H191.147C191.258 24.5183 191.364 24.5649 191.442 24.6478C191.52 24.7307 191.564 24.8432 191.564 24.9604L191.616 40.8762Z" fill="#C72127"/>
<path fill-rule="evenodd" clip-rule="evenodd" d="M130.224 51.3762L115.14 14.1289C115.113 14.0494 115.063 13.9806 114.998 13.9313C114.933 13.8821 114.855 13.8546 114.775 13.8525H103.776C103.693 13.8534 103.613 13.8802 103.545 13.9293C103.477 13.9785 103.424 14.0479 103.394 14.1289L88.3102 51.3762C88.2847 51.443 88.275 51.5153 88.2819 51.587C88.2888 51.6586 88.3121 51.7274 88.3498 51.7873C88.3875 51.8472 88.4384 51.8964 88.4981 51.9307C88.5579 51.965 88.6246 51.9834 88.6925 51.9841H99.2404C99.3208 51.9848 99.3996 51.9608 99.4675 51.915C99.5353 51.8693 99.5892 51.8037 99.6227 51.7262L101.812 46.1999C101.845 46.1203 101.898 46.0522 101.966 46.0033C102.033 45.9544 102.113 45.9268 102.194 45.9236H116.426C116.508 45.9268 116.587 45.9544 116.655 46.0033C116.723 46.0522 116.776 46.1203 116.809 46.1999L118.998 51.7262C119.033 51.8023 119.088 51.8667 119.155 51.9122C119.222 51.9577 119.3 51.9826 119.38 51.9841H129.946C130.006 51.9713 130.063 51.9439 130.112 51.9038C130.161 51.8638 130.2 51.8123 130.227 51.7534C130.254 51.6945 130.268 51.6298 130.267 51.5644C130.267 51.4989 130.252 51.4345 130.224 51.3762ZM106 36.5104L108.919 29.4736C108.942 29.4228 108.977 29.3797 109.022 29.3496C109.067 29.3195 109.118 29.3035 109.171 29.3035C109.224 29.3035 109.276 29.3195 109.321 29.3496C109.365 29.3797 109.401 29.4228 109.423 29.4736L112.464 36.5104C112.481 36.554 112.488 36.6012 112.484 36.648C112.48 36.6948 112.465 36.7399 112.441 36.7796C112.417 36.8193 112.385 36.8523 112.347 36.876C112.308 36.8997 112.265 36.9133 112.221 36.9157H106.313C106.263 36.9269 106.211 36.9233 106.163 36.9054C106.115 36.8874 106.072 36.8558 106.04 36.814C106.008 36.7721 105.987 36.7217 105.98 36.6682C105.973 36.6146 105.98 36.5601 106 36.5104Z" fill="#C72127"/>
<path d="M189.097 3.35292C188.707 3.84705 188.163 4.17646 187.563 4.28126C186.964 4.38606 186.349 4.25928 185.83 3.92397C184.735 3.16871 183.102 2.2845 182.546 1.9345C181.445 1.23383 180.148 0.962659 178.879 1.16783C177.61 1.37299 176.448 2.04162 175.595 3.05819C174.604 4.21871 173.666 5.30555 173.423 5.61871C173.302 5.75249 173.234 5.9307 173.234 6.11608C173.234 6.30147 173.302 6.47968 173.423 6.61345L176.047 9.50555C176.111 9.57518 176.189 9.63046 176.274 9.6682C176.359 9.70594 176.45 9.72538 176.542 9.72538C176.634 9.72538 176.725 9.70594 176.81 9.6682C176.895 9.63046 176.973 9.57518 177.037 9.50555L178.393 8.06871C178.845 7.59525 179.438 7.30189 180.072 7.23813C180.705 7.17436 181.339 7.34411 181.868 7.71871L183.154 8.67661C184.54 9.68714 186.226 10.1302 187.897 9.92354C189.568 9.7169 191.112 8.8746 192.242 7.55292L194.38 4.9924C194.453 4.91029 194.494 4.80152 194.494 4.68845C194.494 4.57538 194.453 4.46661 194.38 4.3845L191.443 1.40029C191.365 1.32256 191.263 1.27924 191.156 1.27924C191.049 1.27924 190.947 1.32256 190.869 1.40029C190.748 1.63977 189.948 2.43187 189.097 3.35292Z" fill="#C72127"/>
</svg>
