<svg width="120" height="100" viewBox="0 0 120 100" fill="none" xmlns="http://www.w3.org/2000/svg">
	<path
		d="M56.4201 50.3877C57.8695 50.3877 59.0445 49.2133 59.0445 47.7645C59.0445 46.3157 57.8695 45.1413 56.4201 45.1413C54.9707 45.1413 53.7958 46.3157 53.7958 47.7645C53.7958 49.2133 54.9707 50.3877 56.4201 50.3877Z"
		fill="#3E5C5B" />
	<path
		d="M58.9635 36.2061C58.9635 36.1723 58.9568 36.1454 58.9568 36.1117C58.9568 36.0914 58.95 36.0712 58.9433 36.0442C58.8421 35.6396 58.4778 35.3362 58.046 35.3362C57.7896 35.3362 57.5603 35.4373 57.3984 35.6059C57.3849 35.6194 57.3781 35.6261 57.3714 35.6396C57.3511 35.6666 57.3309 35.6868 57.3107 35.7138C57.2229 35.8352 57.1622 35.97 57.142 36.1251C57.1015 36.314 57.088 36.5365 57.1285 36.7928C57.2567 37.6829 56.9598 38.9439 56.2245 40.0431C55.2935 41.4728 53.6811 42.4236 51.8393 42.4236C49.7142 42.4236 47.8859 41.1558 47.0696 39.3351C46.4625 38.1819 46.0442 36.6444 45.9497 34.6146L45.2346 4.26865C45.7406 3.97193 46.5704 3.68196 47.1169 3.39873C47.4947 3.20317 47.8927 3.00086 48.3042 2.81879C48.3177 2.81204 48.3312 2.8053 48.3447 2.79856C50.173 1.98933 52.2778 1.46333 54.0994 2.40743C55.3542 3.06155 56.1975 4.33608 56.2785 5.75897C56.3459 6.99304 55.8669 8.22036 55.0843 9.1712C55.0034 9.27236 54.9157 9.36677 54.828 9.45443C54.8212 9.46118 54.8145 9.46792 54.8077 9.47466C54.3422 10.1086 53.6001 10.5199 52.7636 10.5401C52.7433 10.5401 52.7231 10.5401 52.7029 10.5401C52.406 10.5536 52.1092 10.5132 51.8258 10.4053C51.7246 10.3648 51.6302 10.3176 51.5425 10.2637C51.0365 10.0141 50.8139 9.77812 50.3754 9.19818C50.1527 8.88798 49.9368 8.48336 49.7007 8.18665C49.6872 8.16642 49.667 8.14619 49.6535 8.12596C49.6198 8.08549 49.586 8.04503 49.5523 8.01131C49.3836 7.85621 49.1678 7.7618 48.9249 7.7618C48.5134 7.7618 48.176 8.0248 48.0479 8.3957C48.0411 8.43616 48.0344 8.48336 48.0276 8.52382C48.0141 8.59126 48.0074 8.65195 48.0074 8.71939C48.0074 9.00262 48.1356 9.25213 48.338 9.42072C49.1138 10.3716 50.2135 11.0459 51.4683 11.2684C51.4818 11.2684 51.4885 11.2684 51.502 11.2752C51.6504 11.3022 51.8056 11.3224 51.9608 11.3291C52.0687 11.3359 52.1834 11.3426 52.2913 11.3426C52.3183 11.3426 52.3386 11.3494 52.3656 11.3494C52.3723 11.3494 52.379 11.3494 52.3858 11.3494H52.3925C52.7434 11.3494 53.0874 11.3157 53.4247 11.2482C53.445 11.2415 53.4652 11.2415 53.4787 11.2347C53.5934 11.2078 53.7013 11.1808 53.8093 11.1471C53.8767 11.1268 53.9442 11.1066 54.0117 11.0864C54.0252 11.0796 54.0319 11.0796 54.0454 11.0729C54.1129 11.0459 54.1803 11.0189 54.2545 10.992C54.3355 10.9582 54.4097 10.9313 54.4907 10.8976C54.5581 10.8638 54.6256 10.8301 54.6931 10.8031C54.8077 10.7424 54.9224 10.6885 55.0304 10.6211C55.0641 10.6008 55.0978 10.5806 55.1316 10.5604C55.2732 10.4727 55.4149 10.3716 55.5498 10.2704C55.5566 10.2704 55.5566 10.2637 55.5633 10.2637C56.0086 9.91974 56.3999 9.51512 56.7102 9.04982C57.2702 8.21362 57.6007 7.20883 57.6007 6.12987C57.6007 3.24363 55.2598 0.903621 52.3723 0.903621C52.3318 0.903621 52.2981 0.903621 52.2576 0.903621C50.6317 0.890134 49.0126 1.20034 47.4744 1.69936C47.2383 1.77354 47.0089 1.85446 46.7795 1.93538C45.9227 2.24559 45.0255 2.61648 44.1349 3.02109C44.108 3.03458 44.0877 3.04132 44.0607 3.05481C43.8044 3.16945 43.548 3.29083 43.2916 3.41222C43.2647 3.42571 43.2377 3.43919 43.2039 3.45268C42.3606 3.85729 41.5308 4.28888 40.7752 4.71372C39.4125 5.48923 38.0699 6.32543 36.8421 7.30324C36.8421 7.30324 36.8219 7.32347 36.7814 7.35045C36.3968 7.63368 36.0258 7.93039 35.6547 8.22711C35.6075 8.26083 35.567 8.30129 35.5198 8.335C35.142 8.63846 34.771 8.95541 34.4067 9.27236C33.8197 9.76464 33.3272 10.1962 33.199 10.3581V10.3783L33.3205 15.672L33.8467 15.4427L33.8872 15.4225C33.8872 15.4225 33.7792 15.2134 33.8534 14.6942C33.9277 14.1817 34.1503 13.7096 34.4539 13.2983C34.4876 13.2578 34.5146 13.2106 34.5483 13.1634C35.2702 12.2935 36.5183 10.8908 37.881 9.61628L37.7124 12.7385L37.456 17.4118L36.2484 39.4025C35.8504 42.6192 34.9801 46.5979 26.5606 46.9957C22.6207 46.9957 21.629 45.6268 21.629 45.6268C21.629 45.6268 21.7572 46.49 22.0338 47.7308C22.2901 48.8772 22.6747 50.3473 23.2076 51.7702V51.7634C23.2279 51.723 24.4017 49.1874 27.0598 48.7828C30.1834 48.3107 37.6449 46.7799 38.6704 38.9642C39.0752 35.8689 39.4327 29.0984 39.797 23.4473C40.8495 23.2854 42.2662 23.2113 43.4873 23.3259C43.7099 29.7862 43.7909 35.5047 44.2294 37.6155C45.8283 45.3098 58.0123 45.9437 58.9635 36.4219C58.9635 36.3881 58.9635 36.3612 58.9635 36.3274C58.9635 36.3072 58.9703 36.2802 58.9703 36.26C58.9703 36.2465 58.9635 36.2263 58.9635 36.2061ZM40.0129 20.5948C40.4244 14.0738 40.7078 10.1018 40.8562 7.20209C41.4971 6.71655 42.1785 6.23102 42.9071 5.74548C42.9678 8.76659 43.1702 13.5343 43.3928 20.4801C42.3876 20.4397 41.0788 20.4801 40.0129 20.5948Z"
		fill="#3E5C5B" />
	<path
		d="M58.4373 54.009V53.9483C58.4508 53.2402 59.031 52.6738 59.7393 52.6738C59.8743 52.6738 59.962 52.6738 59.962 52.6738V51.8646H58.4305H54.3962H52.4532V52.6738H53.0874C53.7688 52.6738 54.322 53.193 54.3827 53.8607V54.1034V74.7993V74.914V75.1568C54.322 75.8176 53.7688 76.3436 53.0874 76.3436L52.352 76.2627V77.1933C52.4397 77.2135 52.5274 77.2338 52.6151 77.2607C54.4097 77.6114 56.2447 77.8407 58.1202 77.9418C58.1674 77.9418 58.2146 77.9486 58.2619 77.9486C58.5924 77.9621 58.8825 77.9756 59.1254 77.9823C59.1524 77.9823 59.1794 77.9823 59.2064 77.9823C59.6719 77.9958 59.9485 77.9958 59.9485 77.9958V77.1259L59.456 77.0652C58.869 76.9371 58.4238 76.4178 58.4238 75.7907V75.7839L58.4373 54.009Z"
		fill="#3E5C5B" />
	<path d="M59.4695 77.0652C59.5572 77.0854 59.6517 77.0922 59.7461 77.0922L59.4695 77.0652Z" fill="#3E5C5B" />
	<path
		d="M49.0058 75.3591C49.0058 75.3591 49.0396 75.3659 49.1003 75.3726C49.0396 75.3659 49.0058 75.3591 49.0058 75.3591Z"
		fill="#3E5C5B" />
	<path
		d="M30.0553 58.8105C29.4076 59.2488 27.8627 59.5522 26.7091 57.9001C26.6551 57.8192 26.5944 57.7382 26.5404 57.6506C26.4122 57.4348 26.311 57.2325 26.2233 57.0369C26.1356 56.7739 26.0884 56.4907 26.0884 56.194C26.0884 54.7239 27.2825 53.5303 28.7532 53.5303C28.8409 53.5303 28.9219 53.537 29.0028 53.5438C29.239 53.591 29.4886 53.6584 29.7517 53.7461C29.8326 53.7798 29.9203 53.8135 30.0013 53.8472C30.7502 54.1439 31.4855 54.4676 32.2074 54.8048C32.2816 54.8385 32.3558 54.8722 32.4233 54.9127C32.4637 55.0341 32.4975 55.1555 32.5245 55.2836V56.8346V62.8229H32.5177C32.5177 63.5444 31.9308 64.1311 31.2089 64.1311C31.1347 64.1311 31.0605 64.1244 30.9863 64.1109L31.0065 64.1648L30.595 63.9828V64.529V64.5762C30.8581 64.8594 31.1145 65.1292 31.3708 65.3922C35.25 69.3708 38.097 71.0432 38.097 71.0432V69.7148L36.9568 68.4133L36.9636 68.4065L36.5858 67.5366H36.579C36.579 66.1002 36.579 61.3865 36.579 57.2257C39.8578 59.3365 42.7925 61.926 45.2886 64.8999V72.0211V72.4931V72.5673C45.2886 72.574 45.2886 72.5808 45.2886 72.5875C45.2616 73.127 44.9176 73.5721 44.4318 73.7474L44.3441 73.7676L44.0271 73.8283L43.5143 73.9295V74.2734V74.4757C46.7931 75.993 50.4159 76.8832 50.4159 76.8832V76.755V75.494C50.4159 75.494 50.3957 75.494 50.3687 75.4872C50.3012 75.4805 50.1595 75.467 49.9976 75.4468C49.4377 75.3052 49.0261 74.8061 49.0126 74.2127C49.0126 74.1925 49.0126 74.179 49.0126 74.1588C49.0126 74.1318 49.0194 74.0981 49.0194 74.0711H49.0126C49.0126 73.154 49.0126 71.7918 49.0126 70.1531C49.0126 68.7235 49.0126 67.078 49.0126 65.3315C49.0126 58.3654 49.0126 49.7471 49.0194 46.3619C49.0194 46.2607 49.0194 46.1663 49.0194 46.0787C49.0869 45.438 49.6198 44.939 50.2742 44.9188C50.3079 44.9188 50.3349 44.9188 50.3552 44.9188C50.4024 44.9188 50.4294 44.9188 50.4294 44.9188V44.177H43.5076V44.9188H43.9393H44.0203C44.7084 44.939 45.2616 45.492 45.2819 46.1798V46.254V61.3595C42.6845 58.9453 39.7566 56.8751 36.5723 55.2296C36.5723 53.7258 36.5723 52.4041 36.5723 51.4802C36.5723 51.4465 36.5723 51.4195 36.5723 51.3858C36.5993 50.6845 37.166 50.1248 37.8743 50.1248H38.097V49.2886H30.595V50.1248H31.2157C31.9375 50.1248 32.5245 50.7115 32.5245 51.433L32.5177 50.1248L32.5245 51.0419V53.301C31.3506 52.8761 30.3386 52.4783 29.4211 52.3771C29.212 52.3569 29.0096 52.3434 28.8072 52.3501C28.1595 52.3839 27.6063 52.5525 27.1408 52.7952C25.9197 53.4426 25.3193 54.6902 25.3328 55.931C25.3328 55.9579 25.326 55.9849 25.326 56.0119C25.326 56.3626 25.38 56.7065 25.4745 57.0302C25.6296 57.5562 25.8927 58.0282 26.2436 58.4261C26.4055 58.6082 26.5809 58.77 26.7765 58.9184C27.4377 59.4578 28.281 59.7613 29.2322 59.6399C30.1632 59.5725 30.993 59.1544 31.5935 58.5205C31.6407 58.4665 31.6879 58.4193 31.7351 58.3654C31.7554 58.3317 31.7756 58.2912 31.7891 58.2507C31.7891 58.244 31.7958 58.2373 31.7958 58.2305C31.8093 58.1901 31.8161 58.1428 31.8161 58.0956C31.8161 58.0552 31.8093 58.0215 31.8026 57.9877C31.8026 57.981 31.7958 57.9743 31.7958 57.9675C31.7891 57.9405 31.7756 57.9068 31.7689 57.8799L31.7621 57.8731C31.7486 57.8394 31.7284 57.8124 31.7081 57.7854C31.6879 57.7585 31.6609 57.7315 31.6339 57.7045C31.5395 57.6236 31.418 57.5696 31.2831 57.5696C31.2561 57.5696 31.2291 57.5764 31.2022 57.5764C31.1482 57.5831 31.0942 57.6034 31.0402 57.6303C31.0402 57.6303 31.0335 57.6303 31.0335 57.6371C30.8851 57.718 30.7771 57.8664 30.7569 58.0417C30.7704 58.0687 30.4263 58.5542 30.0553 58.8105ZM49.1003 75.3726C49.0396 75.3659 49.0059 75.3659 49.0059 75.3591C49.0059 75.3591 49.0396 75.3659 49.1003 75.3726Z"
		fill="#3E5C5B" />
	<path
		d="M86.9408 28.4172L86.3539 30.5212L86.3404 30.5617L86.2527 30.8786C86.0503 31.3304 85.5915 31.6474 85.0653 31.6474H82.1441C81.4425 31.6474 80.8758 31.0944 80.8421 30.4066C80.8421 30.3931 80.8353 30.3796 80.8353 30.3661V30.3189V23.8046C80.8353 23.0359 80.896 23.0022 81.4762 23.0022H83.5136C83.5204 23.0022 83.5204 23.0022 83.5271 23.0022C83.5339 23.0022 83.5339 23.0022 83.5406 23.0022H83.5743V23.0089C83.9926 23.0291 84.3299 23.3191 84.4244 23.717C84.4311 23.7574 84.4379 23.7979 84.4446 23.8451L84.4581 23.9463L84.6875 25.4433L85.1935 25.4164V17.9513L84.6875 17.9243L84.4986 19.4011C84.4986 19.4146 84.4986 19.4213 84.4986 19.4348C84.4986 19.5225 84.4784 19.6102 84.4581 19.6911C84.3502 20.0687 84.0061 20.3452 83.5946 20.3587C83.5878 20.3587 83.5811 20.3587 83.5676 20.3587C83.5541 20.3587 83.5541 20.3587 83.5406 20.3587H81.4695C80.8893 20.3587 80.8286 20.3587 80.8286 19.5292V13.1094V13.0824V13.0554C80.8421 12.3474 81.4222 11.7742 82.1306 11.7742H84.8966C85.4971 11.7742 85.9896 12.1788 86.1515 12.725C86.165 12.7722 86.1785 12.8127 86.1852 12.8599C86.2054 12.9341 86.2189 13.0082 86.2392 13.0824C86.3674 13.5882 86.5023 14.1816 86.617 14.7413L87.2039 14.775C87.123 13.4668 86.8936 10.0276 86.8936 10.0276H77.253V10.7289H77.3339H77.3677C77.4419 10.7289 77.5161 10.7424 77.5836 10.7626C77.9344 10.8503 78.2042 11.1403 78.2649 11.4977C78.2717 11.5381 78.2717 11.5719 78.2784 11.6123V11.7V32.2678H78.2649C78.2245 32.7264 77.8467 33.0905 77.3744 33.104V33.1107H76.9089L76.9426 33.4884H87.0487L87.7166 28.7814L86.9408 28.4172Z"
		fill="#3E5C5B" />
	<path
		d="M34.8789 31.6744C34.7305 29.9548 34.3797 28.0262 33.3475 26.4617C32.5851 25.295 31.445 24.324 29.7314 23.7912C29.4076 23.6901 29.1242 23.5687 28.8746 23.4406C28.5238 23.2787 28.2135 23.0494 27.9638 22.7595C26.7765 21.4647 27.3972 19.6642 28.2539 19.0505C28.3079 19.0101 28.3619 18.9831 28.4159 18.9494C28.7937 18.6729 29.2457 18.4976 29.7382 18.4571C29.7516 18.4571 29.7719 18.4571 29.7854 18.4571C29.8393 18.4503 29.9001 18.4503 29.954 18.4503C29.9608 18.4503 29.9608 18.4503 29.9675 18.4503C30.8243 18.4301 31.6137 18.8212 32.0859 19.5563C32.1061 19.5833 32.1264 19.617 32.1466 19.644C32.1534 19.6507 32.1601 19.6642 32.1669 19.6709C32.3625 19.9811 32.4974 20.3385 32.5447 20.7229L32.4704 17.3309L32.3895 13.8108L31.6541 14.5526C31.7958 14.7684 31.9645 15.8136 31.3573 16.198C31.2156 16.2857 31.02 16.3329 30.7973 16.3801C30.7569 16.3868 30.7231 16.3936 30.6826 16.4003C30.0417 16.5217 29.1715 16.6161 28.2809 17.1556C26.5741 18.1941 25.6971 19.59 25.4137 20.9994C25.3328 21.3636 25.2855 21.7345 25.2855 22.1256C25.2855 22.8943 25.4542 23.6159 25.7578 24.27C26.23 25.3827 27.0463 26.2796 28.0111 26.691C28.1595 26.7719 28.3147 26.8461 28.4766 26.9135C30.5747 28.0262 31.6879 30.1639 31.87 31.4721C31.9375 31.9374 31.9982 32.423 32.0454 32.9355C32.2073 34.5876 32.2478 36.4219 31.8768 38.0066C31.8768 38.0134 31.8768 38.0134 31.8768 38.0201C31.7823 38.6742 31.5597 39.2879 31.2291 39.8274C31.2156 39.8476 31.2021 39.8678 31.1886 39.8948C31.1347 39.9825 31.0739 40.0701 31.0065 40.1578C30.9862 40.1848 30.966 40.2118 30.9458 40.2387C30.885 40.3197 30.8176 40.4006 30.7501 40.4815C30.7299 40.5017 30.7096 40.5287 30.6894 40.5489C30.6152 40.6299 30.541 40.7108 30.4668 40.785C30.4533 40.7985 30.4398 40.8052 30.4263 40.8187C30.3453 40.8929 30.2644 40.9738 30.1767 41.0412C29.954 41.2233 29.7112 41.3851 29.4548 41.5268C29.4346 41.5402 29.4143 41.547 29.3941 41.5605C29.2929 41.6144 29.1917 41.6616 29.0838 41.7088C28.9488 41.7695 28.8139 41.8235 28.6722 41.8707C28.6655 41.8707 28.6655 41.8707 28.6587 41.8774C28.598 41.8976 28.5305 41.9179 28.4698 41.9314C28.4091 41.9516 28.3484 41.9651 28.2809 41.9786C28.1932 41.9988 28.1123 42.019 28.0246 42.0325C27.9301 42.0528 27.8424 42.0662 27.748 42.073C27.7075 42.0797 27.667 42.0865 27.6198 42.0865C27.4714 42.1 27.3162 42.1067 27.161 42.1067C25.5621 42.1067 24.1521 41.3177 23.2886 40.1039C23.2481 40.0432 23.2076 39.9757 23.1672 39.915C23.1199 39.8341 23.066 39.7599 23.0187 39.679C22.9918 39.6318 22.9715 39.5846 22.9513 39.5374C22.7421 39.1395 22.587 38.7147 22.4993 38.2629C22.4993 38.2629 22.4993 38.2629 22.4993 38.2561C22.4453 37.9662 22.4116 37.6627 22.4116 37.3592C22.4116 36.7051 22.5465 36.0847 22.7826 35.5183C22.8298 35.4171 22.8771 35.316 22.931 35.2148C23.093 34.9046 23.2819 34.6079 23.5045 34.3449C23.5112 34.3381 23.5112 34.3381 23.518 34.3314C23.6259 34.2033 23.7406 34.0819 23.8553 33.9672C23.8688 33.9538 23.8755 33.947 23.889 33.9335C24.0105 33.8189 24.1319 33.711 24.2601 33.6098C24.2601 33.6098 24.2601 33.6098 24.2668 33.6098C25.0696 32.9894 26.0749 32.6185 27.1678 32.6185C27.4849 32.6185 27.7884 32.6523 28.0853 32.7062C29.1445 33.0097 29.8798 33.7852 29.7989 34.7293C29.7516 35.3294 29.4008 35.7745 28.8746 35.9498C28.8071 35.9566 28.7397 35.9768 28.6857 36.0105C28.5373 36.0645 28.4766 36.2128 28.4766 36.3612C28.4766 36.3679 28.4766 36.3679 28.4766 36.3747C28.4766 36.5298 28.5575 36.6579 28.679 36.7321C28.679 36.7321 28.6857 36.7321 28.6857 36.7388C28.706 36.7523 28.7262 36.7591 28.7532 36.7726C28.7599 36.7726 28.7667 36.7793 28.7734 36.7793C28.7937 36.786 28.8139 36.7928 28.8409 36.7928C28.8476 36.7928 28.8544 36.7928 28.8611 36.7928C28.8746 36.7928 28.8949 36.7995 28.9083 36.7995C28.9151 36.7995 28.9286 36.7995 28.9353 36.7995C28.9488 36.7995 28.9623 36.7995 28.9758 36.7928C28.9826 36.7928 28.996 36.7928 29.0028 36.786C29.0635 36.7793 29.1242 36.7591 29.1849 36.7321C30.2171 36.2735 30.568 34.9923 30.2374 33.7447C29.8461 32.2948 28.4968 30.9192 26.1153 31.054C24.4355 31.371 22.985 32.3353 22.027 33.6705C21.0353 35.2755 20.6508 37.339 21.0151 39.0788C21.1972 39.8004 21.4941 40.4748 21.8988 41.0749C22.3846 41.7088 23.0052 42.4169 23.8485 42.9834C24.5974 43.4622 25.4542 43.7858 26.365 43.9207C26.9856 44.0016 27.6805 44.0084 28.4563 43.9005C28.5036 43.8937 28.544 43.887 28.5913 43.8803C28.625 43.8735 28.6587 43.8668 28.6925 43.86C35.4456 42.7271 35.088 34.1695 34.8789 31.6744Z"
		fill="#3E5C5B" />
	<path
		d="M71.3904 1.19359L71.3837 1.18684C70.2638 0.856411 69.1304 0.573182 67.9768 0.337158V2.05676C69.1439 2.23884 70.284 2.50858 71.3837 2.85924V31.7621C71.3837 32.4836 70.7967 33.0703 70.0749 33.0703H69.461V33.4884H71.3837H74.4398H76.3693V33.0703H75.7486C75.0267 33.0703 74.4398 32.4836 74.4398 31.7621V4.06634C77.0979 5.33412 79.4726 7.08745 81.4695 9.21166V5.83989C78.3729 3.83706 74.9863 2.26581 71.3904 1.19359Z"
		fill="#3E5C5B" />
	<path
		d="M81.6583 66.6195L81.5369 66.9701C81.5436 66.9701 81.5504 66.9769 81.5571 66.9769C81.6044 66.9904 81.6516 67.0039 81.6988 67.0241C81.7191 67.0308 81.7393 67.0443 81.7595 67.0578C82.0159 67.1994 82.1913 67.4692 82.1913 67.7861C82.1913 67.9817 82.1238 68.157 82.0091 68.2986C80.2079 70.9488 72.6452 74.4555 69.4609 74.4555C68.0306 74.4555 66.8702 73.2956 66.8702 71.8659C66.8702 71.8659 66.8702 71.8659 66.8702 71.8592C66.8635 71.7715 66.8567 71.6839 66.85 71.6029V43.4824V43.3205C66.8905 42.6529 67.4302 42.1269 68.0981 42.0999H68.1993H68.9481V41.4054H61.3584V42.0999H62.114H62.2152C62.9034 42.1269 63.4498 42.6799 63.4701 43.3745V43.4352L63.4363 75.8177C63.4363 76.0065 63.3958 76.1818 63.3284 76.3437C63.3149 76.3706 63.3014 76.3909 63.2946 76.4178C63.2744 76.465 63.2474 76.5122 63.2204 76.5527C63.1935 76.5932 63.1597 76.6336 63.1327 76.6674C63.1125 76.6943 63.0923 76.7213 63.072 76.7415C63.0383 76.782 62.9978 76.8157 62.9573 76.8494C62.9371 76.8697 62.9101 76.8899 62.8899 76.9034C62.8494 76.9303 62.8022 76.9573 62.7617 76.9843C62.7347 76.9978 62.7077 77.018 62.674 77.0315C62.6268 77.0517 62.5863 77.0652 62.5391 77.0787C62.5053 77.0922 62.4716 77.1057 62.4379 77.1124C62.3906 77.1259 62.3434 77.1327 62.2894 77.1327C62.2422 77.1394 62.2017 77.1461 62.1545 77.1461C62.1478 77.1461 62.1343 77.1461 62.1343 77.1461V77.1529V77.9823C62.1343 77.9823 64.5023 77.8407 66.5936 77.5035C70.6887 76.8427 79.7356 74.2397 83.716 69.4585C83.8037 69.3573 83.8914 69.2562 83.9926 69.1685C84.3029 68.8516 84.7212 68.6493 85.1867 68.6223C85.3014 68.6088 85.4161 68.6088 85.497 68.6223L85.5578 68.2986L81.6583 66.6195Z"
		fill="#3E5C5B" />
	<path
		d="M92.4526 54.3665C92.4458 54.3395 92.4324 54.3193 92.4256 54.299C92.1962 53.6652 91.9264 53.1459 91.6295 52.7076C90.5704 51.17 89.0457 50.6845 86.8801 50.1585C86.2931 50.0776 85.7804 49.7674 85.4363 49.3156C85.4161 49.2886 85.3959 49.2616 85.3824 49.2414C85.3554 49.2009 85.3284 49.1537 85.3014 49.1133C85.1328 48.8368 85.0316 48.5401 85.0046 48.2366C84.9978 48.1557 84.9911 48.0748 84.9911 47.9871C84.9911 47.832 85.0046 47.6836 85.0383 47.5353C85.1193 47.1307 85.3014 46.7665 85.6185 46.4496C85.6387 46.4293 85.6657 46.4091 85.686 46.3889C85.6995 46.3754 85.7197 46.3552 85.7332 46.3417C85.7399 46.3349 85.7399 46.3349 85.7467 46.3282C85.9356 46.1596 86.1582 46.0315 86.4011 45.9371C86.4281 45.9303 86.4483 45.9168 86.4753 45.9101C86.5158 45.8966 86.5495 45.8831 86.59 45.8764C88.8838 45.202 91.7375 48.3445 91.7375 48.3445L92.5538 48.5738L92.3649 44.0219L91.5891 43.7184C91.5891 43.7252 91.5958 43.7791 91.5958 43.7994C91.5958 44.15 91.3799 44.4535 91.0696 44.5749C90.8672 44.6693 90.6378 44.6962 90.4084 44.6086C89.0929 44.0893 86.7654 43.4082 84.3974 44.5884C81.2468 46.1529 81.9687 49.936 84.5998 51.4263C85.4161 50.9003 86.3876 50.5901 87.4333 50.5901C86.3876 50.5901 85.4161 50.9003 84.5998 51.4263C84.8224 51.5544 85.0585 51.6623 85.3149 51.7567C87.386 52.5053 88.7826 53.827 89.1873 55.2903C89.5921 56.7604 89.808 58.8577 89.4707 60.638C89.1199 62.4655 88.1889 63.9625 86.2662 64.0974C84.5458 64.2188 83.5136 63.5714 83.0886 62.8971C83.7497 62.3778 84.5121 61.5012 84.9236 60.901C84.9911 60.7998 85.0653 60.6717 85.1462 60.5099C85.4768 59.8288 85.8344 58.6824 85.8276 57.6101C85.8276 57.482 85.8209 57.3539 85.8074 57.2325C85.6725 56.1603 84.8764 55.2971 83.8374 55.0611C83.77 55.0476 83.7025 55.0408 83.6283 55.0341C83.0886 54.9801 82.6298 55.0611 82.2386 55.2364C81.5774 55.5331 81.1186 56.1063 80.8286 56.8279C80.1134 58.6419 80.471 61.3865 81.375 62.9443C80.2888 63.6658 78.8923 64.2323 77.1248 64.4211H77.0168C75.5866 64.4211 74.5004 63.2545 74.5004 61.8248C74.5004 61.8248 74.5004 61.8248 74.5004 61.8181C74.4937 61.7304 74.4869 61.6428 74.4802 61.5618V40.8052V40.6434C74.5207 39.9758 75.0604 39.4498 75.7283 39.4228H75.8295H76.5783V38.7282H68.9819V39.4228H69.7375H69.8387C70.5268 39.4498 71.0733 40.0027 71.0935 40.6973V40.758L71.0598 64.6032C71.0598 64.792 71.0193 64.9673 70.9518 65.1292C70.9383 65.1562 70.9249 65.1764 70.9181 65.2034C70.8979 65.2506 70.8709 65.2978 70.8439 65.3382C70.8169 65.3787 70.7832 65.4191 70.7562 65.4529C70.7359 65.4798 70.7157 65.5068 70.6955 65.527C70.6617 65.5675 70.6213 65.6012 70.5808 65.6349C70.5605 65.6552 70.5336 65.6754 70.5133 65.6889C70.4728 65.7159 70.4256 65.7428 70.3851 65.7698C70.3582 65.7833 70.3312 65.8035 70.2974 65.817C70.2502 65.8372 70.2097 65.8507 70.1625 65.8642C70.1288 65.8777 70.095 65.8912 70.0613 65.8979C70.0141 65.9114 69.9669 65.9182 69.9129 65.9182C69.8657 65.9249 69.8252 65.9317 69.778 65.9317C69.7712 65.9317 69.7577 65.9317 69.7577 65.9317V65.9384V66.7679C69.7577 66.7679 72.1257 66.6262 74.2171 66.2891L74.2441 66.2688C74.3655 66.2486 74.4869 66.2284 74.6016 66.2014C77.6308 65.5945 80.2754 64.583 81.8742 63.6793C82.3735 64.4009 84.1748 65.6687 86.9948 65.4192C92.999 64.8797 93.08 56.1333 92.4526 54.3665ZM82.3667 62.0541C82.0227 61.3258 81.8068 60.4222 81.7258 59.5523C81.6449 58.6891 81.7056 57.8529 81.9147 57.246C81.9485 57.1516 81.9889 57.0572 82.0294 56.9762C82.0901 56.8616 82.1711 56.7537 82.2655 56.666C82.4814 56.457 82.7648 56.3289 83.0886 56.3086C83.1156 56.3086 83.1426 56.3019 83.1696 56.3019C83.8914 56.3019 84.4649 56.8886 84.4784 57.6101C84.4918 58.5947 84.3232 59.2083 84.2152 59.6264C84.195 59.7006 84.168 59.7815 84.141 59.8625C84.1545 59.876 84.168 59.8827 84.1883 59.8962C84.168 59.9029 84.1478 59.9097 84.1275 59.9164C83.824 60.6717 83.1628 61.4809 82.3667 62.0541Z"
		fill="#3E5C5B" />
	<path
		d="M99.2126 44.9389C99.1181 44.9389 99.0237 44.9052 98.9562 44.858C98.8348 44.7771 98.7605 44.6355 98.7673 44.4736L99.0439 33.5626C99.0439 33.5626 99.0439 33.5356 99.0372 33.4952C98.936 32.7534 98.8145 32.0183 98.6661 31.2833C98.4907 30.4201 98.2276 29.3007 97.8565 27.9385C97.418 26.4347 96.8985 24.9713 96.2914 23.5484L95.9541 25.005C96.3318 25.5917 96.595 26.2526 96.7164 26.9674C96.7299 27.0281 96.7434 27.0888 96.7501 27.1427C96.8176 27.5069 96.8513 27.8778 96.8513 28.2487V37.865L95.1175 31.6677L92.6146 22.7122L90.928 16.697C90.9212 16.6835 90.9212 16.67 90.9212 16.6565C90.9145 16.6296 90.9078 16.5958 90.901 16.5689C90.901 16.5621 90.901 16.5554 90.901 16.5486C90.8943 16.5082 90.8875 16.4677 90.8875 16.4272C90.8875 16.4003 90.8943 16.3733 90.8943 16.3396C90.8943 16.3126 90.901 16.2856 90.901 16.2654C90.901 16.2519 90.9078 16.2317 90.9078 16.2182C90.9482 16.0159 91.0494 15.8271 91.2113 15.6855C91.2788 15.6248 91.353 15.5843 91.4272 15.5843C91.4272 15.5843 91.434 15.5843 91.434 15.5776L91.4475 15.1999L91.4407 15.1932H87.7707V15.5776C88.0608 15.5776 88.3239 15.6989 88.5128 15.8945C88.6005 15.9822 88.6679 16.0833 88.7152 16.198C88.7691 16.3261 88.8029 16.4677 88.8029 16.6161V23.3394L88.7961 34.0346C88.8029 41.2367 82.2589 40.2252 80.7005 39.706C79.7964 39.4025 79.0341 38.836 78.5956 38.2763C78.5618 38.2291 78.5214 38.1887 78.4944 38.1415C78.4741 38.1145 78.4539 38.0808 78.4337 38.047C78.3595 37.9122 78.3055 37.7571 78.3055 37.5885C78.3055 37.4604 78.3325 37.339 78.3797 37.2243H78.3729C78.4539 37.0895 78.5079 36.9276 78.5079 36.759C78.5079 36.4016 78.3055 36.0982 78.0154 35.9431C77.8872 35.8756 77.7388 35.8284 77.5836 35.8284C77.4689 35.8284 77.361 35.8486 77.2598 35.8891C76.909 36.0172 76.6526 36.3544 76.6526 36.759C76.6526 36.8804 76.6796 37.0018 76.7201 37.1097C76.7336 37.1367 76.7471 37.1636 76.7606 37.1974C77.1653 37.9594 77.6916 38.6472 78.319 39.2406C79.5333 40.3871 81.112 41.1491 82.8661 41.3379C82.893 41.3379 82.92 41.3446 82.9403 41.3446C83.0212 41.3514 83.0954 41.3581 83.1764 41.3649C83.2371 41.3716 83.3046 41.3716 83.3653 41.3784C83.3923 41.3784 83.426 41.3784 83.453 41.3784C83.6824 41.3851 83.905 41.3851 84.1344 41.3716C84.2153 41.3649 84.2963 41.3581 84.3772 41.3514C84.4582 41.3446 84.5392 41.3379 84.6201 41.3312C86.7047 41.0951 88.5465 40.0431 89.8081 38.4989C89.8553 38.4382 89.9025 38.3775 89.9498 38.31C90.2129 37.9257 90.4288 37.5008 90.5772 37.0557C90.6919 36.7118 90.7728 36.3477 90.8066 35.9835C90.8808 35.2687 90.928 34.21 90.955 32.9017C90.9617 32.5443 90.9887 30.4943 90.9887 30.4943L90.955 24.5262L93.2892 32.7601L96.8513 45.3031H98.882H99.2328V44.912H99.2126V44.9389Z"
		fill="#3E5C5B" />
	<path
		d="M68.3612 35.4575C68.233 35.4441 68.1116 35.4238 67.9969 35.3969C67.9699 35.3901 67.9429 35.3834 67.9227 35.3766C66.8703 35.0934 66.0877 34.1763 66 33.0568C65.9932 33.0029 65.9932 32.9422 65.9932 32.8883C65.9932 32.868 65.9932 32.8478 65.9932 32.8208C65.9932 32.7062 65.9932 32.5848 65.9932 32.4432C65.9932 32.4095 65.9932 32.3825 65.9932 32.3488C65.9595 26.6235 65.9932 0.0202306 65.9932 0C65.9662 0.0202306 65.8718 0.0472048 65.8381 0.0674354C65.5547 0.296716 64.6237 1.07222 63.686 1.91517C61.4259 4.09333 59.5976 6.71657 58.3496 9.65001C57.3511 12.1788 56.7777 14.8223 56.5415 17.1691C56.4876 17.7085 56.4471 18.2345 56.4268 18.7403C56.3999 19.4416 56.4133 20.1025 56.4673 20.6959L51.3603 15.2606L51.3536 32.369C51.3536 32.369 51.3536 32.4904 51.3603 32.6522C51.3603 32.659 51.3603 32.659 51.3603 32.6657C51.3603 32.7736 51.3603 32.8883 51.3603 33.0029C51.3063 33.9335 50.7599 34.736 49.9773 35.1541L49.984 35.1676C49.7614 35.2822 49.5185 35.3699 49.2622 35.4171C48.6348 35.6059 47.8859 35.6801 47.0494 35.5924V36.1791H55.5768V35.5924C55.3609 35.6194 55.1518 35.5857 54.9764 35.5115C54.4839 35.3227 54.1263 34.8506 54.1263 34.2909C54.1263 34.2505 54.1263 34.0279 54.1263 33.9537V20.1767L56.8721 23.1034L57.513 23.7912C57.513 23.7912 57.4388 22.3414 57.621 20.1564C57.7356 18.2548 58.0392 16.4003 58.5115 14.6133C59.1726 11.9428 60.252 9.07006 62.0264 6.57495C62.2355 6.27824 62.4514 5.98827 62.6808 5.70504V33.3266L62.6875 33.947C62.6875 34.0347 62.6808 34.2572 62.6808 34.2842C62.6808 34.4325 62.6538 34.5674 62.6065 34.7023C62.4851 35.0664 62.2085 35.3564 61.8509 35.498C61.6688 35.5789 61.4597 35.6126 61.237 35.5857V36.1724H64.0705H70.1962V35.5317C69.5283 35.5654 68.9144 35.5385 68.3612 35.4575Z"
		fill="#3E5C5B" />
	<path
		d="M4.08832 92.8046C4.24348 92.8046 4.36492 92.8923 4.49985 93.1351C4.71573 93.533 4.85066 93.9848 4.85066 94.3085C4.85066 94.5243 4.74272 94.6524 4.56056 94.6524C4.38516 94.6524 4.22324 94.5377 4.06133 94.3017L3.99387 94.2073C3.62956 93.7218 3.21128 93.506 2.67157 93.506C1.94296 93.506 1.4977 93.8566 1.4977 94.4501C1.4977 94.7131 1.5854 94.9289 1.76081 95.0975C1.93622 95.2728 2.36798 95.5088 3.06286 95.8123C3.10334 95.8325 3.17755 95.8595 3.26526 95.8999C3.84545 96.1427 4.26372 96.3787 4.51334 96.608C4.86415 96.9317 5.0598 97.3835 5.0598 97.8893C5.0598 99.211 4.09506 99.9865 2.44219 99.9865C1.65961 99.9865 0.904017 99.8112 0.445262 99.5482C0.188899 99.3998 0 98.7862 0 98.0646C0 97.7679 0.114689 97.6061 0.323827 97.6061C0.478994 97.6061 0.627415 97.7477 0.789328 98.0376L0.904017 98.2399C1.31555 98.9615 1.7743 99.265 2.43545 99.265C3.16406 99.265 3.71052 98.7929 3.71052 98.1793C3.71052 97.7274 3.22478 97.2891 2.26679 96.871C2.19932 96.844 2.1521 96.8171 2.11162 96.8036C0.546458 96.1157 0.16866 95.6504 0.16866 94.7468C0.16866 93.5869 1.11316 92.7574 2.47593 92.7574C2.83349 92.7574 3.24502 92.8249 3.72401 92.9598C3.87243 92.8519 3.98712 92.8046 4.08832 92.8046Z"
		fill="#3E5C5B" />
	<path
		d="M7.79882 95.5695C8.26432 94.4163 8.55441 93.6004 8.66236 93.1081C8.72307 92.8114 8.82427 92.7642 9.18183 92.7642C9.4247 92.7642 9.53939 92.8316 9.66757 93.0811C10.0386 93.8094 10.7065 95.3267 11.3609 96.9789C11.4149 97.1137 11.4891 97.3026 11.5903 97.5521C11.9546 98.4894 12.2447 99.0087 12.4606 99.1301C12.4943 99.1503 12.5483 99.1705 12.6292 99.1975C12.8316 99.2582 12.9396 99.3526 12.9396 99.4875C12.9396 99.6358 12.8451 99.737 12.6495 99.7977C12.4538 99.8516 12.0693 99.8786 11.4891 99.8786C10.9157 99.8786 10.5379 99.8516 10.349 99.7977C10.1601 99.7437 10.0589 99.6358 10.0589 99.4875C10.0589 99.3728 10.1735 99.2717 10.4097 99.184C10.4434 99.1705 10.4704 99.157 10.4839 99.157C10.666 99.0963 10.7268 99.0154 10.7268 98.8603C10.7268 98.6917 10.6121 98.2534 10.4704 97.9432C10.4299 97.8623 10.4029 97.8151 10.3827 97.7948C10.3624 97.7746 10.3355 97.7611 10.3152 97.7544C10.2545 97.7409 10.1263 97.7274 9.93068 97.7139C9.73503 97.7072 9.49216 97.7004 9.18858 97.7004H8.95245C8.46671 97.7004 8.14288 97.7072 7.98097 97.7274C7.81906 97.7476 7.71786 97.7814 7.67064 97.8353C7.52222 98.0039 7.34681 98.4625 7.34681 98.6985C7.34681 98.9008 7.44126 99.0357 7.6369 99.1166C7.67738 99.1368 7.7381 99.157 7.80556 99.184C8.00796 99.2515 8.10915 99.3526 8.10915 99.4807C8.10915 99.6291 8.0282 99.7302 7.85954 99.7909C7.69762 99.8449 7.36705 99.8719 6.88131 99.8719C6.38882 99.8719 6.065 99.8449 5.90308 99.7909C5.73442 99.737 5.65347 99.6291 5.65347 99.4807C5.65347 99.3526 5.75466 99.2582 5.94356 99.1773C6.02452 99.1436 6.08523 99.1098 6.13246 99.0896C6.37533 98.9412 6.60471 98.5906 6.82059 98.0376L6.93528 97.7476L7.63016 96.0011C7.66389 95.8999 7.71786 95.7583 7.79882 95.5695ZM9.05365 94.531H8.92547C8.58815 95.3267 8.25757 96.1359 7.94724 97.0059C8.29805 96.9856 8.64212 96.9654 9.01992 96.9654C9.37073 96.9654 9.71479 96.9721 10.0521 96.9924C9.70805 96.0483 9.37073 95.2255 9.05365 94.531Z"
		fill="#3E5C5B" />
	<path
		d="M19.4633 95.9876C18.5188 98.4692 17.9319 99.71 17.7093 99.71C17.6081 99.71 17.4664 99.5414 17.2842 99.2043C17.0953 98.8671 16.7783 98.1725 16.3195 97.1205L15.2671 94.6726C15.2266 96.1629 15.2064 97.2351 15.2064 97.896C15.2064 98.3478 15.2131 98.6446 15.2401 98.7862C15.2603 98.9345 15.2941 99.0289 15.3413 99.0626C15.3818 99.0964 15.456 99.1301 15.5572 99.1705C15.7596 99.2447 15.8608 99.3459 15.8608 99.4807C15.8608 99.6156 15.7798 99.7168 15.6111 99.7775C15.4425 99.8382 15.1659 99.8651 14.7678 99.8651C14.417 99.8651 14.1607 99.8314 13.9988 99.7707C13.8368 99.71 13.7559 99.6089 13.7559 99.474C13.7559 99.3594 13.8436 99.265 14.019 99.184C14.1944 99.1031 14.2888 99.0289 14.3091 98.9682C14.3496 98.8064 14.3968 98.3141 14.4508 97.4779C14.498 96.6485 14.5182 95.7246 14.5182 94.7063V94.5512C14.5182 94.214 14.5047 93.9848 14.4777 93.8701C14.4508 93.7555 14.3968 93.6746 14.3293 93.6341C14.2754 93.6004 14.2011 93.5667 14.0999 93.5329C13.8908 93.452 13.7829 93.3509 13.7829 93.216C13.7829 93.0879 13.8571 93.0002 14.0055 92.953C14.1472 92.9058 14.4575 92.8856 14.923 92.8856C15.2738 92.8856 15.5032 92.8923 15.6111 92.899C15.7123 92.9058 15.7798 92.9193 15.8068 92.9395C15.8675 92.98 16.0092 93.2902 16.2386 93.8701C16.3532 94.1601 16.4409 94.3894 16.5152 94.558L16.6568 94.9019C17.4394 96.844 17.8644 97.8151 17.9386 97.8151C18.0129 97.8151 18.1883 97.4644 18.4851 96.7698C18.7752 96.0753 19.1193 95.1649 19.5106 94.0252L19.6118 93.7285C19.7264 93.3711 19.8344 93.1418 19.9356 93.0339C19.9896 92.98 20.0773 92.9328 20.2122 92.9125C20.3404 92.8923 20.563 92.8788 20.8733 92.8788C21.3051 92.8788 21.5952 92.899 21.7369 92.9463C21.8785 93.0002 21.9528 93.0879 21.9528 93.2093C21.9528 93.3509 21.8583 93.452 21.6762 93.5127C21.6087 93.5329 21.5615 93.5532 21.5412 93.5667C21.44 93.6274 21.3793 93.715 21.3523 93.8431C21.3186 93.9713 21.2984 94.2747 21.2984 94.7737C21.2984 95.7988 21.3186 96.7226 21.3523 97.5453C21.3861 98.3681 21.413 98.8401 21.4468 98.9615C21.467 99.0357 21.548 99.1031 21.6964 99.1503C21.7369 99.1638 21.7706 99.1773 21.7976 99.1908C21.973 99.2582 22.0472 99.3391 22.0472 99.4807C22.0472 99.6224 21.9595 99.7235 21.7773 99.7775C21.5952 99.8314 21.2444 99.8584 20.7114 99.8584C20.2257 99.8584 19.8951 99.8314 19.7197 99.7775C19.5443 99.7235 19.4566 99.6224 19.4566 99.4807C19.4566 99.3526 19.5578 99.2515 19.7602 99.1705C19.8614 99.1301 19.9288 99.0964 19.9693 99.0626C20.03 99.0222 20.0705 98.9278 20.0907 98.7862C20.111 98.6446 20.1245 98.3546 20.1245 97.923V97.6735C20.1245 96.0078 20.1177 94.8951 20.0975 94.3826C19.9221 94.7805 19.7197 95.3065 19.4633 95.9876Z"
		fill="#3E5C5B" />
	<path
		d="M28.2337 92.8248C28.2607 92.8181 28.2809 92.8181 28.2877 92.8181C28.4428 92.8181 28.5778 92.9462 28.6722 93.2092C28.7734 93.4722 28.8206 93.8161 28.8206 94.2342C28.8206 94.6254 28.7397 94.7872 28.5305 94.7872C28.4159 94.7872 28.3012 94.7063 28.227 94.5781C28.1932 94.5107 28.146 94.3961 28.0853 94.241C28.0246 94.0926 27.9706 93.9847 27.9301 93.924C27.7547 93.6678 27.5321 93.5734 27.0801 93.5734H26.8777C26.6146 93.5734 26.5201 93.6071 26.4931 93.7892C26.4594 94.0994 26.4392 94.8681 26.4392 95.8324C26.4392 96.8305 26.4459 97.5992 26.4661 98.1252C26.4864 98.658 26.5134 98.9547 26.5471 99.0087C26.5808 99.0559 26.6888 99.1098 26.8574 99.1772C27.0328 99.2447 27.1205 99.3458 27.1205 99.474C27.1205 99.6156 27.0261 99.7167 26.8439 99.7707C26.6618 99.8246 26.3177 99.8516 25.8185 99.8516C25.3125 99.8516 24.9752 99.8246 24.793 99.7707C24.6109 99.7167 24.5164 99.6156 24.5164 99.474C24.5164 99.3458 24.6041 99.2447 24.7795 99.1772C24.9482 99.1098 25.0562 99.0559 25.0899 99.0087C25.1236 98.9547 25.1573 98.658 25.1776 98.1252C25.1978 97.5925 25.2046 96.8305 25.2046 95.8324C25.2046 94.8681 25.1843 94.0859 25.1439 93.7824C25.1236 93.6071 25.0292 93.5666 24.7661 93.5666H24.5502C24.1049 93.5666 23.8958 93.661 23.7136 93.9173C23.6731 93.978 23.6192 94.0859 23.5585 94.2342C23.4977 94.3893 23.4505 94.4972 23.4168 94.5714C23.3426 94.6995 23.2144 94.7805 23.0997 94.7805C23.0052 94.7805 22.931 94.74 22.8906 94.6523C22.8501 94.5714 22.8231 94.4298 22.8231 94.2275C22.8231 93.8026 22.8771 93.4587 22.9715 93.2025C23.0727 92.9395 23.2009 92.8113 23.3561 92.8113C23.3628 92.8113 23.383 92.8113 23.41 92.8181C23.6664 92.8585 23.9835 92.8788 24.3748 92.8788H27.2285C27.6535 92.8855 27.9773 92.8653 28.2337 92.8248Z"
		fill="#3E5C5B" />
	<path
		d="M30.0956 99.7572C29.981 99.7167 29.9202 99.6291 29.9202 99.5077C29.9202 99.3661 30.0214 99.2514 30.2238 99.1705C30.325 99.1368 30.3925 99.1031 30.433 99.0694C30.5004 99.0154 30.5477 98.7929 30.5814 98.3815C30.6084 97.9702 30.6219 97.2823 30.6219 96.3113C30.6219 95.6167 30.6084 95.0165 30.5814 94.5242C30.5477 94.0319 30.5139 93.7555 30.4802 93.6948C30.4465 93.6543 30.352 93.5936 30.1766 93.5194C30.0079 93.452 29.9135 93.3508 29.9135 93.2092C29.9135 93.0811 29.9877 93.0002 30.1361 92.953C30.2845 92.9058 30.6354 92.8855 31.1886 92.8855H34.157C34.3121 92.8855 34.4741 92.8653 34.636 92.8316L34.8856 92.7776C34.98 92.7776 35.0542 92.8181 35.0947 92.8923C35.2297 93.1216 35.3713 93.6543 35.3713 93.9645C35.3713 94.2477 35.2566 94.4163 35.061 94.4163C34.9463 94.4163 34.8316 94.3017 34.6967 94.0791C34.636 93.978 34.5887 93.9038 34.555 93.8499C34.4201 93.6476 34.1232 93.5397 33.6915 93.5397H33.0236C32.7133 93.5397 32.4771 93.5599 32.3152 93.5936C32.1533 93.6273 32.0454 93.6813 31.9846 93.7622C31.9307 93.8296 31.8902 93.9645 31.87 94.1736C31.8497 94.3826 31.8362 94.6928 31.8362 95.1042V95.4953C31.8362 95.8055 31.8699 95.8392 32.0521 95.8392H32.9156C33.4351 95.8392 33.6038 95.7111 33.6577 95.32L33.678 95.2053C33.7252 94.8816 33.8332 94.7265 33.9951 94.7265C34.1367 94.7265 34.2379 94.8142 34.2852 94.9895C34.3391 95.1649 34.3661 95.5695 34.3661 96.1899C34.3661 96.8103 34.3391 97.2014 34.2852 97.3767C34.2312 97.5453 34.1367 97.6397 33.9951 97.6397C33.8332 97.6397 33.7252 97.4779 33.678 97.161C33.6712 97.1137 33.6645 97.08 33.6577 97.0463C33.6038 96.6552 33.4351 96.5271 32.9156 96.5271H32.0588C31.9711 96.5271 31.9104 96.554 31.8767 96.608C31.843 96.6619 31.8295 96.7968 31.8295 96.9991V97.4577C31.8295 97.8825 31.8362 98.1927 31.8497 98.395C31.8632 98.5973 31.8902 98.7457 31.9307 98.8333C31.9711 98.9412 32.0791 99.0154 32.241 99.0559C32.4029 99.1031 32.666 99.1233 33.0101 99.1233H33.6375C34.3121 99.1233 34.6157 98.9817 34.8721 98.5164C34.9126 98.449 34.9665 98.3411 35.0205 98.1927C35.115 97.9499 35.2162 97.8286 35.3309 97.8286C35.4928 97.8286 35.594 97.9971 35.594 98.2736C35.594 98.6041 35.4793 99.1233 35.3106 99.5886C35.2162 99.8246 35.1015 99.9528 34.9733 99.9528C34.9598 99.9528 34.9193 99.946 34.8519 99.9258C34.636 99.8651 34.4268 99.8381 34.2109 99.8381H30.9255C30.5072 99.8247 30.2171 99.8044 30.0956 99.7572Z"
		fill="#3E5C5B" />
	<path
		d="M38.1306 94.8075C38.1238 94.9356 38.1238 95.1514 38.1238 95.4549V95.9202C38.1238 97.3363 38.1441 98.2332 38.1845 98.5906C38.2183 98.948 38.2925 99.1301 38.3937 99.1301C38.5758 99.1301 38.8052 99.3122 38.8052 99.4807C38.8052 99.6224 38.731 99.7168 38.5758 99.7775C38.4207 99.8382 38.1508 99.8651 37.773 99.8651C37.3952 99.8651 37.1254 99.8382 36.9702 99.7775C36.815 99.7235 36.7408 99.6224 36.7408 99.4807C36.7408 99.3526 36.8285 99.265 37.0039 99.1908C37.1793 99.1233 37.2738 99.0626 37.3075 99.0222C37.348 98.9615 37.3885 98.6985 37.4087 98.2332C37.4289 97.7746 37.4424 97.134 37.4424 96.3045C37.4424 95.5762 37.4289 94.9693 37.4087 94.4905C37.3885 94.0185 37.3547 93.7487 37.3075 93.688C37.2738 93.6408 37.1793 93.5801 37.0039 93.5127C36.8285 93.4453 36.7408 93.3441 36.7408 93.2227C36.7408 93.0946 36.815 93.0069 36.9567 92.953C37.0984 92.899 37.3682 92.8788 37.773 92.8788C38.0496 92.8788 38.225 92.8856 38.306 92.899C38.3869 92.9125 38.4477 92.9395 38.4949 92.9665C38.5758 93.0407 38.8052 93.3239 39.183 93.8094C39.5608 94.3017 39.8779 94.7131 40.1545 95.057L41.2542 96.3989C41.8613 97.1407 42.2189 97.5588 42.509 97.8758C42.5157 97.8151 42.5157 97.7477 42.5157 97.6735V97.3161C42.5157 96.3652 42.509 95.556 42.4887 94.9019C42.4685 94.2478 42.4415 93.8634 42.4145 93.7555C42.3943 93.6813 42.3133 93.6139 42.2391 93.5801C42.057 93.5127 41.949 93.4588 41.9018 93.4116C41.8546 93.3644 41.8343 93.3037 41.8343 93.2295C41.8343 93.1014 41.9018 93.0137 42.0367 92.9597C42.1717 92.9058 42.455 92.8856 42.8935 92.8856C43.2916 92.8856 43.5614 92.9058 43.6896 92.9597C43.8245 93.0137 43.892 93.1014 43.892 93.2295C43.892 93.3644 43.8245 93.4453 43.6424 93.5194C43.6221 93.5262 43.5952 93.5464 43.5479 93.5599C43.4063 93.6139 43.332 93.6746 43.3051 93.7487C43.2646 93.8836 43.2376 94.268 43.2241 94.9086C43.2039 95.5425 43.1971 96.5203 43.1971 97.8353C43.1971 98.1118 43.2039 98.4153 43.2039 98.7524L43.2106 99.3526C43.2106 99.6021 43.1971 99.7505 43.1634 99.8044C43.1297 99.8651 43.0689 99.8921 42.9812 99.8921C42.6439 99.8921 41.8951 99.1638 40.7414 97.7207L40.5863 97.5184L39.5136 96.1764C39.0278 95.556 38.6973 95.1446 38.5286 94.9356C38.3532 94.7265 38.2183 94.5714 38.1238 94.4703L38.1306 94.8075Z"
		fill="#3E5C5B" />
	<path
		d="M49.7951 94.5108C49.7682 94.0252 49.7344 93.7555 49.6939 93.6948C49.6602 93.6476 49.5658 93.5869 49.3904 93.5195C49.215 93.452 49.1272 93.3509 49.1272 93.2228C49.1272 93.0946 49.2015 93.007 49.3431 92.9598C49.4848 92.9126 49.8491 92.8923 50.4293 92.8923C50.9893 92.8923 51.3468 92.9126 51.502 92.9598C51.6504 93.0137 51.7246 93.1014 51.7246 93.2228C51.7246 93.3509 51.6302 93.452 51.4278 93.533C51.3266 93.5734 51.2524 93.6071 51.2119 93.6409C51.1512 93.6813 51.1107 93.8027 51.0905 94.005C51.0702 94.2073 51.0567 94.6794 51.0567 95.4347C51.0567 95.5628 51.1174 95.6504 51.2389 95.6977C51.3603 95.7449 51.6504 95.7651 52.1226 95.7651H52.5342C53.0199 95.7651 53.3572 95.7583 53.5596 95.7314C53.762 95.7111 53.8835 95.6774 53.9442 95.6302C53.9644 95.61 53.9847 95.583 53.9981 95.5425C54.0049 95.5021 54.0116 95.4414 54.0116 95.3537V95.1379C54.0116 94.5175 54.0049 94.1197 53.9779 93.9511C53.9577 93.7825 53.9172 93.6813 53.8632 93.6409C53.8227 93.6071 53.7485 93.5734 53.6473 93.533C53.4449 93.452 53.3437 93.3509 53.3437 93.2228C53.3437 93.0946 53.418 93.007 53.5731 92.9598C53.7283 92.9126 54.0858 92.8923 54.6458 92.8923C55.226 92.8923 55.5835 92.9126 55.732 92.9598C55.8736 93.007 55.9479 93.0946 55.9479 93.2228C55.9479 93.3576 55.8467 93.4588 55.6443 93.533C55.5431 93.5734 55.4689 93.6071 55.4284 93.6409C55.3609 93.6948 55.3137 93.9376 55.2867 94.3692C55.253 94.8075 55.2395 95.4549 55.2395 96.3181C55.2395 97.0868 55.253 97.714 55.28 98.1995C55.3002 98.685 55.3407 98.9683 55.3812 99.029C55.4149 99.0762 55.5161 99.1301 55.6847 99.2043C55.8602 99.2717 55.9411 99.3729 55.9411 99.4943C55.9411 99.6359 55.8534 99.737 55.6712 99.791C55.4891 99.8449 55.145 99.8719 54.6458 99.8719C54.1263 99.8719 53.7823 99.8449 53.6069 99.791C53.4314 99.737 53.3437 99.6359 53.3437 99.4943C53.3437 99.3594 53.4449 99.2582 53.6473 99.1841C53.7553 99.1436 53.8227 99.1099 53.8632 99.0762C53.9172 99.0357 53.9509 98.9143 53.9779 98.712C53.9981 98.5097 54.0116 98.1321 54.0116 97.5791C54.0116 97.2284 54.0049 97.0059 54.0049 96.898C53.9981 96.7968 53.9847 96.7362 53.9712 96.7092C53.9307 96.6485 53.8362 96.6013 53.6811 96.5811C53.5259 96.5608 53.1414 96.5473 52.5342 96.5473C52.0147 96.5473 51.6706 96.5541 51.4952 96.5743C51.3131 96.5945 51.1984 96.6283 51.1444 96.6755C51.1242 96.7024 51.1039 96.7429 51.0905 96.8171C51.077 96.8913 51.0702 97.0126 51.0702 97.1812V97.5791C51.0702 98.1321 51.077 98.5097 51.1039 98.712C51.1242 98.9143 51.1647 99.0357 51.2186 99.0762C51.2591 99.1099 51.3333 99.1436 51.4345 99.1841C51.6369 99.2582 51.7314 99.3594 51.7314 99.4943C51.7314 99.6359 51.6437 99.737 51.4682 99.791C51.2928 99.8449 50.9488 99.8719 50.4293 99.8719C49.9301 99.8719 49.586 99.8449 49.4039 99.791C49.2217 99.737 49.1272 99.6359 49.1272 99.4943C49.1272 99.3661 49.2284 99.265 49.4308 99.1841C49.532 99.1436 49.6062 99.1099 49.6467 99.0762C49.7142 99.0222 49.7614 98.7997 49.7951 98.3883C49.8221 97.977 49.8356 97.2891 49.8356 96.3181C49.8356 95.5898 49.8221 94.9896 49.7951 94.5108Z"
		fill="#3E5C5B" />
	<path
		d="M58.2955 94.4906C58.2686 94.0185 58.2281 93.7555 58.1876 93.6948C58.1539 93.6476 58.0594 93.5869 57.884 93.5195C57.7154 93.452 57.6209 93.3509 57.6209 93.2228C57.6209 93.0946 57.6951 93.007 57.8368 92.9598C57.9785 92.9126 58.3428 92.8923 58.923 92.8923C59.4964 92.8923 59.8607 92.9126 60.0024 92.9598C60.1441 93.007 60.2183 93.0946 60.2183 93.2228C60.2183 93.3576 60.1238 93.4588 59.9214 93.533C59.8202 93.5734 59.7528 93.6071 59.7055 93.6409C59.6448 93.6881 59.5976 93.8769 59.5774 94.1938C59.5504 94.5175 59.5369 95.0503 59.5369 95.7853C59.5369 96.7631 59.5436 97.5386 59.5706 98.0983C59.5908 98.6581 59.6246 98.9683 59.6651 99.029C59.6988 99.0762 59.7932 99.1301 59.9686 99.1976C60.144 99.265 60.225 99.3661 60.225 99.4943C60.225 99.6359 60.1373 99.737 59.9619 99.791C59.7865 99.8449 59.4424 99.8719 58.923 99.8719C58.4237 99.8719 58.0797 99.8449 57.8975 99.791C57.7153 99.737 57.6209 99.6359 57.6209 99.4943C57.6209 99.3661 57.7221 99.265 57.9245 99.1841C58.0257 99.1436 58.0931 99.1099 58.1404 99.0762C58.2078 99.0222 58.2551 98.8064 58.2888 98.422C58.3158 98.0377 58.3293 97.3363 58.3293 96.3181C58.336 95.5695 58.3225 94.9559 58.2955 94.4906Z"
		fill="#3E5C5B" />
	<path
		d="M66.5464 98.4827C66.5869 98.4153 66.6409 98.3141 66.7016 98.1928C66.8163 97.9432 66.9377 97.8219 67.0726 97.8219C67.2345 97.8219 67.329 97.9972 67.329 98.2872C67.329 98.685 67.2413 99.1638 67.0929 99.5752C66.9849 99.8517 66.8905 99.9461 66.7083 99.9461L66.4654 99.8921C66.3035 99.8517 66.1281 99.8314 65.946 99.8314H63.099C62.6402 99.8314 62.3434 99.8112 62.2287 99.764C62.114 99.7235 62.0533 99.6359 62.0533 99.5145C62.0533 99.3729 62.1545 99.2582 62.3569 99.1773C62.4513 99.1436 62.5256 99.1099 62.566 99.0762C62.6335 99.0222 62.6807 98.8199 62.7077 98.4558C62.7347 98.0983 62.7482 97.3835 62.7482 96.3113C62.7482 95.5493 62.7414 94.9356 62.7145 94.4771C62.6942 94.0185 62.6605 93.7555 62.6133 93.7016C62.5795 93.6476 62.4783 93.5869 62.3029 93.5195C62.1275 93.452 62.0466 93.3509 62.0466 93.2228C62.0466 93.0946 62.1208 93.007 62.2624 92.9598C62.4041 92.9126 62.7684 92.8923 63.3486 92.8923C63.9288 92.8923 64.2999 92.9126 64.4415 92.9598C64.5832 93.0137 64.6574 93.1014 64.6574 93.2228C64.6574 93.3576 64.5562 93.4588 64.3471 93.533C64.2391 93.5734 64.1717 93.6071 64.1312 93.6409C64.0705 93.6948 64.03 93.8769 64.003 94.2006C63.976 94.531 63.9625 95.03 63.9625 95.6909C63.9625 96.5136 63.9693 97.188 63.9828 97.7207C63.9963 98.2535 64.0233 98.5771 64.0502 98.6918C64.0907 98.8536 64.1852 98.9615 64.3336 99.0222C64.4753 99.0829 64.7586 99.1099 65.1701 99.1099H65.3523C65.973 99.1099 66.2496 98.9885 66.5464 98.4827Z"
		fill="#3E5C5B" />
	<path
		d="M72.8475 98.4827C72.888 98.4153 72.942 98.3141 73.0027 98.1928C73.1174 97.9432 73.2388 97.8219 73.3737 97.8219C73.5356 97.8219 73.6301 97.9972 73.6301 98.2872C73.6301 98.685 73.5424 99.1638 73.394 99.5752C73.286 99.8517 73.1916 99.9461 73.0094 99.9461L72.7666 99.8921C72.6046 99.8517 72.4292 99.8314 72.2471 99.8314H69.4001C68.9414 99.8314 68.6445 99.8112 68.5298 99.764C68.4151 99.7235 68.3544 99.6359 68.3544 99.5145C68.3544 99.3729 68.4556 99.2582 68.658 99.1773C68.7524 99.1436 68.8267 99.1099 68.8671 99.0762C68.9346 99.0222 68.9818 98.8199 69.0088 98.4558C69.0358 98.0983 69.0493 97.3835 69.0493 96.3113C69.0493 95.5493 69.0425 94.9356 69.0156 94.4771C68.9953 94.0185 68.9616 93.7555 68.9144 93.7016C68.8806 93.6476 68.7794 93.5869 68.604 93.5195C68.4354 93.452 68.3477 93.3509 68.3477 93.2228C68.3477 93.0946 68.4219 93.007 68.5635 92.9598C68.7052 92.9126 69.0695 92.8923 69.6497 92.8923C70.2299 92.8923 70.601 92.9126 70.7426 92.9598C70.8843 93.0137 70.9585 93.1014 70.9585 93.2228C70.9585 93.3576 70.8573 93.4588 70.6482 93.533C70.5402 93.5734 70.4728 93.6071 70.4323 93.6409C70.3716 93.6948 70.3311 93.8769 70.3041 94.2006C70.2771 94.531 70.2636 95.03 70.2636 95.6909C70.2636 96.5136 70.2704 97.188 70.2839 97.7207C70.2974 98.2535 70.3244 98.5771 70.3513 98.6918C70.3918 98.8536 70.4863 98.9615 70.6347 99.0222C70.7764 99.0829 71.0597 99.1099 71.4712 99.1099H71.6534C72.2673 99.1099 72.5439 98.9885 72.8475 98.4827Z"
		fill="#3E5C5B" />
	<path
		d="M78.4672 92.8047C78.6224 92.8047 78.7439 92.8924 78.8788 93.1351C79.0947 93.533 79.2296 93.9848 79.2296 94.3085C79.2296 94.5243 79.1217 94.6524 78.9395 94.6524C78.7641 94.6524 78.6022 94.5378 78.4403 94.3017L78.3728 94.2073C78.0085 93.7218 77.5902 93.506 77.0505 93.506C76.3219 93.506 75.8766 93.8567 75.8766 94.4501C75.8766 94.7131 75.9643 94.9289 76.1397 95.0975C76.3084 95.2728 76.7469 95.5088 77.4418 95.8123C77.4823 95.8325 77.5565 95.8595 77.6442 95.9C78.2244 96.1427 78.6427 96.3788 78.8923 96.608C79.2431 96.9317 79.4387 97.3836 79.4387 97.8893C79.4387 99.2111 78.474 99.9866 76.8211 99.9866C76.0386 99.9866 75.283 99.8112 74.8242 99.5482C74.5678 99.3999 74.3789 98.7862 74.3789 98.0579C74.3789 97.7612 74.4936 97.5993 74.7028 97.5993C74.8579 97.5993 75.0063 97.741 75.1683 98.0309L75.2829 98.2332C75.6945 98.9548 76.1532 99.2583 76.8144 99.2583C77.543 99.2583 78.0895 98.7862 78.0895 98.1725C78.0895 97.7207 77.6037 97.2824 76.6457 96.8643C76.5783 96.8373 76.531 96.8103 76.4906 96.7969C74.9254 96.109 74.5476 95.6437 74.5476 94.7401C74.5476 93.5802 75.4921 92.7507 76.8549 92.7507C77.2124 92.7507 77.6239 92.8182 78.1029 92.953C78.2514 92.8519 78.3661 92.8047 78.4672 92.8047Z"
		fill="#3E5C5B" />
	<path
		d="M84.809 99.8179C84.6808 99.7639 84.6201 99.6695 84.6201 99.5347C84.6201 99.4133 84.701 99.3189 84.8764 99.2514C85.0518 99.184 85.153 99.1233 85.1868 99.0761C85.2272 99.0087 85.2677 98.7322 85.2947 98.2466C85.3217 97.7611 85.3352 97.134 85.3352 96.3652C85.3352 95.6706 85.3217 95.0704 85.2947 94.5782C85.261 94.0859 85.2272 93.8094 85.1935 93.7487C85.1598 93.7015 85.0653 93.6408 84.8899 93.5734C84.7145 93.5059 84.6268 93.4048 84.6268 93.2767C84.6268 93.1485 84.6943 93.0541 84.8292 93.0002C84.9641 92.9462 85.2272 92.9192 85.6185 92.9192C85.6927 92.9192 85.8344 92.926 86.0301 92.926C86.2324 92.9327 86.3944 92.9327 86.5225 92.9327C86.6777 92.9327 86.8936 92.926 87.1567 92.9125C87.4198 92.899 87.602 92.8923 87.7099 92.8923C90.1251 92.8923 91.4879 94.187 91.4879 96.4798C91.4879 98.7254 90.1251 99.8988 87.548 99.8988C87.4401 99.8988 87.2512 99.8921 87.0015 99.8853C86.7452 99.8786 86.5428 99.8718 86.3944 99.8718C86.2999 99.8718 86.165 99.8786 85.9896 99.8786C85.8074 99.8853 85.6725 99.8853 85.5848 99.8853C85.1868 99.8988 84.9304 99.8718 84.809 99.8179ZM87.5885 93.5666C87.069 93.5666 86.7789 93.6678 86.7047 93.8768C86.6642 93.9982 86.6305 94.241 86.6035 94.6186C86.5833 94.9963 86.5698 95.4885 86.5698 96.0955C86.5698 96.8305 86.5833 97.4509 86.6035 97.9499C86.6305 98.4557 86.6575 98.7592 86.7047 98.8671C86.7384 98.9682 86.8599 99.0424 87.069 99.1166C87.2849 99.184 87.5412 99.2245 87.8313 99.2245C89.3223 99.2245 90.0644 98.3343 90.0644 96.527C90.0711 94.6051 89.2009 93.5666 87.5885 93.5666Z"
		fill="#3E5C5B" />
	<path
		d="M94.3079 95.6301C94.7734 94.477 95.0635 93.661 95.1714 93.1688C95.2321 92.872 95.3333 92.8248 95.6909 92.8248C95.9338 92.8248 96.0485 92.8923 96.1834 93.1418C96.5544 93.8701 97.2223 95.3874 97.8767 97.0395C97.9307 97.1744 98.0049 97.3632 98.1061 97.6127C98.4704 98.5501 98.7605 99.0694 98.9764 99.1907C99.0101 99.211 99.0641 99.2312 99.1451 99.2582C99.3474 99.3189 99.4554 99.4133 99.4554 99.5481C99.4554 99.6965 99.3609 99.7977 99.1653 99.8583C98.9696 99.9123 98.5851 99.9393 98.0049 99.9393C97.4315 99.9393 97.0537 99.9123 96.8648 99.8583C96.6759 99.8044 96.5747 99.6965 96.5747 99.5481C96.5747 99.4335 96.6894 99.3324 96.9255 99.2447C96.9592 99.2312 96.9862 99.2177 96.9997 99.2177C97.1818 99.157 97.2426 99.0761 97.2426 98.921C97.2426 98.7524 97.1279 98.3141 96.9862 98.0039C96.9457 97.923 96.9187 97.8757 96.8985 97.8555C96.8783 97.8353 96.8513 97.8218 96.831 97.8151C96.7703 97.8016 96.6421 97.7881 96.4465 97.7813C96.2508 97.7746 96.0012 97.7678 95.7044 97.7678H95.4683C94.9825 97.7678 94.6587 97.7746 94.4968 97.7948C94.3349 97.8151 94.2337 97.8488 94.1864 97.9027C94.038 98.0713 93.8626 98.5299 93.8626 98.7659C93.8626 98.9682 93.9571 99.1031 94.1527 99.184C94.1932 99.2042 94.2539 99.2245 94.3214 99.2514C94.5238 99.3189 94.625 99.42 94.625 99.5481C94.625 99.6965 94.544 99.7977 94.3753 99.8583C94.2134 99.9123 93.8829 99.9393 93.3971 99.9393C92.9046 99.9393 92.5808 99.9123 92.4189 99.8583C92.2502 99.8044 92.1693 99.6965 92.1693 99.5481C92.1693 99.42 92.2637 99.3256 92.4594 99.2447C92.5403 99.211 92.601 99.1772 92.6483 99.157C92.8979 99.0087 93.1205 98.658 93.3364 98.105L93.4511 97.8151L94.146 96.0685C94.173 95.9538 94.2269 95.8122 94.3079 95.6301ZM95.5627 94.5849H95.4345C95.0972 95.3806 94.7666 96.1899 94.4563 97.0598C94.8071 97.0395 95.1512 97.0261 95.529 97.0261C95.8798 97.0261 96.2239 97.0328 96.5612 97.053C96.2171 96.1022 95.8798 95.2795 95.5627 94.5849Z"
		fill="#3E5C5B" />
	<path
		d="M105.217 98.5367C105.257 98.4692 105.311 98.3681 105.372 98.2467C105.487 97.9972 105.608 97.8758 105.743 97.8758C105.905 97.8758 105.999 98.0511 105.999 98.3411C105.999 98.739 105.912 99.2178 105.763 99.6291C105.655 99.9056 105.561 100 105.379 100L105.136 99.9461C104.974 99.9056 104.799 99.8854 104.616 99.8854H101.769C101.311 99.8854 101.014 99.8651 100.899 99.8179C100.784 99.7775 100.724 99.6898 100.724 99.5684C100.724 99.4268 100.825 99.3122 101.027 99.2312C101.129 99.1975 101.196 99.1638 101.236 99.1301C101.304 99.0761 101.351 98.8738 101.378 98.5097C101.398 98.1523 101.419 97.4375 101.419 96.3652C101.419 95.6032 101.412 94.9895 101.385 94.531C101.365 94.0724 101.331 93.8094 101.29 93.7555C101.257 93.7015 101.156 93.6408 100.98 93.5734C100.805 93.506 100.724 93.4048 100.724 93.2767C100.724 93.1486 100.798 93.0609 100.94 93.0137C101.081 92.9665 101.446 92.9463 102.026 92.9463C102.606 92.9463 102.977 92.9665 103.119 93.0137C103.26 93.0676 103.335 93.1553 103.335 93.2767C103.335 93.4116 103.233 93.5127 103.024 93.5869C102.916 93.6274 102.849 93.6611 102.808 93.6948C102.748 93.7487 102.707 93.9308 102.68 94.2545C102.653 94.5849 102.64 95.084 102.64 95.7448C102.64 96.5675 102.646 97.2419 102.66 97.7746C102.673 98.3074 102.7 98.6311 102.727 98.7457C102.768 98.9075 102.862 99.0154 103.011 99.0761C103.152 99.1368 103.436 99.1638 103.847 99.1638H104.029C104.643 99.1638 104.913 99.0424 105.217 98.5367Z"
		fill="#3E5C5B" />
	<path
		d="M109.265 95.6301C109.73 94.477 110.02 93.661 110.128 93.1688C110.189 92.872 110.29 92.8248 110.648 92.8248C110.891 92.8248 111.005 92.8923 111.14 93.1418C111.511 93.8701 112.179 95.3874 112.834 97.0395C112.887 97.1744 112.962 97.3632 113.063 97.6127C113.427 98.5501 113.717 99.0694 113.933 99.1907C113.967 99.211 114.021 99.2312 114.102 99.2582C114.304 99.3189 114.412 99.4133 114.412 99.5481C114.412 99.6965 114.318 99.7977 114.122 99.8583C113.926 99.9123 113.542 99.9393 112.962 99.9393C112.388 99.9393 112.01 99.9123 111.822 99.8583C111.633 99.8044 111.531 99.6965 111.531 99.5481C111.531 99.4335 111.646 99.3324 111.882 99.2447C111.916 99.2312 111.943 99.2177 111.956 99.2177C112.139 99.157 112.199 99.0761 112.199 98.921C112.199 98.7524 112.085 98.3141 111.943 98.0039C111.902 97.923 111.876 97.8757 111.855 97.8555C111.835 97.8353 111.808 97.8218 111.788 97.8151C111.727 97.8016 111.599 97.7881 111.403 97.7813C111.208 97.7746 110.958 97.7678 110.661 97.7678H110.425C109.939 97.7678 109.615 97.7746 109.454 97.7948C109.292 97.8151 109.19 97.8488 109.143 97.9027C108.995 98.0713 108.819 98.5299 108.819 98.7659C108.819 98.9682 108.914 99.1031 109.109 99.184C109.15 99.2042 109.211 99.2245 109.278 99.2514C109.481 99.3189 109.582 99.42 109.582 99.5481C109.582 99.6965 109.501 99.7977 109.332 99.8583C109.17 99.9123 108.84 99.9393 108.354 99.9393C107.861 99.9393 107.538 99.9123 107.376 99.8583C107.207 99.8044 107.126 99.6965 107.126 99.5481C107.126 99.42 107.221 99.3256 107.416 99.2447C107.497 99.211 107.558 99.1772 107.605 99.157C107.855 99.0087 108.077 98.658 108.293 98.105L108.408 97.8151L109.103 96.0685C109.13 95.9538 109.184 95.8122 109.265 95.6301ZM110.519 94.5849H110.391C110.054 95.3806 109.723 96.1899 109.413 97.0598C109.764 97.0395 110.108 97.0261 110.486 97.0261C110.837 97.0261 111.181 97.0328 111.518 97.053C111.174 96.1022 110.837 95.2795 110.519 94.5849Z"
		fill="#3E5C5B" />
	<path
		d="M119.371 92.8788C119.398 92.872 119.418 92.872 119.425 92.872C119.58 92.872 119.715 93.0002 119.809 93.2632C119.91 93.5262 119.958 93.8701 119.958 94.2882C119.958 94.6793 119.877 94.8411 119.668 94.8411C119.553 94.8411 119.438 94.7602 119.364 94.6321C119.33 94.5647 119.283 94.45 119.222 94.2949C119.162 94.1466 119.108 94.0387 119.067 93.978C118.892 93.7217 118.669 93.6273 118.217 93.6273H118.015C117.752 93.6273 117.657 93.6678 117.63 93.8431C117.596 94.1533 117.576 94.9221 117.576 95.8864C117.576 96.8844 117.583 97.6532 117.603 98.1792C117.623 98.7119 117.65 99.0087 117.684 99.0626C117.718 99.1098 117.826 99.1638 117.994 99.2312C118.17 99.2986 118.258 99.3998 118.258 99.5279C118.258 99.6695 118.163 99.7707 117.981 99.8246C117.799 99.8786 117.455 99.9055 116.956 99.9055C116.45 99.9055 116.112 99.8786 115.93 99.8246C115.748 99.7707 115.653 99.6695 115.653 99.5279C115.653 99.3998 115.741 99.2986 115.917 99.2312C116.085 99.1638 116.193 99.1098 116.227 99.0626C116.261 99.0087 116.294 98.7119 116.315 98.1792C116.335 97.6465 116.342 96.8844 116.342 95.8864C116.342 94.9221 116.315 94.1398 116.281 93.8364C116.261 93.661 116.166 93.6206 115.903 93.6206H115.687C115.242 93.6206 115.033 93.715 114.851 93.9712C114.81 94.0319 114.756 94.1398 114.695 94.2882C114.635 94.4433 114.588 94.5512 114.554 94.6254C114.48 94.7535 114.351 94.8344 114.237 94.8344C114.142 94.8344 114.068 94.7939 114.028 94.7063C113.987 94.6254 113.96 94.4837 113.96 94.2814C113.96 93.8566 114.014 93.5127 114.109 93.2564C114.21 92.9934 114.338 92.8653 114.493 92.8653C114.5 92.8653 114.52 92.8653 114.547 92.872C114.803 92.9125 115.12 92.9327 115.512 92.9327H118.365C118.784 92.9395 119.114 92.9192 119.371 92.8788Z"
		fill="#3E5C5B" />
</svg>
